%TF.GenerationSoftware,KiCad,Pcbnew,9.0.2*%
%TF.CreationDate,2025-07-21T01:26:10-05:00*%
%TF.ProjectId,lorae22,6c6f7261-6532-4322-9e6b-696361645f70,rev?*%
%TF.SameCoordinates,Original*%
%TF.FileFunction,Paste,Top*%
%TF.FilePolarity,Positive*%
%FSLAX46Y46*%
G04 Gerber Fmt 4.6, Leading zero omitted, Abs format (unit mm)*
G04 Created by KiCad (PCBNEW 9.0.2) date 2025-07-21 01:26:10*
%MOMM*%
%LPD*%
G01*
G04 APERTURE LIST*
G04 Aperture macros list*
%AMRoundRect*
0 Rectangle with rounded corners*
0 $1 Rounding radius*
0 $2 $3 $4 $5 $6 $7 $8 $9 X,Y pos of 4 corners*
0 Add a 4 corners polygon primitive as box body*
4,1,4,$2,$3,$4,$5,$6,$7,$8,$9,$2,$3,0*
0 Add four circle primitives for the rounded corners*
1,1,$1+$1,$2,$3*
1,1,$1+$1,$4,$5*
1,1,$1+$1,$6,$7*
1,1,$1+$1,$8,$9*
0 Add four rect primitives between the rounded corners*
20,1,$1+$1,$2,$3,$4,$5,0*
20,1,$1+$1,$4,$5,$6,$7,0*
20,1,$1+$1,$6,$7,$8,$9,0*
20,1,$1+$1,$8,$9,$2,$3,0*%
G04 Aperture macros list end*
%ADD10C,0.010000*%
%ADD11RoundRect,0.250000X0.337500X0.475000X-0.337500X0.475000X-0.337500X-0.475000X0.337500X-0.475000X0*%
%ADD12RoundRect,0.243750X-0.243750X-0.456250X0.243750X-0.456250X0.243750X0.456250X-0.243750X0.456250X0*%
%ADD13RoundRect,0.250000X-0.350000X-0.450000X0.350000X-0.450000X0.350000X0.450000X-0.350000X0.450000X0*%
%ADD14R,2.080000X1.510000*%
%ADD15RoundRect,0.250000X0.350000X0.450000X-0.350000X0.450000X-0.350000X-0.450000X0.350000X-0.450000X0*%
%ADD16RoundRect,0.250000X-0.337500X-0.475000X0.337500X-0.475000X0.337500X0.475000X-0.337500X0.475000X0*%
%ADD17RoundRect,0.250000X0.475000X-0.337500X0.475000X0.337500X-0.475000X0.337500X-0.475000X-0.337500X0*%
G04 APERTURE END LIST*
D10*
%TO.C,J3*%
X184282500Y-59992500D02*
X184647500Y-60307500D01*
X185107500Y-60307500D01*
X185107500Y-61847500D01*
X182947500Y-61847500D01*
X182947500Y-60307500D01*
X183407500Y-60307500D01*
X183772500Y-59992500D01*
X183772500Y-59232500D01*
X184282500Y-59232500D01*
X184282500Y-59992500D01*
G36*
X184282500Y-59992500D02*
G01*
X184647500Y-60307500D01*
X185107500Y-60307500D01*
X185107500Y-61847500D01*
X182947500Y-61847500D01*
X182947500Y-60307500D01*
X183407500Y-60307500D01*
X183772500Y-59992500D01*
X183772500Y-59232500D01*
X184282500Y-59232500D01*
X184282500Y-59992500D01*
G37*
X186822500Y-59992500D02*
X187187500Y-60307500D01*
X187647500Y-60307500D01*
X187647500Y-61847500D01*
X185487500Y-61847500D01*
X185487500Y-60307500D01*
X185947500Y-60307500D01*
X186312500Y-59992500D01*
X186312500Y-59232500D01*
X186822500Y-59232500D01*
X186822500Y-59992500D01*
G36*
X186822500Y-59992500D02*
G01*
X187187500Y-60307500D01*
X187647500Y-60307500D01*
X187647500Y-61847500D01*
X185487500Y-61847500D01*
X185487500Y-60307500D01*
X185947500Y-60307500D01*
X186312500Y-59992500D01*
X186312500Y-59232500D01*
X186822500Y-59232500D01*
X186822500Y-59992500D01*
G37*
X189362500Y-59992500D02*
X189727500Y-60307500D01*
X190187500Y-60307500D01*
X190187500Y-61847500D01*
X188027500Y-61847500D01*
X188027500Y-60307500D01*
X188487500Y-60307500D01*
X188852500Y-59992500D01*
X188852500Y-59232500D01*
X189362500Y-59232500D01*
X189362500Y-59992500D01*
G36*
X189362500Y-59992500D02*
G01*
X189727500Y-60307500D01*
X190187500Y-60307500D01*
X190187500Y-61847500D01*
X188027500Y-61847500D01*
X188027500Y-60307500D01*
X188487500Y-60307500D01*
X188852500Y-59992500D01*
X188852500Y-59232500D01*
X189362500Y-59232500D01*
X189362500Y-59992500D01*
G37*
X191902500Y-59992500D02*
X192267500Y-60307500D01*
X192727500Y-60307500D01*
X192727500Y-61847500D01*
X190567500Y-61847500D01*
X190567500Y-60307500D01*
X191027500Y-60307500D01*
X191392500Y-59992500D01*
X191392500Y-59232500D01*
X191902500Y-59232500D01*
X191902500Y-59992500D01*
G36*
X191902500Y-59992500D02*
G01*
X192267500Y-60307500D01*
X192727500Y-60307500D01*
X192727500Y-61847500D01*
X190567500Y-61847500D01*
X190567500Y-60307500D01*
X191027500Y-60307500D01*
X191392500Y-59992500D01*
X191392500Y-59232500D01*
X191902500Y-59232500D01*
X191902500Y-59992500D01*
G37*
%TD*%
D11*
%TO.C,C1*%
X144302500Y-73400000D03*
X146377500Y-73400000D03*
%TD*%
D12*
%TO.C,D3*%
X107562500Y-91575000D03*
X109437500Y-91575000D03*
%TD*%
D13*
%TO.C,R3*%
X204550000Y-104210000D03*
X206550000Y-104210000D03*
%TD*%
D12*
%TO.C,D2*%
X101337500Y-87950000D03*
X103212500Y-87950000D03*
%TD*%
%TO.C,D4*%
X101300000Y-91775000D03*
X103175000Y-91775000D03*
%TD*%
D14*
%TO.C,U2*%
X176110000Y-92430000D03*
X176110000Y-94970000D03*
X176110000Y-97510000D03*
X176110000Y-105110000D03*
X176110000Y-107650000D03*
X176110000Y-110190000D03*
X176110000Y-112730000D03*
X176110000Y-115270000D03*
X176110000Y-117810000D03*
X176110000Y-120350000D03*
X176110000Y-122890000D03*
X199260000Y-122890000D03*
X199260000Y-120350000D03*
X199260000Y-117810000D03*
X199260000Y-115270000D03*
X199260000Y-112730000D03*
X199260000Y-110190000D03*
X199260000Y-107650000D03*
X199260000Y-105110000D03*
X199260000Y-97510000D03*
X199260000Y-94970000D03*
X199260000Y-92430000D03*
%TD*%
D15*
%TO.C,R2*%
X134080000Y-110070000D03*
X132080000Y-110070000D03*
%TD*%
D12*
%TO.C,D1*%
X107562500Y-87950000D03*
X109437500Y-87950000D03*
%TD*%
D16*
%TO.C,C3*%
X122342500Y-98400000D03*
X124417500Y-98400000D03*
%TD*%
D13*
%TO.C,R1*%
X202610000Y-117720000D03*
X204610000Y-117720000D03*
%TD*%
D17*
%TO.C,C2*%
X173400000Y-119007500D03*
X173400000Y-116932500D03*
%TD*%
M02*
