%TF.GenerationSoftware,KiCad,Pcbnew,9.0.2*%
%TF.CreationDate,2025-07-21T01:26:10-05:00*%
%TF.ProjectId,lorae22,6c6f7261-6532-4322-9e6b-696361645f70,rev?*%
%TF.SameCoordinates,Original*%
%TF.FileFunction,Legend,Top*%
%TF.FilePolarity,Positive*%
%FSLAX46Y46*%
G04 Gerber Fmt 4.6, Leading zero omitted, Abs format (unit mm)*
G04 Created by KiCad (PCBNEW 9.0.2) date 2025-07-21 01:26:10*
%MOMM*%
%LPD*%
G01*
G04 APERTURE LIST*
%ADD10C,0.150000*%
%ADD11C,0.120000*%
%ADD12C,0.127000*%
%ADD13C,0.200000*%
%ADD14C,0.000000*%
G04 APERTURE END LIST*
D10*
X122714160Y-55847438D02*
X123380826Y-57847438D01*
X123380826Y-57847438D02*
X124047493Y-55847438D01*
X124618922Y-56037914D02*
X124714160Y-55942676D01*
X124714160Y-55942676D02*
X124904636Y-55847438D01*
X124904636Y-55847438D02*
X125380827Y-55847438D01*
X125380827Y-55847438D02*
X125571303Y-55942676D01*
X125571303Y-55942676D02*
X125666541Y-56037914D01*
X125666541Y-56037914D02*
X125761779Y-56228390D01*
X125761779Y-56228390D02*
X125761779Y-56418866D01*
X125761779Y-56418866D02*
X125666541Y-56704580D01*
X125666541Y-56704580D02*
X124523684Y-57847438D01*
X124523684Y-57847438D02*
X125761779Y-57847438D01*
X211000000Y-59175000D02*
X82075000Y-59175000D01*
X211000000Y-122600000D02*
X211000000Y-50800000D01*
X90625000Y-122600000D02*
X220000000Y-122600000D01*
X90575000Y-49800000D02*
X90575000Y-133050000D01*
X116390000Y-96190000D02*
X142190000Y-96370000D01*
X142110000Y-60430000D02*
X116360000Y-60510000D01*
X116360000Y-60510000D02*
X116390000Y-96190000D01*
X142190000Y-96370000D02*
X142110000Y-60430000D01*
X127420588Y-62877438D02*
X127325350Y-62829819D01*
X127325350Y-62829819D02*
X127182493Y-62829819D01*
X127182493Y-62829819D02*
X127039636Y-62877438D01*
X127039636Y-62877438D02*
X126944398Y-62972676D01*
X126944398Y-62972676D02*
X126896779Y-63067914D01*
X126896779Y-63067914D02*
X126849160Y-63258390D01*
X126849160Y-63258390D02*
X126849160Y-63401247D01*
X126849160Y-63401247D02*
X126896779Y-63591723D01*
X126896779Y-63591723D02*
X126944398Y-63686961D01*
X126944398Y-63686961D02*
X127039636Y-63782200D01*
X127039636Y-63782200D02*
X127182493Y-63829819D01*
X127182493Y-63829819D02*
X127277731Y-63829819D01*
X127277731Y-63829819D02*
X127420588Y-63782200D01*
X127420588Y-63782200D02*
X127468207Y-63734580D01*
X127468207Y-63734580D02*
X127468207Y-63401247D01*
X127468207Y-63401247D02*
X127277731Y-63401247D01*
X127896779Y-63829819D02*
X127896779Y-62829819D01*
X127896779Y-62829819D02*
X128277731Y-62829819D01*
X128277731Y-62829819D02*
X128372969Y-62877438D01*
X128372969Y-62877438D02*
X128420588Y-62925057D01*
X128420588Y-62925057D02*
X128468207Y-63020295D01*
X128468207Y-63020295D02*
X128468207Y-63163152D01*
X128468207Y-63163152D02*
X128420588Y-63258390D01*
X128420588Y-63258390D02*
X128372969Y-63306009D01*
X128372969Y-63306009D02*
X128277731Y-63353628D01*
X128277731Y-63353628D02*
X127896779Y-63353628D01*
X128849160Y-63782200D02*
X128992017Y-63829819D01*
X128992017Y-63829819D02*
X129230112Y-63829819D01*
X129230112Y-63829819D02*
X129325350Y-63782200D01*
X129325350Y-63782200D02*
X129372969Y-63734580D01*
X129372969Y-63734580D02*
X129420588Y-63639342D01*
X129420588Y-63639342D02*
X129420588Y-63544104D01*
X129420588Y-63544104D02*
X129372969Y-63448866D01*
X129372969Y-63448866D02*
X129325350Y-63401247D01*
X129325350Y-63401247D02*
X129230112Y-63353628D01*
X129230112Y-63353628D02*
X129039636Y-63306009D01*
X129039636Y-63306009D02*
X128944398Y-63258390D01*
X128944398Y-63258390D02*
X128896779Y-63210771D01*
X128896779Y-63210771D02*
X128849160Y-63115533D01*
X128849160Y-63115533D02*
X128849160Y-63020295D01*
X128849160Y-63020295D02*
X128896779Y-62925057D01*
X128896779Y-62925057D02*
X128944398Y-62877438D01*
X128944398Y-62877438D02*
X129039636Y-62829819D01*
X129039636Y-62829819D02*
X129277731Y-62829819D01*
X129277731Y-62829819D02*
X129420588Y-62877438D01*
X210929160Y-107402200D02*
X211072017Y-107449819D01*
X211072017Y-107449819D02*
X211310112Y-107449819D01*
X211310112Y-107449819D02*
X211405350Y-107402200D01*
X211405350Y-107402200D02*
X211452969Y-107354580D01*
X211452969Y-107354580D02*
X211500588Y-107259342D01*
X211500588Y-107259342D02*
X211500588Y-107164104D01*
X211500588Y-107164104D02*
X211452969Y-107068866D01*
X211452969Y-107068866D02*
X211405350Y-107021247D01*
X211405350Y-107021247D02*
X211310112Y-106973628D01*
X211310112Y-106973628D02*
X211119636Y-106926009D01*
X211119636Y-106926009D02*
X211024398Y-106878390D01*
X211024398Y-106878390D02*
X210976779Y-106830771D01*
X210976779Y-106830771D02*
X210929160Y-106735533D01*
X210929160Y-106735533D02*
X210929160Y-106640295D01*
X210929160Y-106640295D02*
X210976779Y-106545057D01*
X210976779Y-106545057D02*
X211024398Y-106497438D01*
X211024398Y-106497438D02*
X211119636Y-106449819D01*
X211119636Y-106449819D02*
X211357731Y-106449819D01*
X211357731Y-106449819D02*
X211500588Y-106497438D01*
X212310112Y-107402200D02*
X212214874Y-107449819D01*
X212214874Y-107449819D02*
X212024398Y-107449819D01*
X212024398Y-107449819D02*
X211929160Y-107402200D01*
X211929160Y-107402200D02*
X211881541Y-107306961D01*
X211881541Y-107306961D02*
X211881541Y-106926009D01*
X211881541Y-106926009D02*
X211929160Y-106830771D01*
X211929160Y-106830771D02*
X212024398Y-106783152D01*
X212024398Y-106783152D02*
X212214874Y-106783152D01*
X212214874Y-106783152D02*
X212310112Y-106830771D01*
X212310112Y-106830771D02*
X212357731Y-106926009D01*
X212357731Y-106926009D02*
X212357731Y-107021247D01*
X212357731Y-107021247D02*
X211881541Y-107116485D01*
X212786303Y-106783152D02*
X212786303Y-107449819D01*
X212786303Y-106878390D02*
X212833922Y-106830771D01*
X212833922Y-106830771D02*
X212929160Y-106783152D01*
X212929160Y-106783152D02*
X213072017Y-106783152D01*
X213072017Y-106783152D02*
X213167255Y-106830771D01*
X213167255Y-106830771D02*
X213214874Y-106926009D01*
X213214874Y-106926009D02*
X213214874Y-107449819D01*
X213643446Y-107402200D02*
X213738684Y-107449819D01*
X213738684Y-107449819D02*
X213929160Y-107449819D01*
X213929160Y-107449819D02*
X214024398Y-107402200D01*
X214024398Y-107402200D02*
X214072017Y-107306961D01*
X214072017Y-107306961D02*
X214072017Y-107259342D01*
X214072017Y-107259342D02*
X214024398Y-107164104D01*
X214024398Y-107164104D02*
X213929160Y-107116485D01*
X213929160Y-107116485D02*
X213786303Y-107116485D01*
X213786303Y-107116485D02*
X213691065Y-107068866D01*
X213691065Y-107068866D02*
X213643446Y-106973628D01*
X213643446Y-106973628D02*
X213643446Y-106926009D01*
X213643446Y-106926009D02*
X213691065Y-106830771D01*
X213691065Y-106830771D02*
X213786303Y-106783152D01*
X213786303Y-106783152D02*
X213929160Y-106783152D01*
X213929160Y-106783152D02*
X214024398Y-106830771D01*
X214881541Y-107402200D02*
X214786303Y-107449819D01*
X214786303Y-107449819D02*
X214595827Y-107449819D01*
X214595827Y-107449819D02*
X214500589Y-107402200D01*
X214500589Y-107402200D02*
X214452970Y-107306961D01*
X214452970Y-107306961D02*
X214452970Y-106926009D01*
X214452970Y-106926009D02*
X214500589Y-106830771D01*
X214500589Y-106830771D02*
X214595827Y-106783152D01*
X214595827Y-106783152D02*
X214786303Y-106783152D01*
X214786303Y-106783152D02*
X214881541Y-106830771D01*
X214881541Y-106830771D02*
X214929160Y-106926009D01*
X214929160Y-106926009D02*
X214929160Y-107021247D01*
X214929160Y-107021247D02*
X214452970Y-107116485D01*
X128429819Y-92896077D02*
X128429819Y-92324649D01*
X129429819Y-92610363D02*
X128429819Y-92610363D01*
X128429819Y-92086553D02*
X129429819Y-91419887D01*
X128429819Y-91419887D02*
X129429819Y-92086553D01*
X150441541Y-63479819D02*
X150679636Y-64479819D01*
X150679636Y-64479819D02*
X150870112Y-63765533D01*
X150870112Y-63765533D02*
X151060588Y-64479819D01*
X151060588Y-64479819D02*
X151298684Y-63479819D01*
X151679636Y-64479819D02*
X151679636Y-63479819D01*
X152108207Y-64479819D02*
X152108207Y-63956009D01*
X152108207Y-63956009D02*
X152060588Y-63860771D01*
X152060588Y-63860771D02*
X151965350Y-63813152D01*
X151965350Y-63813152D02*
X151822493Y-63813152D01*
X151822493Y-63813152D02*
X151727255Y-63860771D01*
X151727255Y-63860771D02*
X151679636Y-63908390D01*
X152965350Y-64432200D02*
X152870112Y-64479819D01*
X152870112Y-64479819D02*
X152679636Y-64479819D01*
X152679636Y-64479819D02*
X152584398Y-64432200D01*
X152584398Y-64432200D02*
X152536779Y-64336961D01*
X152536779Y-64336961D02*
X152536779Y-63956009D01*
X152536779Y-63956009D02*
X152584398Y-63860771D01*
X152584398Y-63860771D02*
X152679636Y-63813152D01*
X152679636Y-63813152D02*
X152870112Y-63813152D01*
X152870112Y-63813152D02*
X152965350Y-63860771D01*
X152965350Y-63860771D02*
X153012969Y-63956009D01*
X153012969Y-63956009D02*
X153012969Y-64051247D01*
X153012969Y-64051247D02*
X152536779Y-64146485D01*
X153441541Y-63813152D02*
X153441541Y-64479819D01*
X153441541Y-63908390D02*
X153489160Y-63860771D01*
X153489160Y-63860771D02*
X153584398Y-63813152D01*
X153584398Y-63813152D02*
X153727255Y-63813152D01*
X153727255Y-63813152D02*
X153822493Y-63860771D01*
X153822493Y-63860771D02*
X153870112Y-63956009D01*
X153870112Y-63956009D02*
X153870112Y-64479819D01*
X155108208Y-64479819D02*
X155108208Y-63479819D01*
X155108208Y-63479819D02*
X155441541Y-64194104D01*
X155441541Y-64194104D02*
X155774874Y-63479819D01*
X155774874Y-63479819D02*
X155774874Y-64479819D01*
X156251065Y-64479819D02*
X156251065Y-63813152D01*
X156251065Y-63479819D02*
X156203446Y-63527438D01*
X156203446Y-63527438D02*
X156251065Y-63575057D01*
X156251065Y-63575057D02*
X156298684Y-63527438D01*
X156298684Y-63527438D02*
X156251065Y-63479819D01*
X156251065Y-63479819D02*
X156251065Y-63575057D01*
X156870112Y-64479819D02*
X156774874Y-64432200D01*
X156774874Y-64432200D02*
X156727255Y-64336961D01*
X156727255Y-64336961D02*
X156727255Y-63479819D01*
X157393922Y-64479819D02*
X157298684Y-64432200D01*
X157298684Y-64432200D02*
X157251065Y-64336961D01*
X157251065Y-64336961D02*
X157251065Y-63479819D01*
X157774875Y-64479819D02*
X157774875Y-63813152D01*
X157774875Y-63479819D02*
X157727256Y-63527438D01*
X157727256Y-63527438D02*
X157774875Y-63575057D01*
X157774875Y-63575057D02*
X157822494Y-63527438D01*
X157822494Y-63527438D02*
X157774875Y-63479819D01*
X157774875Y-63479819D02*
X157774875Y-63575057D01*
X158155827Y-63813152D02*
X158346303Y-64479819D01*
X158346303Y-64479819D02*
X158536779Y-64003628D01*
X158536779Y-64003628D02*
X158727255Y-64479819D01*
X158727255Y-64479819D02*
X158917731Y-63813152D01*
X159727255Y-64479819D02*
X159727255Y-63956009D01*
X159727255Y-63956009D02*
X159679636Y-63860771D01*
X159679636Y-63860771D02*
X159584398Y-63813152D01*
X159584398Y-63813152D02*
X159393922Y-63813152D01*
X159393922Y-63813152D02*
X159298684Y-63860771D01*
X159727255Y-64432200D02*
X159632017Y-64479819D01*
X159632017Y-64479819D02*
X159393922Y-64479819D01*
X159393922Y-64479819D02*
X159298684Y-64432200D01*
X159298684Y-64432200D02*
X159251065Y-64336961D01*
X159251065Y-64336961D02*
X159251065Y-64241723D01*
X159251065Y-64241723D02*
X159298684Y-64146485D01*
X159298684Y-64146485D02*
X159393922Y-64098866D01*
X159393922Y-64098866D02*
X159632017Y-64098866D01*
X159632017Y-64098866D02*
X159727255Y-64051247D01*
X160060589Y-63813152D02*
X160441541Y-63813152D01*
X160203446Y-63479819D02*
X160203446Y-64336961D01*
X160203446Y-64336961D02*
X160251065Y-64432200D01*
X160251065Y-64432200D02*
X160346303Y-64479819D01*
X160346303Y-64479819D02*
X160441541Y-64479819D01*
X160632018Y-63813152D02*
X161012970Y-63813152D01*
X160774875Y-63479819D02*
X160774875Y-64336961D01*
X160774875Y-64336961D02*
X160822494Y-64432200D01*
X160822494Y-64432200D02*
X160917732Y-64479819D01*
X160917732Y-64479819D02*
X161012970Y-64479819D01*
X161298685Y-64432200D02*
X161393923Y-64479819D01*
X161393923Y-64479819D02*
X161584399Y-64479819D01*
X161584399Y-64479819D02*
X161679637Y-64432200D01*
X161679637Y-64432200D02*
X161727256Y-64336961D01*
X161727256Y-64336961D02*
X161727256Y-64289342D01*
X161727256Y-64289342D02*
X161679637Y-64194104D01*
X161679637Y-64194104D02*
X161584399Y-64146485D01*
X161584399Y-64146485D02*
X161441542Y-64146485D01*
X161441542Y-64146485D02*
X161346304Y-64098866D01*
X161346304Y-64098866D02*
X161298685Y-64003628D01*
X161298685Y-64003628D02*
X161298685Y-63956009D01*
X161298685Y-63956009D02*
X161346304Y-63860771D01*
X161346304Y-63860771D02*
X161441542Y-63813152D01*
X161441542Y-63813152D02*
X161584399Y-63813152D01*
X161584399Y-63813152D02*
X161679637Y-63860771D01*
X162822495Y-63479819D02*
X163060590Y-64479819D01*
X163060590Y-64479819D02*
X163251066Y-63765533D01*
X163251066Y-63765533D02*
X163441542Y-64479819D01*
X163441542Y-64479819D02*
X163679638Y-63479819D01*
X164203447Y-64479819D02*
X164108209Y-64432200D01*
X164108209Y-64432200D02*
X164060590Y-64384580D01*
X164060590Y-64384580D02*
X164012971Y-64289342D01*
X164012971Y-64289342D02*
X164012971Y-64003628D01*
X164012971Y-64003628D02*
X164060590Y-63908390D01*
X164060590Y-63908390D02*
X164108209Y-63860771D01*
X164108209Y-63860771D02*
X164203447Y-63813152D01*
X164203447Y-63813152D02*
X164346304Y-63813152D01*
X164346304Y-63813152D02*
X164441542Y-63860771D01*
X164441542Y-63860771D02*
X164489161Y-63908390D01*
X164489161Y-63908390D02*
X164536780Y-64003628D01*
X164536780Y-64003628D02*
X164536780Y-64289342D01*
X164536780Y-64289342D02*
X164489161Y-64384580D01*
X164489161Y-64384580D02*
X164441542Y-64432200D01*
X164441542Y-64432200D02*
X164346304Y-64479819D01*
X164346304Y-64479819D02*
X164203447Y-64479819D01*
X164965352Y-63813152D02*
X164965352Y-64479819D01*
X164965352Y-63908390D02*
X165012971Y-63860771D01*
X165012971Y-63860771D02*
X165108209Y-63813152D01*
X165108209Y-63813152D02*
X165251066Y-63813152D01*
X165251066Y-63813152D02*
X165346304Y-63860771D01*
X165346304Y-63860771D02*
X165393923Y-63956009D01*
X165393923Y-63956009D02*
X165393923Y-64479819D01*
X165727257Y-63813152D02*
X166108209Y-63813152D01*
X165870114Y-63479819D02*
X165870114Y-64336961D01*
X165870114Y-64336961D02*
X165917733Y-64432200D01*
X165917733Y-64432200D02*
X166012971Y-64479819D01*
X166012971Y-64479819D02*
X166108209Y-64479819D01*
X167203448Y-64479819D02*
X167203448Y-63479819D01*
X167203448Y-63479819D02*
X167441543Y-63479819D01*
X167441543Y-63479819D02*
X167584400Y-63527438D01*
X167584400Y-63527438D02*
X167679638Y-63622676D01*
X167679638Y-63622676D02*
X167727257Y-63717914D01*
X167727257Y-63717914D02*
X167774876Y-63908390D01*
X167774876Y-63908390D02*
X167774876Y-64051247D01*
X167774876Y-64051247D02*
X167727257Y-64241723D01*
X167727257Y-64241723D02*
X167679638Y-64336961D01*
X167679638Y-64336961D02*
X167584400Y-64432200D01*
X167584400Y-64432200D02*
X167441543Y-64479819D01*
X167441543Y-64479819D02*
X167203448Y-64479819D01*
X168346305Y-64479819D02*
X168251067Y-64432200D01*
X168251067Y-64432200D02*
X168203448Y-64384580D01*
X168203448Y-64384580D02*
X168155829Y-64289342D01*
X168155829Y-64289342D02*
X168155829Y-64003628D01*
X168155829Y-64003628D02*
X168203448Y-63908390D01*
X168203448Y-63908390D02*
X168251067Y-63860771D01*
X168251067Y-63860771D02*
X168346305Y-63813152D01*
X168346305Y-63813152D02*
X168489162Y-63813152D01*
X168489162Y-63813152D02*
X168584400Y-63860771D01*
X168584400Y-63860771D02*
X168632019Y-63908390D01*
X168632019Y-63908390D02*
X168679638Y-64003628D01*
X168679638Y-64003628D02*
X168679638Y-64289342D01*
X168679638Y-64289342D02*
X168632019Y-64384580D01*
X168632019Y-64384580D02*
X168584400Y-64432200D01*
X168584400Y-64432200D02*
X168489162Y-64479819D01*
X168489162Y-64479819D02*
X168346305Y-64479819D01*
X169108210Y-64384580D02*
X169155829Y-64432200D01*
X169155829Y-64432200D02*
X169108210Y-64479819D01*
X169108210Y-64479819D02*
X169060591Y-64432200D01*
X169060591Y-64432200D02*
X169108210Y-64384580D01*
X169108210Y-64384580D02*
X169108210Y-64479819D01*
X101412969Y-56019819D02*
X100936779Y-56019819D01*
X100936779Y-56019819D02*
X100889160Y-56496009D01*
X100889160Y-56496009D02*
X100936779Y-56448390D01*
X100936779Y-56448390D02*
X101032017Y-56400771D01*
X101032017Y-56400771D02*
X101270112Y-56400771D01*
X101270112Y-56400771D02*
X101365350Y-56448390D01*
X101365350Y-56448390D02*
X101412969Y-56496009D01*
X101412969Y-56496009D02*
X101460588Y-56591247D01*
X101460588Y-56591247D02*
X101460588Y-56829342D01*
X101460588Y-56829342D02*
X101412969Y-56924580D01*
X101412969Y-56924580D02*
X101365350Y-56972200D01*
X101365350Y-56972200D02*
X101270112Y-57019819D01*
X101270112Y-57019819D02*
X101032017Y-57019819D01*
X101032017Y-57019819D02*
X100936779Y-56972200D01*
X100936779Y-56972200D02*
X100889160Y-56924580D01*
X101889160Y-56638866D02*
X102651065Y-56638866D01*
X103032017Y-56019819D02*
X103651064Y-56019819D01*
X103651064Y-56019819D02*
X103317731Y-56400771D01*
X103317731Y-56400771D02*
X103460588Y-56400771D01*
X103460588Y-56400771D02*
X103555826Y-56448390D01*
X103555826Y-56448390D02*
X103603445Y-56496009D01*
X103603445Y-56496009D02*
X103651064Y-56591247D01*
X103651064Y-56591247D02*
X103651064Y-56829342D01*
X103651064Y-56829342D02*
X103603445Y-56924580D01*
X103603445Y-56924580D02*
X103555826Y-56972200D01*
X103555826Y-56972200D02*
X103460588Y-57019819D01*
X103460588Y-57019819D02*
X103174874Y-57019819D01*
X103174874Y-57019819D02*
X103079636Y-56972200D01*
X103079636Y-56972200D02*
X103032017Y-56924580D01*
X104270112Y-56019819D02*
X104365350Y-56019819D01*
X104365350Y-56019819D02*
X104460588Y-56067438D01*
X104460588Y-56067438D02*
X104508207Y-56115057D01*
X104508207Y-56115057D02*
X104555826Y-56210295D01*
X104555826Y-56210295D02*
X104603445Y-56400771D01*
X104603445Y-56400771D02*
X104603445Y-56638866D01*
X104603445Y-56638866D02*
X104555826Y-56829342D01*
X104555826Y-56829342D02*
X104508207Y-56924580D01*
X104508207Y-56924580D02*
X104460588Y-56972200D01*
X104460588Y-56972200D02*
X104365350Y-57019819D01*
X104365350Y-57019819D02*
X104270112Y-57019819D01*
X104270112Y-57019819D02*
X104174874Y-56972200D01*
X104174874Y-56972200D02*
X104127255Y-56924580D01*
X104127255Y-56924580D02*
X104079636Y-56829342D01*
X104079636Y-56829342D02*
X104032017Y-56638866D01*
X104032017Y-56638866D02*
X104032017Y-56400771D01*
X104032017Y-56400771D02*
X104079636Y-56210295D01*
X104079636Y-56210295D02*
X104127255Y-56115057D01*
X104127255Y-56115057D02*
X104174874Y-56067438D01*
X104174874Y-56067438D02*
X104270112Y-56019819D01*
X104889160Y-56019819D02*
X105222493Y-57019819D01*
X105222493Y-57019819D02*
X105555826Y-56019819D01*
X106651065Y-57019819D02*
X106651065Y-56019819D01*
X106651065Y-56019819D02*
X106889160Y-56019819D01*
X106889160Y-56019819D02*
X107032017Y-56067438D01*
X107032017Y-56067438D02*
X107127255Y-56162676D01*
X107127255Y-56162676D02*
X107174874Y-56257914D01*
X107174874Y-56257914D02*
X107222493Y-56448390D01*
X107222493Y-56448390D02*
X107222493Y-56591247D01*
X107222493Y-56591247D02*
X107174874Y-56781723D01*
X107174874Y-56781723D02*
X107127255Y-56876961D01*
X107127255Y-56876961D02*
X107032017Y-56972200D01*
X107032017Y-56972200D02*
X106889160Y-57019819D01*
X106889160Y-57019819D02*
X106651065Y-57019819D01*
X108222493Y-56924580D02*
X108174874Y-56972200D01*
X108174874Y-56972200D02*
X108032017Y-57019819D01*
X108032017Y-57019819D02*
X107936779Y-57019819D01*
X107936779Y-57019819D02*
X107793922Y-56972200D01*
X107793922Y-56972200D02*
X107698684Y-56876961D01*
X107698684Y-56876961D02*
X107651065Y-56781723D01*
X107651065Y-56781723D02*
X107603446Y-56591247D01*
X107603446Y-56591247D02*
X107603446Y-56448390D01*
X107603446Y-56448390D02*
X107651065Y-56257914D01*
X107651065Y-56257914D02*
X107698684Y-56162676D01*
X107698684Y-56162676D02*
X107793922Y-56067438D01*
X107793922Y-56067438D02*
X107936779Y-56019819D01*
X107936779Y-56019819D02*
X108032017Y-56019819D01*
X108032017Y-56019819D02*
X108174874Y-56067438D01*
X108174874Y-56067438D02*
X108222493Y-56115057D01*
X172790112Y-57866009D02*
X172932969Y-57913628D01*
X172932969Y-57913628D02*
X172980588Y-57961247D01*
X172980588Y-57961247D02*
X173028207Y-58056485D01*
X173028207Y-58056485D02*
X173028207Y-58199342D01*
X173028207Y-58199342D02*
X172980588Y-58294580D01*
X172980588Y-58294580D02*
X172932969Y-58342200D01*
X172932969Y-58342200D02*
X172837731Y-58389819D01*
X172837731Y-58389819D02*
X172456779Y-58389819D01*
X172456779Y-58389819D02*
X172456779Y-57389819D01*
X172456779Y-57389819D02*
X172790112Y-57389819D01*
X172790112Y-57389819D02*
X172885350Y-57437438D01*
X172885350Y-57437438D02*
X172932969Y-57485057D01*
X172932969Y-57485057D02*
X172980588Y-57580295D01*
X172980588Y-57580295D02*
X172980588Y-57675533D01*
X172980588Y-57675533D02*
X172932969Y-57770771D01*
X172932969Y-57770771D02*
X172885350Y-57818390D01*
X172885350Y-57818390D02*
X172790112Y-57866009D01*
X172790112Y-57866009D02*
X172456779Y-57866009D01*
X173456779Y-58389819D02*
X173456779Y-57723152D01*
X173456779Y-57913628D02*
X173504398Y-57818390D01*
X173504398Y-57818390D02*
X173552017Y-57770771D01*
X173552017Y-57770771D02*
X173647255Y-57723152D01*
X173647255Y-57723152D02*
X173742493Y-57723152D01*
X174218684Y-58389819D02*
X174123446Y-58342200D01*
X174123446Y-58342200D02*
X174075827Y-58294580D01*
X174075827Y-58294580D02*
X174028208Y-58199342D01*
X174028208Y-58199342D02*
X174028208Y-57913628D01*
X174028208Y-57913628D02*
X174075827Y-57818390D01*
X174075827Y-57818390D02*
X174123446Y-57770771D01*
X174123446Y-57770771D02*
X174218684Y-57723152D01*
X174218684Y-57723152D02*
X174361541Y-57723152D01*
X174361541Y-57723152D02*
X174456779Y-57770771D01*
X174456779Y-57770771D02*
X174504398Y-57818390D01*
X174504398Y-57818390D02*
X174552017Y-57913628D01*
X174552017Y-57913628D02*
X174552017Y-58199342D01*
X174552017Y-58199342D02*
X174504398Y-58294580D01*
X174504398Y-58294580D02*
X174456779Y-58342200D01*
X174456779Y-58342200D02*
X174361541Y-58389819D01*
X174361541Y-58389819D02*
X174218684Y-58389819D01*
X174980589Y-58389819D02*
X174980589Y-57389819D01*
X175075827Y-58008866D02*
X175361541Y-58389819D01*
X175361541Y-57723152D02*
X174980589Y-58104104D01*
X176171065Y-58342200D02*
X176075827Y-58389819D01*
X176075827Y-58389819D02*
X175885351Y-58389819D01*
X175885351Y-58389819D02*
X175790113Y-58342200D01*
X175790113Y-58342200D02*
X175742494Y-58246961D01*
X175742494Y-58246961D02*
X175742494Y-57866009D01*
X175742494Y-57866009D02*
X175790113Y-57770771D01*
X175790113Y-57770771D02*
X175885351Y-57723152D01*
X175885351Y-57723152D02*
X176075827Y-57723152D01*
X176075827Y-57723152D02*
X176171065Y-57770771D01*
X176171065Y-57770771D02*
X176218684Y-57866009D01*
X176218684Y-57866009D02*
X176218684Y-57961247D01*
X176218684Y-57961247D02*
X175742494Y-58056485D01*
X176647256Y-57723152D02*
X176647256Y-58389819D01*
X176647256Y-57818390D02*
X176694875Y-57770771D01*
X176694875Y-57770771D02*
X176790113Y-57723152D01*
X176790113Y-57723152D02*
X176932970Y-57723152D01*
X176932970Y-57723152D02*
X177028208Y-57770771D01*
X177028208Y-57770771D02*
X177075827Y-57866009D01*
X177075827Y-57866009D02*
X177075827Y-58389819D01*
X178885351Y-58294580D02*
X178837732Y-58342200D01*
X178837732Y-58342200D02*
X178694875Y-58389819D01*
X178694875Y-58389819D02*
X178599637Y-58389819D01*
X178599637Y-58389819D02*
X178456780Y-58342200D01*
X178456780Y-58342200D02*
X178361542Y-58246961D01*
X178361542Y-58246961D02*
X178313923Y-58151723D01*
X178313923Y-58151723D02*
X178266304Y-57961247D01*
X178266304Y-57961247D02*
X178266304Y-57818390D01*
X178266304Y-57818390D02*
X178313923Y-57627914D01*
X178313923Y-57627914D02*
X178361542Y-57532676D01*
X178361542Y-57532676D02*
X178456780Y-57437438D01*
X178456780Y-57437438D02*
X178599637Y-57389819D01*
X178599637Y-57389819D02*
X178694875Y-57389819D01*
X178694875Y-57389819D02*
X178837732Y-57437438D01*
X178837732Y-57437438D02*
X178885351Y-57485057D01*
X179313923Y-58389819D02*
X179313923Y-57723152D01*
X179313923Y-57389819D02*
X179266304Y-57437438D01*
X179266304Y-57437438D02*
X179313923Y-57485057D01*
X179313923Y-57485057D02*
X179361542Y-57437438D01*
X179361542Y-57437438D02*
X179313923Y-57389819D01*
X179313923Y-57389819D02*
X179313923Y-57485057D01*
X179790113Y-58389819D02*
X179790113Y-57723152D01*
X179790113Y-57913628D02*
X179837732Y-57818390D01*
X179837732Y-57818390D02*
X179885351Y-57770771D01*
X179885351Y-57770771D02*
X179980589Y-57723152D01*
X179980589Y-57723152D02*
X180075827Y-57723152D01*
X180837732Y-58342200D02*
X180742494Y-58389819D01*
X180742494Y-58389819D02*
X180552018Y-58389819D01*
X180552018Y-58389819D02*
X180456780Y-58342200D01*
X180456780Y-58342200D02*
X180409161Y-58294580D01*
X180409161Y-58294580D02*
X180361542Y-58199342D01*
X180361542Y-58199342D02*
X180361542Y-57913628D01*
X180361542Y-57913628D02*
X180409161Y-57818390D01*
X180409161Y-57818390D02*
X180456780Y-57770771D01*
X180456780Y-57770771D02*
X180552018Y-57723152D01*
X180552018Y-57723152D02*
X180742494Y-57723152D01*
X180742494Y-57723152D02*
X180837732Y-57770771D01*
X181694875Y-57723152D02*
X181694875Y-58389819D01*
X181266304Y-57723152D02*
X181266304Y-58246961D01*
X181266304Y-58246961D02*
X181313923Y-58342200D01*
X181313923Y-58342200D02*
X181409161Y-58389819D01*
X181409161Y-58389819D02*
X181552018Y-58389819D01*
X181552018Y-58389819D02*
X181647256Y-58342200D01*
X181647256Y-58342200D02*
X181694875Y-58294580D01*
X182171066Y-58389819D02*
X182171066Y-57723152D01*
X182171066Y-57389819D02*
X182123447Y-57437438D01*
X182123447Y-57437438D02*
X182171066Y-57485057D01*
X182171066Y-57485057D02*
X182218685Y-57437438D01*
X182218685Y-57437438D02*
X182171066Y-57389819D01*
X182171066Y-57389819D02*
X182171066Y-57485057D01*
X182504399Y-57723152D02*
X182885351Y-57723152D01*
X182647256Y-57389819D02*
X182647256Y-58246961D01*
X182647256Y-58246961D02*
X182694875Y-58342200D01*
X182694875Y-58342200D02*
X182790113Y-58389819D01*
X182790113Y-58389819D02*
X182885351Y-58389819D01*
X184552018Y-58389819D02*
X184218685Y-57913628D01*
X183980590Y-58389819D02*
X183980590Y-57389819D01*
X183980590Y-57389819D02*
X184361542Y-57389819D01*
X184361542Y-57389819D02*
X184456780Y-57437438D01*
X184456780Y-57437438D02*
X184504399Y-57485057D01*
X184504399Y-57485057D02*
X184552018Y-57580295D01*
X184552018Y-57580295D02*
X184552018Y-57723152D01*
X184552018Y-57723152D02*
X184504399Y-57818390D01*
X184504399Y-57818390D02*
X184456780Y-57866009D01*
X184456780Y-57866009D02*
X184361542Y-57913628D01*
X184361542Y-57913628D02*
X183980590Y-57913628D01*
X185409161Y-58389819D02*
X185409161Y-57866009D01*
X185409161Y-57866009D02*
X185361542Y-57770771D01*
X185361542Y-57770771D02*
X185266304Y-57723152D01*
X185266304Y-57723152D02*
X185075828Y-57723152D01*
X185075828Y-57723152D02*
X184980590Y-57770771D01*
X185409161Y-58342200D02*
X185313923Y-58389819D01*
X185313923Y-58389819D02*
X185075828Y-58389819D01*
X185075828Y-58389819D02*
X184980590Y-58342200D01*
X184980590Y-58342200D02*
X184932971Y-58246961D01*
X184932971Y-58246961D02*
X184932971Y-58151723D01*
X184932971Y-58151723D02*
X184980590Y-58056485D01*
X184980590Y-58056485D02*
X185075828Y-58008866D01*
X185075828Y-58008866D02*
X185313923Y-58008866D01*
X185313923Y-58008866D02*
X185409161Y-57961247D01*
X185885352Y-57723152D02*
X185885352Y-58389819D01*
X185885352Y-57818390D02*
X185932971Y-57770771D01*
X185932971Y-57770771D02*
X186028209Y-57723152D01*
X186028209Y-57723152D02*
X186171066Y-57723152D01*
X186171066Y-57723152D02*
X186266304Y-57770771D01*
X186266304Y-57770771D02*
X186313923Y-57866009D01*
X186313923Y-57866009D02*
X186313923Y-58389819D01*
X187218685Y-58342200D02*
X187123447Y-58389819D01*
X187123447Y-58389819D02*
X186932971Y-58389819D01*
X186932971Y-58389819D02*
X186837733Y-58342200D01*
X186837733Y-58342200D02*
X186790114Y-58294580D01*
X186790114Y-58294580D02*
X186742495Y-58199342D01*
X186742495Y-58199342D02*
X186742495Y-57913628D01*
X186742495Y-57913628D02*
X186790114Y-57818390D01*
X186790114Y-57818390D02*
X186837733Y-57770771D01*
X186837733Y-57770771D02*
X186932971Y-57723152D01*
X186932971Y-57723152D02*
X187123447Y-57723152D01*
X187123447Y-57723152D02*
X187218685Y-57770771D01*
X187647257Y-58389819D02*
X187647257Y-57389819D01*
X188075828Y-58389819D02*
X188075828Y-57866009D01*
X188075828Y-57866009D02*
X188028209Y-57770771D01*
X188028209Y-57770771D02*
X187932971Y-57723152D01*
X187932971Y-57723152D02*
X187790114Y-57723152D01*
X187790114Y-57723152D02*
X187694876Y-57770771D01*
X187694876Y-57770771D02*
X187647257Y-57818390D01*
X189313924Y-58389819D02*
X189313924Y-57389819D01*
X189790114Y-57723152D02*
X189790114Y-58389819D01*
X189790114Y-57818390D02*
X189837733Y-57770771D01*
X189837733Y-57770771D02*
X189932971Y-57723152D01*
X189932971Y-57723152D02*
X190075828Y-57723152D01*
X190075828Y-57723152D02*
X190171066Y-57770771D01*
X190171066Y-57770771D02*
X190218685Y-57866009D01*
X190218685Y-57866009D02*
X190218685Y-58389819D01*
X191123447Y-58342200D02*
X191028209Y-58389819D01*
X191028209Y-58389819D02*
X190837733Y-58389819D01*
X190837733Y-58389819D02*
X190742495Y-58342200D01*
X190742495Y-58342200D02*
X190694876Y-58294580D01*
X190694876Y-58294580D02*
X190647257Y-58199342D01*
X190647257Y-58199342D02*
X190647257Y-57913628D01*
X190647257Y-57913628D02*
X190694876Y-57818390D01*
X190694876Y-57818390D02*
X190742495Y-57770771D01*
X190742495Y-57770771D02*
X190837733Y-57723152D01*
X190837733Y-57723152D02*
X191028209Y-57723152D01*
X191028209Y-57723152D02*
X191123447Y-57770771D01*
X192599638Y-58770771D02*
X192552019Y-58723152D01*
X192552019Y-58723152D02*
X192456781Y-58580295D01*
X192456781Y-58580295D02*
X192409162Y-58485057D01*
X192409162Y-58485057D02*
X192361543Y-58342200D01*
X192361543Y-58342200D02*
X192313924Y-58104104D01*
X192313924Y-58104104D02*
X192313924Y-57913628D01*
X192313924Y-57913628D02*
X192361543Y-57675533D01*
X192361543Y-57675533D02*
X192409162Y-57532676D01*
X192409162Y-57532676D02*
X192456781Y-57437438D01*
X192456781Y-57437438D02*
X192552019Y-57294580D01*
X192552019Y-57294580D02*
X192599638Y-57246961D01*
X193552019Y-58294580D02*
X193504400Y-58342200D01*
X193504400Y-58342200D02*
X193361543Y-58389819D01*
X193361543Y-58389819D02*
X193266305Y-58389819D01*
X193266305Y-58389819D02*
X193123448Y-58342200D01*
X193123448Y-58342200D02*
X193028210Y-58246961D01*
X193028210Y-58246961D02*
X192980591Y-58151723D01*
X192980591Y-58151723D02*
X192932972Y-57961247D01*
X192932972Y-57961247D02*
X192932972Y-57818390D01*
X192932972Y-57818390D02*
X192980591Y-57627914D01*
X192980591Y-57627914D02*
X193028210Y-57532676D01*
X193028210Y-57532676D02*
X193123448Y-57437438D01*
X193123448Y-57437438D02*
X193266305Y-57389819D01*
X193266305Y-57389819D02*
X193361543Y-57389819D01*
X193361543Y-57389819D02*
X193504400Y-57437438D01*
X193504400Y-57437438D02*
X193552019Y-57485057D01*
X193885353Y-58770771D02*
X193932972Y-58723152D01*
X193932972Y-58723152D02*
X194028210Y-58580295D01*
X194028210Y-58580295D02*
X194075829Y-58485057D01*
X194075829Y-58485057D02*
X194123448Y-58342200D01*
X194123448Y-58342200D02*
X194171067Y-58104104D01*
X194171067Y-58104104D02*
X194171067Y-57913628D01*
X194171067Y-57913628D02*
X194123448Y-57675533D01*
X194123448Y-57675533D02*
X194075829Y-57532676D01*
X194075829Y-57532676D02*
X194028210Y-57437438D01*
X194028210Y-57437438D02*
X193932972Y-57294580D01*
X193932972Y-57294580D02*
X193885353Y-57246961D01*
X194599639Y-57485057D02*
X194647258Y-57437438D01*
X194647258Y-57437438D02*
X194742496Y-57389819D01*
X194742496Y-57389819D02*
X194980591Y-57389819D01*
X194980591Y-57389819D02*
X195075829Y-57437438D01*
X195075829Y-57437438D02*
X195123448Y-57485057D01*
X195123448Y-57485057D02*
X195171067Y-57580295D01*
X195171067Y-57580295D02*
X195171067Y-57675533D01*
X195171067Y-57675533D02*
X195123448Y-57818390D01*
X195123448Y-57818390D02*
X194552020Y-58389819D01*
X194552020Y-58389819D02*
X195171067Y-58389819D01*
X195790115Y-57389819D02*
X195885353Y-57389819D01*
X195885353Y-57389819D02*
X195980591Y-57437438D01*
X195980591Y-57437438D02*
X196028210Y-57485057D01*
X196028210Y-57485057D02*
X196075829Y-57580295D01*
X196075829Y-57580295D02*
X196123448Y-57770771D01*
X196123448Y-57770771D02*
X196123448Y-58008866D01*
X196123448Y-58008866D02*
X196075829Y-58199342D01*
X196075829Y-58199342D02*
X196028210Y-58294580D01*
X196028210Y-58294580D02*
X195980591Y-58342200D01*
X195980591Y-58342200D02*
X195885353Y-58389819D01*
X195885353Y-58389819D02*
X195790115Y-58389819D01*
X195790115Y-58389819D02*
X195694877Y-58342200D01*
X195694877Y-58342200D02*
X195647258Y-58294580D01*
X195647258Y-58294580D02*
X195599639Y-58199342D01*
X195599639Y-58199342D02*
X195552020Y-58008866D01*
X195552020Y-58008866D02*
X195552020Y-57770771D01*
X195552020Y-57770771D02*
X195599639Y-57580295D01*
X195599639Y-57580295D02*
X195647258Y-57485057D01*
X195647258Y-57485057D02*
X195694877Y-57437438D01*
X195694877Y-57437438D02*
X195790115Y-57389819D01*
X196504401Y-57485057D02*
X196552020Y-57437438D01*
X196552020Y-57437438D02*
X196647258Y-57389819D01*
X196647258Y-57389819D02*
X196885353Y-57389819D01*
X196885353Y-57389819D02*
X196980591Y-57437438D01*
X196980591Y-57437438D02*
X197028210Y-57485057D01*
X197028210Y-57485057D02*
X197075829Y-57580295D01*
X197075829Y-57580295D02*
X197075829Y-57675533D01*
X197075829Y-57675533D02*
X197028210Y-57818390D01*
X197028210Y-57818390D02*
X196456782Y-58389819D01*
X196456782Y-58389819D02*
X197075829Y-58389819D01*
X197980591Y-57389819D02*
X197504401Y-57389819D01*
X197504401Y-57389819D02*
X197456782Y-57866009D01*
X197456782Y-57866009D02*
X197504401Y-57818390D01*
X197504401Y-57818390D02*
X197599639Y-57770771D01*
X197599639Y-57770771D02*
X197837734Y-57770771D01*
X197837734Y-57770771D02*
X197932972Y-57818390D01*
X197932972Y-57818390D02*
X197980591Y-57866009D01*
X197980591Y-57866009D02*
X198028210Y-57961247D01*
X198028210Y-57961247D02*
X198028210Y-58199342D01*
X198028210Y-58199342D02*
X197980591Y-58294580D01*
X197980591Y-58294580D02*
X197932972Y-58342200D01*
X197932972Y-58342200D02*
X197837734Y-58389819D01*
X197837734Y-58389819D02*
X197599639Y-58389819D01*
X197599639Y-58389819D02*
X197504401Y-58342200D01*
X197504401Y-58342200D02*
X197456782Y-58294580D01*
X205749160Y-112064104D02*
X206225350Y-112064104D01*
X205653922Y-112349819D02*
X205987255Y-111349819D01*
X205987255Y-111349819D02*
X206320588Y-112349819D01*
X206796779Y-112349819D02*
X206701541Y-112302200D01*
X206701541Y-112302200D02*
X206653922Y-112206961D01*
X206653922Y-112206961D02*
X206653922Y-111349819D01*
X207606303Y-112349819D02*
X207606303Y-111826009D01*
X207606303Y-111826009D02*
X207558684Y-111730771D01*
X207558684Y-111730771D02*
X207463446Y-111683152D01*
X207463446Y-111683152D02*
X207272970Y-111683152D01*
X207272970Y-111683152D02*
X207177732Y-111730771D01*
X207606303Y-112302200D02*
X207511065Y-112349819D01*
X207511065Y-112349819D02*
X207272970Y-112349819D01*
X207272970Y-112349819D02*
X207177732Y-112302200D01*
X207177732Y-112302200D02*
X207130113Y-112206961D01*
X207130113Y-112206961D02*
X207130113Y-112111723D01*
X207130113Y-112111723D02*
X207177732Y-112016485D01*
X207177732Y-112016485D02*
X207272970Y-111968866D01*
X207272970Y-111968866D02*
X207511065Y-111968866D01*
X207511065Y-111968866D02*
X207606303Y-111921247D01*
X208082494Y-112349819D02*
X208082494Y-111683152D01*
X208082494Y-111873628D02*
X208130113Y-111778390D01*
X208130113Y-111778390D02*
X208177732Y-111730771D01*
X208177732Y-111730771D02*
X208272970Y-111683152D01*
X208272970Y-111683152D02*
X208368208Y-111683152D01*
X208701542Y-112349819D02*
X208701542Y-111683152D01*
X208701542Y-111778390D02*
X208749161Y-111730771D01*
X208749161Y-111730771D02*
X208844399Y-111683152D01*
X208844399Y-111683152D02*
X208987256Y-111683152D01*
X208987256Y-111683152D02*
X209082494Y-111730771D01*
X209082494Y-111730771D02*
X209130113Y-111826009D01*
X209130113Y-111826009D02*
X209130113Y-112349819D01*
X209130113Y-111826009D02*
X209177732Y-111730771D01*
X209177732Y-111730771D02*
X209272970Y-111683152D01*
X209272970Y-111683152D02*
X209415827Y-111683152D01*
X209415827Y-111683152D02*
X209511066Y-111730771D01*
X209511066Y-111730771D02*
X209558685Y-111826009D01*
X209558685Y-111826009D02*
X209558685Y-112349819D01*
X210749160Y-111302200D02*
X209892018Y-112587914D01*
X211034875Y-112302200D02*
X211177732Y-112349819D01*
X211177732Y-112349819D02*
X211415827Y-112349819D01*
X211415827Y-112349819D02*
X211511065Y-112302200D01*
X211511065Y-112302200D02*
X211558684Y-112254580D01*
X211558684Y-112254580D02*
X211606303Y-112159342D01*
X211606303Y-112159342D02*
X211606303Y-112064104D01*
X211606303Y-112064104D02*
X211558684Y-111968866D01*
X211558684Y-111968866D02*
X211511065Y-111921247D01*
X211511065Y-111921247D02*
X211415827Y-111873628D01*
X211415827Y-111873628D02*
X211225351Y-111826009D01*
X211225351Y-111826009D02*
X211130113Y-111778390D01*
X211130113Y-111778390D02*
X211082494Y-111730771D01*
X211082494Y-111730771D02*
X211034875Y-111635533D01*
X211034875Y-111635533D02*
X211034875Y-111540295D01*
X211034875Y-111540295D02*
X211082494Y-111445057D01*
X211082494Y-111445057D02*
X211130113Y-111397438D01*
X211130113Y-111397438D02*
X211225351Y-111349819D01*
X211225351Y-111349819D02*
X211463446Y-111349819D01*
X211463446Y-111349819D02*
X211606303Y-111397438D01*
X211939637Y-111349819D02*
X212177732Y-112349819D01*
X212177732Y-112349819D02*
X212368208Y-111635533D01*
X212368208Y-111635533D02*
X212558684Y-112349819D01*
X212558684Y-112349819D02*
X212796780Y-111349819D01*
X131959819Y-92351792D02*
X131483628Y-92685125D01*
X131959819Y-92923220D02*
X130959819Y-92923220D01*
X130959819Y-92923220D02*
X130959819Y-92542268D01*
X130959819Y-92542268D02*
X131007438Y-92447030D01*
X131007438Y-92447030D02*
X131055057Y-92399411D01*
X131055057Y-92399411D02*
X131150295Y-92351792D01*
X131150295Y-92351792D02*
X131293152Y-92351792D01*
X131293152Y-92351792D02*
X131388390Y-92399411D01*
X131388390Y-92399411D02*
X131436009Y-92447030D01*
X131436009Y-92447030D02*
X131483628Y-92542268D01*
X131483628Y-92542268D02*
X131483628Y-92923220D01*
X130959819Y-92018458D02*
X131959819Y-91351792D01*
X130959819Y-91351792D02*
X131959819Y-92018458D01*
X127353922Y-114949819D02*
X127687255Y-115949819D01*
X127687255Y-115949819D02*
X128020588Y-114949819D01*
X128877731Y-115949819D02*
X128306303Y-115949819D01*
X128592017Y-115949819D02*
X128592017Y-114949819D01*
X128592017Y-114949819D02*
X128496779Y-115092676D01*
X128496779Y-115092676D02*
X128401541Y-115187914D01*
X128401541Y-115187914D02*
X128306303Y-115235533D01*
X206254398Y-89419819D02*
X206444874Y-89419819D01*
X206444874Y-89419819D02*
X206540112Y-89372200D01*
X206540112Y-89372200D02*
X206587731Y-89324580D01*
X206587731Y-89324580D02*
X206682969Y-89181723D01*
X206682969Y-89181723D02*
X206730588Y-88991247D01*
X206730588Y-88991247D02*
X206730588Y-88610295D01*
X206730588Y-88610295D02*
X206682969Y-88515057D01*
X206682969Y-88515057D02*
X206635350Y-88467438D01*
X206635350Y-88467438D02*
X206540112Y-88419819D01*
X206540112Y-88419819D02*
X206349636Y-88419819D01*
X206349636Y-88419819D02*
X206254398Y-88467438D01*
X206254398Y-88467438D02*
X206206779Y-88515057D01*
X206206779Y-88515057D02*
X206159160Y-88610295D01*
X206159160Y-88610295D02*
X206159160Y-88848390D01*
X206159160Y-88848390D02*
X206206779Y-88943628D01*
X206206779Y-88943628D02*
X206254398Y-88991247D01*
X206254398Y-88991247D02*
X206349636Y-89038866D01*
X206349636Y-89038866D02*
X206540112Y-89038866D01*
X206540112Y-89038866D02*
X206635350Y-88991247D01*
X206635350Y-88991247D02*
X206682969Y-88943628D01*
X206682969Y-88943628D02*
X206730588Y-88848390D01*
X207349636Y-88419819D02*
X207444874Y-88419819D01*
X207444874Y-88419819D02*
X207540112Y-88467438D01*
X207540112Y-88467438D02*
X207587731Y-88515057D01*
X207587731Y-88515057D02*
X207635350Y-88610295D01*
X207635350Y-88610295D02*
X207682969Y-88800771D01*
X207682969Y-88800771D02*
X207682969Y-89038866D01*
X207682969Y-89038866D02*
X207635350Y-89229342D01*
X207635350Y-89229342D02*
X207587731Y-89324580D01*
X207587731Y-89324580D02*
X207540112Y-89372200D01*
X207540112Y-89372200D02*
X207444874Y-89419819D01*
X207444874Y-89419819D02*
X207349636Y-89419819D01*
X207349636Y-89419819D02*
X207254398Y-89372200D01*
X207254398Y-89372200D02*
X207206779Y-89324580D01*
X207206779Y-89324580D02*
X207159160Y-89229342D01*
X207159160Y-89229342D02*
X207111541Y-89038866D01*
X207111541Y-89038866D02*
X207111541Y-88800771D01*
X207111541Y-88800771D02*
X207159160Y-88610295D01*
X207159160Y-88610295D02*
X207206779Y-88515057D01*
X207206779Y-88515057D02*
X207254398Y-88467438D01*
X207254398Y-88467438D02*
X207349636Y-88419819D01*
X208302017Y-88419819D02*
X208397255Y-88419819D01*
X208397255Y-88419819D02*
X208492493Y-88467438D01*
X208492493Y-88467438D02*
X208540112Y-88515057D01*
X208540112Y-88515057D02*
X208587731Y-88610295D01*
X208587731Y-88610295D02*
X208635350Y-88800771D01*
X208635350Y-88800771D02*
X208635350Y-89038866D01*
X208635350Y-89038866D02*
X208587731Y-89229342D01*
X208587731Y-89229342D02*
X208540112Y-89324580D01*
X208540112Y-89324580D02*
X208492493Y-89372200D01*
X208492493Y-89372200D02*
X208397255Y-89419819D01*
X208397255Y-89419819D02*
X208302017Y-89419819D01*
X208302017Y-89419819D02*
X208206779Y-89372200D01*
X208206779Y-89372200D02*
X208159160Y-89324580D01*
X208159160Y-89324580D02*
X208111541Y-89229342D01*
X208111541Y-89229342D02*
X208063922Y-89038866D01*
X208063922Y-89038866D02*
X208063922Y-88800771D01*
X208063922Y-88800771D02*
X208111541Y-88610295D01*
X208111541Y-88610295D02*
X208159160Y-88515057D01*
X208159160Y-88515057D02*
X208206779Y-88467438D01*
X208206779Y-88467438D02*
X208302017Y-88419819D01*
X209063922Y-89419819D02*
X209063922Y-88419819D01*
X209063922Y-88419819D02*
X209397255Y-89134104D01*
X209397255Y-89134104D02*
X209730588Y-88419819D01*
X209730588Y-88419819D02*
X209730588Y-89419819D01*
X210206779Y-89419819D02*
X210206779Y-88419819D01*
X210635350Y-89419819D02*
X210635350Y-88896009D01*
X210635350Y-88896009D02*
X210587731Y-88800771D01*
X210587731Y-88800771D02*
X210492493Y-88753152D01*
X210492493Y-88753152D02*
X210349636Y-88753152D01*
X210349636Y-88753152D02*
X210254398Y-88800771D01*
X210254398Y-88800771D02*
X210206779Y-88848390D01*
X211016303Y-88753152D02*
X211540112Y-88753152D01*
X211540112Y-88753152D02*
X211016303Y-89419819D01*
X211016303Y-89419819D02*
X211540112Y-89419819D01*
X145173333Y-75439580D02*
X145125714Y-75487200D01*
X145125714Y-75487200D02*
X144982857Y-75534819D01*
X144982857Y-75534819D02*
X144887619Y-75534819D01*
X144887619Y-75534819D02*
X144744762Y-75487200D01*
X144744762Y-75487200D02*
X144649524Y-75391961D01*
X144649524Y-75391961D02*
X144601905Y-75296723D01*
X144601905Y-75296723D02*
X144554286Y-75106247D01*
X144554286Y-75106247D02*
X144554286Y-74963390D01*
X144554286Y-74963390D02*
X144601905Y-74772914D01*
X144601905Y-74772914D02*
X144649524Y-74677676D01*
X144649524Y-74677676D02*
X144744762Y-74582438D01*
X144744762Y-74582438D02*
X144887619Y-74534819D01*
X144887619Y-74534819D02*
X144982857Y-74534819D01*
X144982857Y-74534819D02*
X145125714Y-74582438D01*
X145125714Y-74582438D02*
X145173333Y-74630057D01*
X146125714Y-75534819D02*
X145554286Y-75534819D01*
X145840000Y-75534819D02*
X145840000Y-74534819D01*
X145840000Y-74534819D02*
X145744762Y-74677676D01*
X145744762Y-74677676D02*
X145649524Y-74772914D01*
X145649524Y-74772914D02*
X145554286Y-74820533D01*
X107761905Y-90379819D02*
X107761905Y-89379819D01*
X107761905Y-89379819D02*
X108000000Y-89379819D01*
X108000000Y-89379819D02*
X108142857Y-89427438D01*
X108142857Y-89427438D02*
X108238095Y-89522676D01*
X108238095Y-89522676D02*
X108285714Y-89617914D01*
X108285714Y-89617914D02*
X108333333Y-89808390D01*
X108333333Y-89808390D02*
X108333333Y-89951247D01*
X108333333Y-89951247D02*
X108285714Y-90141723D01*
X108285714Y-90141723D02*
X108238095Y-90236961D01*
X108238095Y-90236961D02*
X108142857Y-90332200D01*
X108142857Y-90332200D02*
X108000000Y-90379819D01*
X108000000Y-90379819D02*
X107761905Y-90379819D01*
X108666667Y-89379819D02*
X109285714Y-89379819D01*
X109285714Y-89379819D02*
X108952381Y-89760771D01*
X108952381Y-89760771D02*
X109095238Y-89760771D01*
X109095238Y-89760771D02*
X109190476Y-89808390D01*
X109190476Y-89808390D02*
X109238095Y-89856009D01*
X109238095Y-89856009D02*
X109285714Y-89951247D01*
X109285714Y-89951247D02*
X109285714Y-90189342D01*
X109285714Y-90189342D02*
X109238095Y-90284580D01*
X109238095Y-90284580D02*
X109190476Y-90332200D01*
X109190476Y-90332200D02*
X109095238Y-90379819D01*
X109095238Y-90379819D02*
X108809524Y-90379819D01*
X108809524Y-90379819D02*
X108714286Y-90332200D01*
X108714286Y-90332200D02*
X108666667Y-90284580D01*
X205383333Y-103014819D02*
X205050000Y-102538628D01*
X204811905Y-103014819D02*
X204811905Y-102014819D01*
X204811905Y-102014819D02*
X205192857Y-102014819D01*
X205192857Y-102014819D02*
X205288095Y-102062438D01*
X205288095Y-102062438D02*
X205335714Y-102110057D01*
X205335714Y-102110057D02*
X205383333Y-102205295D01*
X205383333Y-102205295D02*
X205383333Y-102348152D01*
X205383333Y-102348152D02*
X205335714Y-102443390D01*
X205335714Y-102443390D02*
X205288095Y-102491009D01*
X205288095Y-102491009D02*
X205192857Y-102538628D01*
X205192857Y-102538628D02*
X204811905Y-102538628D01*
X205716667Y-102014819D02*
X206335714Y-102014819D01*
X206335714Y-102014819D02*
X206002381Y-102395771D01*
X206002381Y-102395771D02*
X206145238Y-102395771D01*
X206145238Y-102395771D02*
X206240476Y-102443390D01*
X206240476Y-102443390D02*
X206288095Y-102491009D01*
X206288095Y-102491009D02*
X206335714Y-102586247D01*
X206335714Y-102586247D02*
X206335714Y-102824342D01*
X206335714Y-102824342D02*
X206288095Y-102919580D01*
X206288095Y-102919580D02*
X206240476Y-102967200D01*
X206240476Y-102967200D02*
X206145238Y-103014819D01*
X206145238Y-103014819D02*
X205859524Y-103014819D01*
X205859524Y-103014819D02*
X205764286Y-102967200D01*
X205764286Y-102967200D02*
X205716667Y-102919580D01*
X102131666Y-57564819D02*
X102131666Y-58279104D01*
X102131666Y-58279104D02*
X102084047Y-58421961D01*
X102084047Y-58421961D02*
X101988809Y-58517200D01*
X101988809Y-58517200D02*
X101845952Y-58564819D01*
X101845952Y-58564819D02*
X101750714Y-58564819D01*
X103036428Y-57898152D02*
X103036428Y-58564819D01*
X102798333Y-57517200D02*
X102560238Y-58231485D01*
X102560238Y-58231485D02*
X103179285Y-58231485D01*
X145903095Y-69314819D02*
X145903095Y-70124342D01*
X145903095Y-70124342D02*
X145950714Y-70219580D01*
X145950714Y-70219580D02*
X145998333Y-70267200D01*
X145998333Y-70267200D02*
X146093571Y-70314819D01*
X146093571Y-70314819D02*
X146284047Y-70314819D01*
X146284047Y-70314819D02*
X146379285Y-70267200D01*
X146379285Y-70267200D02*
X146426904Y-70219580D01*
X146426904Y-70219580D02*
X146474523Y-70124342D01*
X146474523Y-70124342D02*
X146474523Y-69314819D01*
X147474523Y-70314819D02*
X146903095Y-70314819D01*
X147188809Y-70314819D02*
X147188809Y-69314819D01*
X147188809Y-69314819D02*
X147093571Y-69457676D01*
X147093571Y-69457676D02*
X146998333Y-69552914D01*
X146998333Y-69552914D02*
X146903095Y-69600533D01*
X113306666Y-125704819D02*
X113306666Y-126419104D01*
X113306666Y-126419104D02*
X113259047Y-126561961D01*
X113259047Y-126561961D02*
X113163809Y-126657200D01*
X113163809Y-126657200D02*
X113020952Y-126704819D01*
X113020952Y-126704819D02*
X112925714Y-126704819D01*
X113782857Y-126704819D02*
X113782857Y-125704819D01*
X113782857Y-125704819D02*
X114163809Y-125704819D01*
X114163809Y-125704819D02*
X114259047Y-125752438D01*
X114259047Y-125752438D02*
X114306666Y-125800057D01*
X114306666Y-125800057D02*
X114354285Y-125895295D01*
X114354285Y-125895295D02*
X114354285Y-126038152D01*
X114354285Y-126038152D02*
X114306666Y-126133390D01*
X114306666Y-126133390D02*
X114259047Y-126181009D01*
X114259047Y-126181009D02*
X114163809Y-126228628D01*
X114163809Y-126228628D02*
X113782857Y-126228628D01*
X115211428Y-126038152D02*
X115211428Y-126704819D01*
X114973333Y-125657200D02*
X114735238Y-126371485D01*
X114735238Y-126371485D02*
X115354285Y-126371485D01*
X126299819Y-104293333D02*
X127014104Y-104293333D01*
X127014104Y-104293333D02*
X127156961Y-104340952D01*
X127156961Y-104340952D02*
X127252200Y-104436190D01*
X127252200Y-104436190D02*
X127299819Y-104579047D01*
X127299819Y-104579047D02*
X127299819Y-104674285D01*
X127299819Y-103817142D02*
X126299819Y-103817142D01*
X126299819Y-103817142D02*
X126299819Y-103436190D01*
X126299819Y-103436190D02*
X126347438Y-103340952D01*
X126347438Y-103340952D02*
X126395057Y-103293333D01*
X126395057Y-103293333D02*
X126490295Y-103245714D01*
X126490295Y-103245714D02*
X126633152Y-103245714D01*
X126633152Y-103245714D02*
X126728390Y-103293333D01*
X126728390Y-103293333D02*
X126776009Y-103340952D01*
X126776009Y-103340952D02*
X126823628Y-103436190D01*
X126823628Y-103436190D02*
X126823628Y-103817142D01*
X127299819Y-102293333D02*
X127299819Y-102864761D01*
X127299819Y-102579047D02*
X126299819Y-102579047D01*
X126299819Y-102579047D02*
X126442676Y-102674285D01*
X126442676Y-102674285D02*
X126537914Y-102769523D01*
X126537914Y-102769523D02*
X126585533Y-102864761D01*
X101536905Y-86754819D02*
X101536905Y-85754819D01*
X101536905Y-85754819D02*
X101775000Y-85754819D01*
X101775000Y-85754819D02*
X101917857Y-85802438D01*
X101917857Y-85802438D02*
X102013095Y-85897676D01*
X102013095Y-85897676D02*
X102060714Y-85992914D01*
X102060714Y-85992914D02*
X102108333Y-86183390D01*
X102108333Y-86183390D02*
X102108333Y-86326247D01*
X102108333Y-86326247D02*
X102060714Y-86516723D01*
X102060714Y-86516723D02*
X102013095Y-86611961D01*
X102013095Y-86611961D02*
X101917857Y-86707200D01*
X101917857Y-86707200D02*
X101775000Y-86754819D01*
X101775000Y-86754819D02*
X101536905Y-86754819D01*
X102489286Y-85850057D02*
X102536905Y-85802438D01*
X102536905Y-85802438D02*
X102632143Y-85754819D01*
X102632143Y-85754819D02*
X102870238Y-85754819D01*
X102870238Y-85754819D02*
X102965476Y-85802438D01*
X102965476Y-85802438D02*
X103013095Y-85850057D01*
X103013095Y-85850057D02*
X103060714Y-85945295D01*
X103060714Y-85945295D02*
X103060714Y-86040533D01*
X103060714Y-86040533D02*
X103013095Y-86183390D01*
X103013095Y-86183390D02*
X102441667Y-86754819D01*
X102441667Y-86754819D02*
X103060714Y-86754819D01*
X129118095Y-122094819D02*
X129118095Y-122904342D01*
X129118095Y-122904342D02*
X129165714Y-122999580D01*
X129165714Y-122999580D02*
X129213333Y-123047200D01*
X129213333Y-123047200D02*
X129308571Y-123094819D01*
X129308571Y-123094819D02*
X129499047Y-123094819D01*
X129499047Y-123094819D02*
X129594285Y-123047200D01*
X129594285Y-123047200D02*
X129641904Y-122999580D01*
X129641904Y-122999580D02*
X129689523Y-122904342D01*
X129689523Y-122904342D02*
X129689523Y-122094819D01*
X130070476Y-122094819D02*
X130689523Y-122094819D01*
X130689523Y-122094819D02*
X130356190Y-122475771D01*
X130356190Y-122475771D02*
X130499047Y-122475771D01*
X130499047Y-122475771D02*
X130594285Y-122523390D01*
X130594285Y-122523390D02*
X130641904Y-122571009D01*
X130641904Y-122571009D02*
X130689523Y-122666247D01*
X130689523Y-122666247D02*
X130689523Y-122904342D01*
X130689523Y-122904342D02*
X130641904Y-122999580D01*
X130641904Y-122999580D02*
X130594285Y-123047200D01*
X130594285Y-123047200D02*
X130499047Y-123094819D01*
X130499047Y-123094819D02*
X130213333Y-123094819D01*
X130213333Y-123094819D02*
X130118095Y-123047200D01*
X130118095Y-123047200D02*
X130070476Y-122999580D01*
X101499405Y-90579819D02*
X101499405Y-89579819D01*
X101499405Y-89579819D02*
X101737500Y-89579819D01*
X101737500Y-89579819D02*
X101880357Y-89627438D01*
X101880357Y-89627438D02*
X101975595Y-89722676D01*
X101975595Y-89722676D02*
X102023214Y-89817914D01*
X102023214Y-89817914D02*
X102070833Y-90008390D01*
X102070833Y-90008390D02*
X102070833Y-90151247D01*
X102070833Y-90151247D02*
X102023214Y-90341723D01*
X102023214Y-90341723D02*
X101975595Y-90436961D01*
X101975595Y-90436961D02*
X101880357Y-90532200D01*
X101880357Y-90532200D02*
X101737500Y-90579819D01*
X101737500Y-90579819D02*
X101499405Y-90579819D01*
X102927976Y-89913152D02*
X102927976Y-90579819D01*
X102689881Y-89532200D02*
X102451786Y-90246485D01*
X102451786Y-90246485D02*
X103070833Y-90246485D01*
X188888095Y-123784819D02*
X188888095Y-124594342D01*
X188888095Y-124594342D02*
X188935714Y-124689580D01*
X188935714Y-124689580D02*
X188983333Y-124737200D01*
X188983333Y-124737200D02*
X189078571Y-124784819D01*
X189078571Y-124784819D02*
X189269047Y-124784819D01*
X189269047Y-124784819D02*
X189364285Y-124737200D01*
X189364285Y-124737200D02*
X189411904Y-124689580D01*
X189411904Y-124689580D02*
X189459523Y-124594342D01*
X189459523Y-124594342D02*
X189459523Y-123784819D01*
X189888095Y-123880057D02*
X189935714Y-123832438D01*
X189935714Y-123832438D02*
X190030952Y-123784819D01*
X190030952Y-123784819D02*
X190269047Y-123784819D01*
X190269047Y-123784819D02*
X190364285Y-123832438D01*
X190364285Y-123832438D02*
X190411904Y-123880057D01*
X190411904Y-123880057D02*
X190459523Y-123975295D01*
X190459523Y-123975295D02*
X190459523Y-124070533D01*
X190459523Y-124070533D02*
X190411904Y-124213390D01*
X190411904Y-124213390D02*
X189840476Y-124784819D01*
X189840476Y-124784819D02*
X190459523Y-124784819D01*
X132913333Y-112174819D02*
X132580000Y-111698628D01*
X132341905Y-112174819D02*
X132341905Y-111174819D01*
X132341905Y-111174819D02*
X132722857Y-111174819D01*
X132722857Y-111174819D02*
X132818095Y-111222438D01*
X132818095Y-111222438D02*
X132865714Y-111270057D01*
X132865714Y-111270057D02*
X132913333Y-111365295D01*
X132913333Y-111365295D02*
X132913333Y-111508152D01*
X132913333Y-111508152D02*
X132865714Y-111603390D01*
X132865714Y-111603390D02*
X132818095Y-111651009D01*
X132818095Y-111651009D02*
X132722857Y-111698628D01*
X132722857Y-111698628D02*
X132341905Y-111698628D01*
X133294286Y-111270057D02*
X133341905Y-111222438D01*
X133341905Y-111222438D02*
X133437143Y-111174819D01*
X133437143Y-111174819D02*
X133675238Y-111174819D01*
X133675238Y-111174819D02*
X133770476Y-111222438D01*
X133770476Y-111222438D02*
X133818095Y-111270057D01*
X133818095Y-111270057D02*
X133865714Y-111365295D01*
X133865714Y-111365295D02*
X133865714Y-111460533D01*
X133865714Y-111460533D02*
X133818095Y-111603390D01*
X133818095Y-111603390D02*
X133246667Y-112174819D01*
X133246667Y-112174819D02*
X133865714Y-112174819D01*
X210328095Y-55264819D02*
X210328095Y-54264819D01*
X210328095Y-54741009D02*
X210899523Y-54741009D01*
X210899523Y-55264819D02*
X210899523Y-54264819D01*
X211328095Y-54360057D02*
X211375714Y-54312438D01*
X211375714Y-54312438D02*
X211470952Y-54264819D01*
X211470952Y-54264819D02*
X211709047Y-54264819D01*
X211709047Y-54264819D02*
X211804285Y-54312438D01*
X211804285Y-54312438D02*
X211851904Y-54360057D01*
X211851904Y-54360057D02*
X211899523Y-54455295D01*
X211899523Y-54455295D02*
X211899523Y-54550533D01*
X211899523Y-54550533D02*
X211851904Y-54693390D01*
X211851904Y-54693390D02*
X211280476Y-55264819D01*
X211280476Y-55264819D02*
X211899523Y-55264819D01*
X95546666Y-118754819D02*
X95546666Y-119469104D01*
X95546666Y-119469104D02*
X95499047Y-119611961D01*
X95499047Y-119611961D02*
X95403809Y-119707200D01*
X95403809Y-119707200D02*
X95260952Y-119754819D01*
X95260952Y-119754819D02*
X95165714Y-119754819D01*
X96022857Y-119754819D02*
X96022857Y-118754819D01*
X96022857Y-118754819D02*
X96403809Y-118754819D01*
X96403809Y-118754819D02*
X96499047Y-118802438D01*
X96499047Y-118802438D02*
X96546666Y-118850057D01*
X96546666Y-118850057D02*
X96594285Y-118945295D01*
X96594285Y-118945295D02*
X96594285Y-119088152D01*
X96594285Y-119088152D02*
X96546666Y-119183390D01*
X96546666Y-119183390D02*
X96499047Y-119231009D01*
X96499047Y-119231009D02*
X96403809Y-119278628D01*
X96403809Y-119278628D02*
X96022857Y-119278628D01*
X97499047Y-118754819D02*
X97022857Y-118754819D01*
X97022857Y-118754819D02*
X96975238Y-119231009D01*
X96975238Y-119231009D02*
X97022857Y-119183390D01*
X97022857Y-119183390D02*
X97118095Y-119135771D01*
X97118095Y-119135771D02*
X97356190Y-119135771D01*
X97356190Y-119135771D02*
X97451428Y-119183390D01*
X97451428Y-119183390D02*
X97499047Y-119231009D01*
X97499047Y-119231009D02*
X97546666Y-119326247D01*
X97546666Y-119326247D02*
X97546666Y-119564342D01*
X97546666Y-119564342D02*
X97499047Y-119659580D01*
X97499047Y-119659580D02*
X97451428Y-119707200D01*
X97451428Y-119707200D02*
X97356190Y-119754819D01*
X97356190Y-119754819D02*
X97118095Y-119754819D01*
X97118095Y-119754819D02*
X97022857Y-119707200D01*
X97022857Y-119707200D02*
X96975238Y-119659580D01*
X89813095Y-55179819D02*
X89813095Y-54179819D01*
X89813095Y-54656009D02*
X90384523Y-54656009D01*
X90384523Y-55179819D02*
X90384523Y-54179819D01*
X91384523Y-55179819D02*
X90813095Y-55179819D01*
X91098809Y-55179819D02*
X91098809Y-54179819D01*
X91098809Y-54179819D02*
X91003571Y-54322676D01*
X91003571Y-54322676D02*
X90908333Y-54417914D01*
X90908333Y-54417914D02*
X90813095Y-54465533D01*
X89848095Y-118404819D02*
X89848095Y-117404819D01*
X89848095Y-117881009D02*
X90419523Y-117881009D01*
X90419523Y-118404819D02*
X90419523Y-117404819D01*
X91324285Y-117738152D02*
X91324285Y-118404819D01*
X91086190Y-117357200D02*
X90848095Y-118071485D01*
X90848095Y-118071485D02*
X91467142Y-118071485D01*
X107359819Y-70603333D02*
X108074104Y-70603333D01*
X108074104Y-70603333D02*
X108216961Y-70650952D01*
X108216961Y-70650952D02*
X108312200Y-70746190D01*
X108312200Y-70746190D02*
X108359819Y-70889047D01*
X108359819Y-70889047D02*
X108359819Y-70984285D01*
X108359819Y-70127142D02*
X107359819Y-70127142D01*
X107359819Y-70127142D02*
X107359819Y-69746190D01*
X107359819Y-69746190D02*
X107407438Y-69650952D01*
X107407438Y-69650952D02*
X107455057Y-69603333D01*
X107455057Y-69603333D02*
X107550295Y-69555714D01*
X107550295Y-69555714D02*
X107693152Y-69555714D01*
X107693152Y-69555714D02*
X107788390Y-69603333D01*
X107788390Y-69603333D02*
X107836009Y-69650952D01*
X107836009Y-69650952D02*
X107883628Y-69746190D01*
X107883628Y-69746190D02*
X107883628Y-70127142D01*
X107788390Y-68984285D02*
X107740771Y-69079523D01*
X107740771Y-69079523D02*
X107693152Y-69127142D01*
X107693152Y-69127142D02*
X107597914Y-69174761D01*
X107597914Y-69174761D02*
X107550295Y-69174761D01*
X107550295Y-69174761D02*
X107455057Y-69127142D01*
X107455057Y-69127142D02*
X107407438Y-69079523D01*
X107407438Y-69079523D02*
X107359819Y-68984285D01*
X107359819Y-68984285D02*
X107359819Y-68793809D01*
X107359819Y-68793809D02*
X107407438Y-68698571D01*
X107407438Y-68698571D02*
X107455057Y-68650952D01*
X107455057Y-68650952D02*
X107550295Y-68603333D01*
X107550295Y-68603333D02*
X107597914Y-68603333D01*
X107597914Y-68603333D02*
X107693152Y-68650952D01*
X107693152Y-68650952D02*
X107740771Y-68698571D01*
X107740771Y-68698571D02*
X107788390Y-68793809D01*
X107788390Y-68793809D02*
X107788390Y-68984285D01*
X107788390Y-68984285D02*
X107836009Y-69079523D01*
X107836009Y-69079523D02*
X107883628Y-69127142D01*
X107883628Y-69127142D02*
X107978866Y-69174761D01*
X107978866Y-69174761D02*
X108169342Y-69174761D01*
X108169342Y-69174761D02*
X108264580Y-69127142D01*
X108264580Y-69127142D02*
X108312200Y-69079523D01*
X108312200Y-69079523D02*
X108359819Y-68984285D01*
X108359819Y-68984285D02*
X108359819Y-68793809D01*
X108359819Y-68793809D02*
X108312200Y-68698571D01*
X108312200Y-68698571D02*
X108264580Y-68650952D01*
X108264580Y-68650952D02*
X108169342Y-68603333D01*
X108169342Y-68603333D02*
X107978866Y-68603333D01*
X107978866Y-68603333D02*
X107883628Y-68650952D01*
X107883628Y-68650952D02*
X107836009Y-68698571D01*
X107836009Y-68698571D02*
X107788390Y-68793809D01*
X208186666Y-104259819D02*
X208186666Y-104974104D01*
X208186666Y-104974104D02*
X208139047Y-105116961D01*
X208139047Y-105116961D02*
X208043809Y-105212200D01*
X208043809Y-105212200D02*
X207900952Y-105259819D01*
X207900952Y-105259819D02*
X207805714Y-105259819D01*
X208662857Y-105259819D02*
X208662857Y-104259819D01*
X208662857Y-104259819D02*
X209043809Y-104259819D01*
X209043809Y-104259819D02*
X209139047Y-104307438D01*
X209139047Y-104307438D02*
X209186666Y-104355057D01*
X209186666Y-104355057D02*
X209234285Y-104450295D01*
X209234285Y-104450295D02*
X209234285Y-104593152D01*
X209234285Y-104593152D02*
X209186666Y-104688390D01*
X209186666Y-104688390D02*
X209139047Y-104736009D01*
X209139047Y-104736009D02*
X209043809Y-104783628D01*
X209043809Y-104783628D02*
X208662857Y-104783628D01*
X210091428Y-104259819D02*
X209900952Y-104259819D01*
X209900952Y-104259819D02*
X209805714Y-104307438D01*
X209805714Y-104307438D02*
X209758095Y-104355057D01*
X209758095Y-104355057D02*
X209662857Y-104497914D01*
X209662857Y-104497914D02*
X209615238Y-104688390D01*
X209615238Y-104688390D02*
X209615238Y-105069342D01*
X209615238Y-105069342D02*
X209662857Y-105164580D01*
X209662857Y-105164580D02*
X209710476Y-105212200D01*
X209710476Y-105212200D02*
X209805714Y-105259819D01*
X209805714Y-105259819D02*
X209996190Y-105259819D01*
X209996190Y-105259819D02*
X210091428Y-105212200D01*
X210091428Y-105212200D02*
X210139047Y-105164580D01*
X210139047Y-105164580D02*
X210186666Y-105069342D01*
X210186666Y-105069342D02*
X210186666Y-104831247D01*
X210186666Y-104831247D02*
X210139047Y-104736009D01*
X210139047Y-104736009D02*
X210091428Y-104688390D01*
X210091428Y-104688390D02*
X209996190Y-104640771D01*
X209996190Y-104640771D02*
X209805714Y-104640771D01*
X209805714Y-104640771D02*
X209710476Y-104688390D01*
X209710476Y-104688390D02*
X209662857Y-104736009D01*
X209662857Y-104736009D02*
X209615238Y-104831247D01*
X208686666Y-89744819D02*
X208686666Y-90459104D01*
X208686666Y-90459104D02*
X208639047Y-90601961D01*
X208639047Y-90601961D02*
X208543809Y-90697200D01*
X208543809Y-90697200D02*
X208400952Y-90744819D01*
X208400952Y-90744819D02*
X208305714Y-90744819D01*
X209686666Y-90744819D02*
X209115238Y-90744819D01*
X209400952Y-90744819D02*
X209400952Y-89744819D01*
X209400952Y-89744819D02*
X209305714Y-89887676D01*
X209305714Y-89887676D02*
X209210476Y-89982914D01*
X209210476Y-89982914D02*
X209115238Y-90030533D01*
X107761905Y-86754819D02*
X107761905Y-85754819D01*
X107761905Y-85754819D02*
X108000000Y-85754819D01*
X108000000Y-85754819D02*
X108142857Y-85802438D01*
X108142857Y-85802438D02*
X108238095Y-85897676D01*
X108238095Y-85897676D02*
X108285714Y-85992914D01*
X108285714Y-85992914D02*
X108333333Y-86183390D01*
X108333333Y-86183390D02*
X108333333Y-86326247D01*
X108333333Y-86326247D02*
X108285714Y-86516723D01*
X108285714Y-86516723D02*
X108238095Y-86611961D01*
X108238095Y-86611961D02*
X108142857Y-86707200D01*
X108142857Y-86707200D02*
X108000000Y-86754819D01*
X108000000Y-86754819D02*
X107761905Y-86754819D01*
X109285714Y-86754819D02*
X108714286Y-86754819D01*
X109000000Y-86754819D02*
X109000000Y-85754819D01*
X109000000Y-85754819D02*
X108904762Y-85897676D01*
X108904762Y-85897676D02*
X108809524Y-85992914D01*
X108809524Y-85992914D02*
X108714286Y-86040533D01*
X119993333Y-98739580D02*
X119945714Y-98787200D01*
X119945714Y-98787200D02*
X119802857Y-98834819D01*
X119802857Y-98834819D02*
X119707619Y-98834819D01*
X119707619Y-98834819D02*
X119564762Y-98787200D01*
X119564762Y-98787200D02*
X119469524Y-98691961D01*
X119469524Y-98691961D02*
X119421905Y-98596723D01*
X119421905Y-98596723D02*
X119374286Y-98406247D01*
X119374286Y-98406247D02*
X119374286Y-98263390D01*
X119374286Y-98263390D02*
X119421905Y-98072914D01*
X119421905Y-98072914D02*
X119469524Y-97977676D01*
X119469524Y-97977676D02*
X119564762Y-97882438D01*
X119564762Y-97882438D02*
X119707619Y-97834819D01*
X119707619Y-97834819D02*
X119802857Y-97834819D01*
X119802857Y-97834819D02*
X119945714Y-97882438D01*
X119945714Y-97882438D02*
X119993333Y-97930057D01*
X120326667Y-97834819D02*
X120945714Y-97834819D01*
X120945714Y-97834819D02*
X120612381Y-98215771D01*
X120612381Y-98215771D02*
X120755238Y-98215771D01*
X120755238Y-98215771D02*
X120850476Y-98263390D01*
X120850476Y-98263390D02*
X120898095Y-98311009D01*
X120898095Y-98311009D02*
X120945714Y-98406247D01*
X120945714Y-98406247D02*
X120945714Y-98644342D01*
X120945714Y-98644342D02*
X120898095Y-98739580D01*
X120898095Y-98739580D02*
X120850476Y-98787200D01*
X120850476Y-98787200D02*
X120755238Y-98834819D01*
X120755238Y-98834819D02*
X120469524Y-98834819D01*
X120469524Y-98834819D02*
X120374286Y-98787200D01*
X120374286Y-98787200D02*
X120326667Y-98739580D01*
X210218095Y-118404819D02*
X210218095Y-117404819D01*
X210218095Y-117881009D02*
X210789523Y-117881009D01*
X210789523Y-118404819D02*
X210789523Y-117404819D01*
X211170476Y-117404819D02*
X211789523Y-117404819D01*
X211789523Y-117404819D02*
X211456190Y-117785771D01*
X211456190Y-117785771D02*
X211599047Y-117785771D01*
X211599047Y-117785771D02*
X211694285Y-117833390D01*
X211694285Y-117833390D02*
X211741904Y-117881009D01*
X211741904Y-117881009D02*
X211789523Y-117976247D01*
X211789523Y-117976247D02*
X211789523Y-118214342D01*
X211789523Y-118214342D02*
X211741904Y-118309580D01*
X211741904Y-118309580D02*
X211694285Y-118357200D01*
X211694285Y-118357200D02*
X211599047Y-118404819D01*
X211599047Y-118404819D02*
X211313333Y-118404819D01*
X211313333Y-118404819D02*
X211218095Y-118357200D01*
X211218095Y-118357200D02*
X211170476Y-118309580D01*
X124511666Y-90859819D02*
X124511666Y-91574104D01*
X124511666Y-91574104D02*
X124464047Y-91716961D01*
X124464047Y-91716961D02*
X124368809Y-91812200D01*
X124368809Y-91812200D02*
X124225952Y-91859819D01*
X124225952Y-91859819D02*
X124130714Y-91859819D01*
X124940238Y-90955057D02*
X124987857Y-90907438D01*
X124987857Y-90907438D02*
X125083095Y-90859819D01*
X125083095Y-90859819D02*
X125321190Y-90859819D01*
X125321190Y-90859819D02*
X125416428Y-90907438D01*
X125416428Y-90907438D02*
X125464047Y-90955057D01*
X125464047Y-90955057D02*
X125511666Y-91050295D01*
X125511666Y-91050295D02*
X125511666Y-91145533D01*
X125511666Y-91145533D02*
X125464047Y-91288390D01*
X125464047Y-91288390D02*
X124892619Y-91859819D01*
X124892619Y-91859819D02*
X125511666Y-91859819D01*
X203443333Y-116524819D02*
X203110000Y-116048628D01*
X202871905Y-116524819D02*
X202871905Y-115524819D01*
X202871905Y-115524819D02*
X203252857Y-115524819D01*
X203252857Y-115524819D02*
X203348095Y-115572438D01*
X203348095Y-115572438D02*
X203395714Y-115620057D01*
X203395714Y-115620057D02*
X203443333Y-115715295D01*
X203443333Y-115715295D02*
X203443333Y-115858152D01*
X203443333Y-115858152D02*
X203395714Y-115953390D01*
X203395714Y-115953390D02*
X203348095Y-116001009D01*
X203348095Y-116001009D02*
X203252857Y-116048628D01*
X203252857Y-116048628D02*
X202871905Y-116048628D01*
X204395714Y-116524819D02*
X203824286Y-116524819D01*
X204110000Y-116524819D02*
X204110000Y-115524819D01*
X204110000Y-115524819D02*
X204014762Y-115667676D01*
X204014762Y-115667676D02*
X203919524Y-115762914D01*
X203919524Y-115762914D02*
X203824286Y-115810533D01*
X172079580Y-118136666D02*
X172127200Y-118184285D01*
X172127200Y-118184285D02*
X172174819Y-118327142D01*
X172174819Y-118327142D02*
X172174819Y-118422380D01*
X172174819Y-118422380D02*
X172127200Y-118565237D01*
X172127200Y-118565237D02*
X172031961Y-118660475D01*
X172031961Y-118660475D02*
X171936723Y-118708094D01*
X171936723Y-118708094D02*
X171746247Y-118755713D01*
X171746247Y-118755713D02*
X171603390Y-118755713D01*
X171603390Y-118755713D02*
X171412914Y-118708094D01*
X171412914Y-118708094D02*
X171317676Y-118660475D01*
X171317676Y-118660475D02*
X171222438Y-118565237D01*
X171222438Y-118565237D02*
X171174819Y-118422380D01*
X171174819Y-118422380D02*
X171174819Y-118327142D01*
X171174819Y-118327142D02*
X171222438Y-118184285D01*
X171222438Y-118184285D02*
X171270057Y-118136666D01*
X171270057Y-117755713D02*
X171222438Y-117708094D01*
X171222438Y-117708094D02*
X171174819Y-117612856D01*
X171174819Y-117612856D02*
X171174819Y-117374761D01*
X171174819Y-117374761D02*
X171222438Y-117279523D01*
X171222438Y-117279523D02*
X171270057Y-117231904D01*
X171270057Y-117231904D02*
X171365295Y-117184285D01*
X171365295Y-117184285D02*
X171460533Y-117184285D01*
X171460533Y-117184285D02*
X171603390Y-117231904D01*
X171603390Y-117231904D02*
X172174819Y-117803332D01*
X172174819Y-117803332D02*
X172174819Y-117184285D01*
X189329166Y-62602319D02*
X189329166Y-63316604D01*
X189329166Y-63316604D02*
X189281547Y-63459461D01*
X189281547Y-63459461D02*
X189186309Y-63554700D01*
X189186309Y-63554700D02*
X189043452Y-63602319D01*
X189043452Y-63602319D02*
X188948214Y-63602319D01*
X189710119Y-62602319D02*
X190329166Y-62602319D01*
X190329166Y-62602319D02*
X189995833Y-62983271D01*
X189995833Y-62983271D02*
X190138690Y-62983271D01*
X190138690Y-62983271D02*
X190233928Y-63030890D01*
X190233928Y-63030890D02*
X190281547Y-63078509D01*
X190281547Y-63078509D02*
X190329166Y-63173747D01*
X190329166Y-63173747D02*
X190329166Y-63411842D01*
X190329166Y-63411842D02*
X190281547Y-63507080D01*
X190281547Y-63507080D02*
X190233928Y-63554700D01*
X190233928Y-63554700D02*
X190138690Y-63602319D01*
X190138690Y-63602319D02*
X189852976Y-63602319D01*
X189852976Y-63602319D02*
X189757738Y-63554700D01*
X189757738Y-63554700D02*
X189710119Y-63507080D01*
D11*
%TO.C,C1*%
X145601252Y-72665000D02*
X145078748Y-72665000D01*
X145601252Y-74135000D02*
X145078748Y-74135000D01*
%TO.C,D3*%
X106815000Y-90615000D02*
X106815000Y-92535000D01*
X106815000Y-92535000D02*
X109500000Y-92535000D01*
X109500000Y-90615000D02*
X106815000Y-90615000D01*
%TO.C,R3*%
X205322936Y-103475000D02*
X205777064Y-103475000D01*
X205322936Y-104945000D02*
X205777064Y-104945000D01*
D12*
%TO.C,J4*%
X99370000Y-59190000D02*
X109370000Y-59190000D01*
X99370000Y-66690000D02*
X99370000Y-59190000D01*
X109370000Y-59190000D02*
X109370000Y-66690000D01*
X109370000Y-66690000D02*
X99370000Y-66690000D01*
D13*
X98870000Y-63190000D02*
G75*
G02*
X98670000Y-63190000I-100000J0D01*
G01*
X98670000Y-63190000D02*
G75*
G02*
X98870000Y-63190000I100000J0D01*
G01*
D12*
%TO.C,U1*%
X143510000Y-77510000D02*
X143510000Y-125710000D01*
X143510000Y-125710000D02*
X153390000Y-125710000D01*
X148460000Y-71310000D02*
X166460000Y-71310000D01*
X148460000Y-77510000D02*
X143510000Y-77510000D01*
X148460000Y-77510000D02*
X148460000Y-71310000D01*
X153390000Y-125710000D02*
X153390000Y-126610000D01*
X153390000Y-126610000D02*
X161520000Y-126610000D01*
X161520000Y-125710000D02*
X171410000Y-125710000D01*
X161520000Y-126610000D02*
X161520000Y-125710000D01*
X166460000Y-71310000D02*
X166460000Y-77510000D01*
X171410000Y-77510000D02*
X166460000Y-77510000D01*
X171410000Y-125710000D02*
X171410000Y-77510000D01*
D13*
X142990000Y-78640000D02*
G75*
G02*
X142790000Y-78640000I-100000J0D01*
G01*
X142790000Y-78640000D02*
G75*
G02*
X142990000Y-78640000I100000J0D01*
G01*
D11*
%TO.C,JP4*%
X112830000Y-122895000D02*
X112830000Y-120295000D01*
X115490000Y-120295000D02*
X112830000Y-120295000D01*
X115490000Y-122895000D02*
X112830000Y-122895000D01*
X115490000Y-122895000D02*
X115490000Y-120295000D01*
X115490000Y-124165000D02*
X115490000Y-125495000D01*
X115490000Y-125495000D02*
X114160000Y-125495000D01*
%TO.C,JP1*%
X127845000Y-104790000D02*
X127845000Y-103460000D01*
X129175000Y-104790000D02*
X127845000Y-104790000D01*
X130445000Y-102130000D02*
X133045000Y-102130000D01*
X130445000Y-104790000D02*
X130445000Y-102130000D01*
X130445000Y-104790000D02*
X133045000Y-104790000D01*
X133045000Y-104790000D02*
X133045000Y-102130000D01*
%TO.C,D2*%
X100590000Y-86990000D02*
X100590000Y-88910000D01*
X100590000Y-88910000D02*
X103275000Y-88910000D01*
X103275000Y-86990000D02*
X100590000Y-86990000D01*
%TO.C,JP2*%
X95050000Y-82265000D02*
X95050000Y-79665000D01*
X97710000Y-79665000D02*
X95050000Y-79665000D01*
X97710000Y-82265000D02*
X95050000Y-82265000D01*
X97710000Y-82265000D02*
X97710000Y-79665000D01*
X97710000Y-83535000D02*
X97710000Y-84865000D01*
X97710000Y-84865000D02*
X96380000Y-84865000D01*
D14*
%TO.C,G\u002A\u002A\u002A*%
G36*
X162497029Y-57403645D02*
G01*
X162661575Y-57415213D01*
X162792782Y-57435635D01*
X162879077Y-57464762D01*
X162908926Y-57501036D01*
X162903089Y-57551429D01*
X162887856Y-57647203D01*
X162868509Y-57756653D01*
X162828093Y-57976001D01*
X162655422Y-57948101D01*
X162482843Y-57928671D01*
X162301510Y-57922040D01*
X162136689Y-57928242D01*
X162013959Y-57947225D01*
X161920201Y-57972641D01*
X161920201Y-59011857D01*
X161920201Y-60051073D01*
X161629982Y-60051073D01*
X161339764Y-60051073D01*
X161348707Y-58798625D01*
X161357651Y-57546176D01*
X161579261Y-57483858D01*
X161736911Y-57448910D01*
X161919085Y-57423564D01*
X162114211Y-57407671D01*
X162310717Y-57401081D01*
X162497029Y-57403645D01*
G37*
G36*
X149762072Y-56550933D02*
G01*
X149912991Y-56564592D01*
X150063612Y-56585013D01*
X150391432Y-56653194D01*
X150660003Y-56752991D01*
X150871588Y-56886594D01*
X151028452Y-57056195D01*
X151132858Y-57263985D01*
X151187070Y-57512154D01*
X151196447Y-57681543D01*
X151179420Y-57938472D01*
X151122591Y-58150726D01*
X151021630Y-58331868D01*
X150967195Y-58399473D01*
X150814252Y-58541978D01*
X150629237Y-58654340D01*
X150404362Y-58739276D01*
X150131840Y-58799504D01*
X149803883Y-58837743D01*
X149688993Y-58845602D01*
X149305436Y-58868177D01*
X149305436Y-59459625D01*
X149305436Y-60051073D01*
X148981543Y-60051073D01*
X148657651Y-60051073D01*
X148657651Y-58350023D01*
X148657669Y-58312281D01*
X149305436Y-58312281D01*
X149456392Y-58312281D01*
X149566685Y-58307376D01*
X149713411Y-58294485D01*
X149865664Y-58276347D01*
X149872276Y-58275433D01*
X150114566Y-58226717D01*
X150296599Y-58153873D01*
X150423391Y-58052495D01*
X150499960Y-57918172D01*
X150531322Y-57746495D01*
X150532691Y-57695109D01*
X150505819Y-57500201D01*
X150423152Y-57343267D01*
X150282043Y-57219560D01*
X150259951Y-57206071D01*
X150195588Y-57174752D01*
X150118069Y-57152974D01*
X150012599Y-57138475D01*
X149864386Y-57128994D01*
X149723087Y-57124011D01*
X149305436Y-57111981D01*
X149305436Y-57712131D01*
X149305436Y-58312281D01*
X148657669Y-58312281D01*
X148657838Y-57962114D01*
X148658356Y-57712131D01*
X148658512Y-57636912D01*
X148659840Y-57368937D01*
X148661992Y-57152707D01*
X148665134Y-56982744D01*
X148669436Y-56853566D01*
X148675065Y-56759693D01*
X148682190Y-56695645D01*
X148690979Y-56655942D01*
X148701600Y-56635102D01*
X148710476Y-56628702D01*
X148762604Y-56618542D01*
X148868526Y-56604868D01*
X149014044Y-56589295D01*
X149184956Y-56573439D01*
X149230408Y-56569584D01*
X149444116Y-56553861D01*
X149613559Y-56547500D01*
X149762072Y-56550933D01*
G37*
G36*
X168362003Y-56185515D02*
G01*
X168371025Y-56210298D01*
X168378408Y-56255529D01*
X168384315Y-56326387D01*
X168388909Y-56428050D01*
X168392355Y-56565698D01*
X168394813Y-56744508D01*
X168396449Y-56969661D01*
X168397425Y-57246334D01*
X168397904Y-57579706D01*
X168398050Y-57974957D01*
X168398053Y-58070012D01*
X168398053Y-59980257D01*
X168270201Y-60013502D01*
X168008248Y-60068587D01*
X167732479Y-60103786D01*
X167459752Y-60118589D01*
X167206923Y-60112484D01*
X166990851Y-60084960D01*
X166879188Y-60055713D01*
X166625033Y-59934936D01*
X166412834Y-59763043D01*
X166245805Y-59545032D01*
X166127157Y-59285897D01*
X166060101Y-58990634D01*
X166049114Y-58815555D01*
X166667675Y-58815555D01*
X166672439Y-58872237D01*
X166722965Y-59123203D01*
X166816592Y-59321350D01*
X166953375Y-59466720D01*
X167133370Y-59559353D01*
X167356630Y-59599292D01*
X167623210Y-59586575D01*
X167626181Y-59586171D01*
X167784362Y-59564490D01*
X167784362Y-58807188D01*
X167784362Y-58049886D01*
X167640567Y-57985043D01*
X167486976Y-57937375D01*
X167317112Y-57918529D01*
X167153832Y-57928283D01*
X167019996Y-57966414D01*
X166977131Y-57991524D01*
X166834602Y-58138196D01*
X166733100Y-58331409D01*
X166676250Y-58560686D01*
X166667675Y-58815555D01*
X166049114Y-58815555D01*
X166045570Y-58759075D01*
X166071606Y-58423833D01*
X166148705Y-58127904D01*
X166275353Y-57874214D01*
X166450036Y-57665690D01*
X166671241Y-57505258D01*
X166702827Y-57488349D01*
X166871323Y-57429311D01*
X167077632Y-57398819D01*
X167297176Y-57397906D01*
X167505377Y-57427608D01*
X167588322Y-57451069D01*
X167784362Y-57517537D01*
X167784362Y-56895171D01*
X167784362Y-56272805D01*
X168031543Y-56233098D01*
X168161711Y-56211235D01*
X168270781Y-56191207D01*
X168336293Y-56177153D01*
X168338389Y-56176579D01*
X168351179Y-56176002D01*
X168362003Y-56185515D01*
G37*
G36*
X153061789Y-57410662D02*
G01*
X153317751Y-57492504D01*
X153536624Y-57631005D01*
X153721174Y-57827882D01*
X153864741Y-58065506D01*
X153918984Y-58177516D01*
X153955323Y-58265507D01*
X153977345Y-58348187D01*
X153988635Y-58444262D01*
X153992776Y-58572441D01*
X153993355Y-58736635D01*
X153986379Y-58987865D01*
X153962345Y-59189079D01*
X153916591Y-59357312D01*
X153844460Y-59509599D01*
X153741289Y-59662975D01*
X153739192Y-59665754D01*
X153548888Y-59862892D01*
X153318846Y-60009467D01*
X153058809Y-60101829D01*
X152778520Y-60136332D01*
X152532426Y-60117576D01*
X152328824Y-60060009D01*
X152124760Y-59962102D01*
X151947354Y-59838270D01*
X151873748Y-59767433D01*
X151795097Y-59664631D01*
X151710397Y-59529842D01*
X151645584Y-59407495D01*
X151600800Y-59309352D01*
X151570637Y-59227148D01*
X151552216Y-59143289D01*
X151542656Y-59040184D01*
X151539080Y-58900240D01*
X151538590Y-58753848D01*
X151538814Y-58687476D01*
X152137534Y-58687476D01*
X152143322Y-58896204D01*
X152182221Y-59097733D01*
X152254732Y-59280666D01*
X152361358Y-59433604D01*
X152502600Y-59545151D01*
X152516392Y-59552447D01*
X152674708Y-59598390D01*
X152850993Y-59594344D01*
X153019920Y-59542999D01*
X153108505Y-59489620D01*
X153240868Y-59346268D01*
X153333067Y-59150482D01*
X153383448Y-58906098D01*
X153389304Y-58838031D01*
X153383474Y-58577396D01*
X153333185Y-58352274D01*
X153242980Y-58167787D01*
X153117406Y-58029055D01*
X152961007Y-57941199D01*
X152778327Y-57909341D01*
X152587670Y-57934767D01*
X152435440Y-58008526D01*
X152313809Y-58132075D01*
X152223279Y-58294014D01*
X152164354Y-58482947D01*
X152137534Y-58687476D01*
X151538814Y-58687476D01*
X151539191Y-58575502D01*
X151543230Y-58447401D01*
X151554059Y-58351601D01*
X151575033Y-58270161D01*
X151609504Y-58185138D01*
X151660826Y-58078587D01*
X151667204Y-58065672D01*
X151822168Y-57812808D01*
X152008877Y-57619916D01*
X152230101Y-57485277D01*
X152488611Y-57407172D01*
X152765973Y-57383763D01*
X153061789Y-57410662D01*
G37*
G36*
X159809881Y-57403232D02*
G01*
X160020788Y-57461050D01*
X160205525Y-57565605D01*
X160335897Y-57677556D01*
X160473554Y-57835318D01*
X160570501Y-58004815D01*
X160632079Y-58200817D01*
X160663630Y-58438093D01*
X160670303Y-58602080D01*
X160675771Y-58943020D01*
X159816193Y-58952126D01*
X159539650Y-58955811D01*
X159325308Y-58960546D01*
X159167180Y-58966694D01*
X159059282Y-58974615D01*
X158995628Y-58984671D01*
X158970234Y-58997224D01*
X158969519Y-59003267D01*
X158986146Y-59066511D01*
X159003185Y-59139920D01*
X159038032Y-59219982D01*
X159103679Y-59318507D01*
X159146622Y-59370326D01*
X159306241Y-59496803D01*
X159509941Y-59573850D01*
X159754341Y-59600994D01*
X160036059Y-59577761D01*
X160269034Y-59527200D01*
X160441894Y-59480884D01*
X160483033Y-59720786D01*
X160503439Y-59846674D01*
X160505482Y-59928975D01*
X160478650Y-59980962D01*
X160412432Y-60015911D01*
X160296315Y-60047095D01*
X160208773Y-60067132D01*
X160038844Y-60094819D01*
X159838670Y-60110448D01*
X159629763Y-60113980D01*
X159433634Y-60105380D01*
X159271797Y-60084611D01*
X159207877Y-60068845D01*
X158936554Y-59951980D01*
X158714392Y-59789006D01*
X158543008Y-59581381D01*
X158439721Y-59374209D01*
X158392046Y-59201525D01*
X158359744Y-58988366D01*
X158344690Y-58761097D01*
X158348757Y-58546082D01*
X158357118Y-58482751D01*
X158979199Y-58482751D01*
X159529163Y-58482751D01*
X160079127Y-58482751D01*
X160079127Y-58404740D01*
X160057646Y-58303637D01*
X160002832Y-58180334D01*
X159929127Y-58061285D01*
X159850975Y-57972941D01*
X159837600Y-57962379D01*
X159723133Y-57913442D01*
X159575758Y-57895614D01*
X159423049Y-57908516D01*
X159292581Y-57951772D01*
X159262388Y-57970263D01*
X159122546Y-58102193D01*
X159028481Y-58259271D01*
X158998616Y-58363098D01*
X158979199Y-58482751D01*
X158357118Y-58482751D01*
X158369625Y-58388018D01*
X158461875Y-58099421D01*
X158602938Y-57854030D01*
X158787986Y-57655921D01*
X159012193Y-57509170D01*
X159270730Y-57417851D01*
X159556491Y-57386047D01*
X159809881Y-57403232D01*
G37*
G36*
X164645178Y-57403680D02*
G01*
X164888846Y-57468760D01*
X164995533Y-57518106D01*
X165170510Y-57636779D01*
X165305631Y-57786817D01*
X165417202Y-57986368D01*
X165418124Y-57988389D01*
X165464459Y-58119862D01*
X165505166Y-58288533D01*
X165536722Y-58471835D01*
X165555606Y-58647201D01*
X165558294Y-58792065D01*
X165552203Y-58847421D01*
X165531071Y-58960067D01*
X164680267Y-58960067D01*
X164407733Y-58959913D01*
X164196687Y-58960917D01*
X164040435Y-58965279D01*
X163932283Y-58975200D01*
X163865540Y-58992878D01*
X163833512Y-59020513D01*
X163829506Y-59060306D01*
X163846830Y-59114456D01*
X163878789Y-59185163D01*
X163894116Y-59218451D01*
X163985096Y-59363451D01*
X164114514Y-59470409D01*
X164295043Y-59549174D01*
X164335653Y-59561616D01*
X164547492Y-59596481D01*
X164791841Y-59592446D01*
X165045919Y-59550516D01*
X165135560Y-59526285D01*
X165212567Y-59502640D01*
X165262712Y-59494823D01*
X165294409Y-59513327D01*
X165316074Y-59568645D01*
X165336121Y-59671270D01*
X165358246Y-59803950D01*
X165388497Y-59983002D01*
X165214148Y-60038197D01*
X165056530Y-60073687D01*
X164858193Y-60097339D01*
X164639561Y-60108820D01*
X164421061Y-60107794D01*
X164223118Y-60093930D01*
X164066157Y-60066892D01*
X164034026Y-60057481D01*
X163771050Y-59938538D01*
X163556866Y-59772056D01*
X163391408Y-59557944D01*
X163274610Y-59296114D01*
X163206407Y-58986475D01*
X163199319Y-58925973D01*
X163196247Y-58631663D01*
X163229076Y-58438304D01*
X163829463Y-58438304D01*
X163843977Y-58455413D01*
X163892776Y-58467783D01*
X163983747Y-58476034D01*
X164124775Y-58480785D01*
X164323745Y-58482658D01*
X164394722Y-58482751D01*
X164959981Y-58482751D01*
X164936065Y-58371946D01*
X164880262Y-58202293D01*
X164796962Y-58060074D01*
X164697584Y-57963805D01*
X164676910Y-57951760D01*
X164529069Y-57906634D01*
X164358872Y-57901235D01*
X164197250Y-57934512D01*
X164120308Y-57970695D01*
X164044959Y-58038587D01*
X163964290Y-58143164D01*
X163892323Y-58261881D01*
X163843079Y-58372196D01*
X163829463Y-58438304D01*
X163229076Y-58438304D01*
X163244595Y-58346896D01*
X163339376Y-58082092D01*
X163475599Y-57847667D01*
X163648275Y-57654042D01*
X163852416Y-57511633D01*
X163884126Y-57495951D01*
X164122264Y-57416866D01*
X164382799Y-57386246D01*
X164645178Y-57403680D01*
G37*
G36*
X156358762Y-57434646D02*
G01*
X156393929Y-57453799D01*
X156409948Y-57491125D01*
X156412255Y-57501016D01*
X156443722Y-57636545D01*
X156487315Y-57815494D01*
X156539342Y-58023560D01*
X156596112Y-58246443D01*
X156653933Y-58469842D01*
X156709113Y-58679455D01*
X156757960Y-58860981D01*
X156796783Y-59000119D01*
X156815299Y-59062349D01*
X156895407Y-59318053D01*
X156973887Y-59062349D01*
X157007337Y-58948434D01*
X157053677Y-58783736D01*
X157108721Y-58583488D01*
X157168285Y-58362922D01*
X157228183Y-58137271D01*
X157231470Y-58124765D01*
X157410573Y-57442885D01*
X157693291Y-57432897D01*
X157826384Y-57431355D01*
X157932456Y-57436016D01*
X157993776Y-57445899D01*
X158000997Y-57449944D01*
X158001227Y-57492590D01*
X157981754Y-57591141D01*
X157945198Y-57737068D01*
X157894181Y-57921846D01*
X157831322Y-58136948D01*
X157759243Y-58373848D01*
X157680565Y-58624019D01*
X157597909Y-58878935D01*
X157513895Y-59130070D01*
X157431144Y-59368896D01*
X157352277Y-59586888D01*
X157308887Y-59701610D01*
X157174048Y-60051073D01*
X156911298Y-60051073D01*
X156648548Y-60051073D01*
X156455648Y-59445906D01*
X156391161Y-59242250D01*
X156331138Y-59050201D01*
X156279819Y-58883518D01*
X156241444Y-58755960D01*
X156221834Y-58687315D01*
X156192635Y-58589841D01*
X156166238Y-58521230D01*
X156157707Y-58506635D01*
X156139300Y-58525129D01*
X156108445Y-58596908D01*
X156070103Y-58709330D01*
X156044021Y-58796434D01*
X155997652Y-58954498D01*
X155937725Y-59152428D01*
X155871879Y-59365281D01*
X155807754Y-59568114D01*
X155805945Y-59573758D01*
X155658341Y-60034026D01*
X155398870Y-60043949D01*
X155262871Y-60046818D01*
X155179166Y-60040802D01*
X155132140Y-60023164D01*
X155107033Y-59992808D01*
X155081423Y-59933908D01*
X155038307Y-59823540D01*
X154982403Y-59674699D01*
X154918429Y-59500381D01*
X154851105Y-59313581D01*
X154785150Y-59127296D01*
X154725281Y-58954521D01*
X154676218Y-58808252D01*
X154670146Y-58789597D01*
X154630259Y-58663040D01*
X154581556Y-58503310D01*
X154527489Y-58322333D01*
X154471511Y-58132034D01*
X154417073Y-57944341D01*
X154367630Y-57771179D01*
X154326633Y-57624473D01*
X154297535Y-57516151D01*
X154283788Y-57458137D01*
X154283154Y-57452820D01*
X154314698Y-57440932D01*
X154399318Y-57433543D01*
X154521993Y-57431599D01*
X154596748Y-57433083D01*
X154910342Y-57442885D01*
X155085244Y-58124765D01*
X155161058Y-58416623D01*
X155230663Y-58677320D01*
X155292297Y-58900699D01*
X155344197Y-59080603D01*
X155384602Y-59210875D01*
X155411750Y-59285359D01*
X155421875Y-59301006D01*
X155435814Y-59269835D01*
X155464319Y-59183393D01*
X155504358Y-59052288D01*
X155552903Y-58887127D01*
X155606921Y-58698520D01*
X155663384Y-58497072D01*
X155719259Y-58293392D01*
X155771518Y-58098087D01*
X155817129Y-57921766D01*
X155826087Y-57886107D01*
X155936711Y-57442885D01*
X156165811Y-57432828D01*
X156288154Y-57429158D01*
X156358762Y-57434646D01*
G37*
G36*
X169761812Y-58227047D02*
G01*
X169761812Y-61585302D01*
X154607047Y-61585302D01*
X139452282Y-61585302D01*
X139452282Y-61142080D01*
X147907584Y-61142080D01*
X158314765Y-61141331D01*
X159313898Y-61141249D01*
X160247122Y-61141140D01*
X161116717Y-61140992D01*
X161924961Y-61140791D01*
X162674133Y-61140524D01*
X163366512Y-61140176D01*
X164004378Y-61139734D01*
X164590009Y-61139184D01*
X165125684Y-61138514D01*
X165613683Y-61137708D01*
X166056284Y-61136754D01*
X166455767Y-61135638D01*
X166814410Y-61134347D01*
X167134493Y-61132866D01*
X167418295Y-61131182D01*
X167668094Y-61129281D01*
X167886170Y-61127151D01*
X168074802Y-61124776D01*
X168236269Y-61122144D01*
X168372849Y-61119241D01*
X168486823Y-61116053D01*
X168580468Y-61112567D01*
X168656064Y-61108769D01*
X168715890Y-61104646D01*
X168762226Y-61100183D01*
X168797349Y-61095367D01*
X168823539Y-61090185D01*
X168843076Y-61084623D01*
X168858238Y-61078667D01*
X168859078Y-61078288D01*
X169032455Y-60969043D01*
X169183128Y-60817610D01*
X169277069Y-60669569D01*
X169288776Y-60640379D01*
X169298824Y-60602744D01*
X169307337Y-60551586D01*
X169314441Y-60481825D01*
X169320261Y-60388383D01*
X169324922Y-60266181D01*
X169328550Y-60110141D01*
X169331270Y-59915183D01*
X169333207Y-59676229D01*
X169334486Y-59388200D01*
X169335233Y-59046017D01*
X169335574Y-58644601D01*
X169335637Y-58295234D01*
X169335647Y-57837886D01*
X169335436Y-57443535D01*
X169334647Y-57106992D01*
X169332919Y-56823067D01*
X169329895Y-56586570D01*
X169325214Y-56392312D01*
X169318519Y-56235101D01*
X169309450Y-56109749D01*
X169297649Y-56011066D01*
X169282756Y-55933861D01*
X169264412Y-55872944D01*
X169242259Y-55823127D01*
X169215937Y-55779218D01*
X169185088Y-55736028D01*
X169155959Y-55697237D01*
X169077386Y-55618789D01*
X168966752Y-55538886D01*
X168899993Y-55501196D01*
X168725605Y-55414295D01*
X158316594Y-55414295D01*
X147907584Y-55414295D01*
X147907584Y-58278187D01*
X147907584Y-61142080D01*
X139452282Y-61142080D01*
X139452282Y-59682700D01*
X140595821Y-59682700D01*
X140614987Y-59717784D01*
X140673550Y-59778972D01*
X140755471Y-59852662D01*
X140844709Y-59925256D01*
X140925225Y-59983154D01*
X140980980Y-60012756D01*
X140986510Y-60013955D01*
X141012964Y-59989240D01*
X141065170Y-59922561D01*
X141125424Y-59837582D01*
X141242148Y-59666237D01*
X142576080Y-59666237D01*
X142589790Y-59708579D01*
X142658395Y-59778515D01*
X142764996Y-59862277D01*
X142869318Y-59935900D01*
X142952694Y-59990515D01*
X142999810Y-60016191D01*
X143003510Y-60016979D01*
X143027137Y-59989551D01*
X143084884Y-59910913D01*
X143172962Y-59786539D01*
X143287586Y-59621901D01*
X143424968Y-59422471D01*
X143581321Y-59193722D01*
X143752858Y-58941126D01*
X143935794Y-58670155D01*
X143946300Y-58654545D01*
X144863184Y-57292111D01*
X145389273Y-58066425D01*
X145555642Y-58311773D01*
X145734753Y-58576744D01*
X145915373Y-58844665D01*
X146086271Y-59098862D01*
X146236214Y-59322663D01*
X146306305Y-59427691D01*
X146424827Y-59603750D01*
X146531617Y-59758810D01*
X146620666Y-59884437D01*
X146685967Y-59972196D01*
X146721511Y-60013652D01*
X146725232Y-60015812D01*
X146764450Y-59997813D01*
X146843197Y-59949063D01*
X146946080Y-59879220D01*
X146970868Y-59861667D01*
X147188518Y-59706355D01*
X146642453Y-58898513D01*
X146361819Y-58483436D01*
X146222960Y-58278187D01*
X146116802Y-58121273D01*
X145904904Y-57808395D01*
X145723626Y-57541175D01*
X145570470Y-57315984D01*
X145442940Y-57129194D01*
X145338535Y-56977179D01*
X145254759Y-56856309D01*
X145189114Y-56762958D01*
X145139102Y-56693497D01*
X145102224Y-56644299D01*
X145075982Y-56611735D01*
X145057879Y-56592177D01*
X145049253Y-56584690D01*
X144947787Y-56544781D01*
X144823085Y-56544787D01*
X144705364Y-56582292D01*
X144656614Y-56616107D01*
X144620795Y-56659647D01*
X144551474Y-56753974D01*
X144452834Y-56893046D01*
X144329056Y-57070823D01*
X144184323Y-57281263D01*
X144022817Y-57518324D01*
X143848722Y-57775965D01*
X143694763Y-58005436D01*
X143511767Y-58278883D01*
X143336968Y-58539714D01*
X143174727Y-58781449D01*
X143029407Y-58997603D01*
X142905369Y-59181695D01*
X142806974Y-59327244D01*
X142738585Y-59427765D01*
X142708359Y-59471476D01*
X142643332Y-59564715D01*
X142593392Y-59638773D01*
X142576080Y-59666237D01*
X141242148Y-59666237D01*
X141313711Y-59561186D01*
X141509836Y-59272423D01*
X141710194Y-58976668D01*
X141911179Y-58679296D01*
X142109186Y-58385683D01*
X142300611Y-58101205D01*
X142481847Y-57831238D01*
X142649291Y-57581156D01*
X142799336Y-57356335D01*
X142928378Y-57162151D01*
X143032812Y-57003979D01*
X143109032Y-56887195D01*
X143153434Y-56817175D01*
X143163631Y-56798446D01*
X143031498Y-56698777D01*
X142909798Y-56615373D01*
X142810278Y-56555513D01*
X142744690Y-56526474D01*
X142726010Y-56527356D01*
X142697781Y-56565175D01*
X142639492Y-56648073D01*
X142559133Y-56764543D01*
X142464692Y-56903076D01*
X142445454Y-56931476D01*
X142369115Y-57044234D01*
X142260389Y-57204746D01*
X142125161Y-57404330D01*
X141969315Y-57634303D01*
X141798734Y-57885983D01*
X141619302Y-58150688D01*
X141436903Y-58419737D01*
X141401222Y-58472365D01*
X141230557Y-58724609D01*
X141071833Y-58960221D01*
X140929153Y-59173035D01*
X140806622Y-59356882D01*
X140708344Y-59505593D01*
X140638424Y-59613002D01*
X140600966Y-59672940D01*
X140595821Y-59682700D01*
X139452282Y-59682700D01*
X139452282Y-58227047D01*
X139452282Y-54868792D01*
X154607047Y-54868792D01*
X169761812Y-54868792D01*
X169761812Y-58227047D01*
G37*
D12*
%TO.C,U3*%
X117520000Y-101700000D02*
X140520000Y-101700000D01*
X117520000Y-126700000D02*
X117520000Y-101700000D01*
X120970000Y-126700000D02*
X117520000Y-126700000D01*
X120970000Y-129200000D02*
X120970000Y-126700000D01*
X137070000Y-126700000D02*
X137070000Y-129200000D01*
X137070000Y-129200000D02*
X120970000Y-129200000D01*
X140520000Y-101700000D02*
X140520000Y-126700000D01*
X140520000Y-126700000D02*
X137070000Y-126700000D01*
D11*
%TO.C,D4*%
X100552500Y-90815000D02*
X100552500Y-92735000D01*
X100552500Y-92735000D02*
X103237500Y-92735000D01*
X103237500Y-90815000D02*
X100552500Y-90815000D01*
D12*
%TO.C,U2*%
X175685000Y-87000000D02*
X175685000Y-91355000D01*
X175685000Y-87000000D02*
X199685000Y-87000000D01*
X175685000Y-125500000D02*
X175685000Y-123965000D01*
X199685000Y-87000000D02*
X199685000Y-91355000D01*
X199685000Y-123965000D02*
X199685000Y-125500000D01*
X199685000Y-125500000D02*
X175685000Y-125500000D01*
D13*
X174170000Y-92430000D02*
G75*
G02*
X173970000Y-92430000I-100000J0D01*
G01*
X173970000Y-92430000D02*
G75*
G02*
X174170000Y-92430000I100000J0D01*
G01*
D11*
%TO.C,R2*%
X133307064Y-109335000D02*
X132852936Y-109335000D01*
X133307064Y-110805000D02*
X132852936Y-110805000D01*
%TO.C,JP5*%
X95050000Y-120300000D02*
X96380000Y-120300000D01*
X95050000Y-121630000D02*
X95050000Y-120300000D01*
X95050000Y-122900000D02*
X95050000Y-125500000D01*
X95050000Y-122900000D02*
X97710000Y-122900000D01*
X95050000Y-125500000D02*
X97710000Y-125500000D01*
X97710000Y-122900000D02*
X97710000Y-125500000D01*
%TO.C,JP3*%
X112870000Y-82205000D02*
X112870000Y-79605000D01*
X115530000Y-79605000D02*
X112870000Y-79605000D01*
X115530000Y-82205000D02*
X112870000Y-82205000D01*
X115530000Y-82205000D02*
X115530000Y-79605000D01*
X115530000Y-83475000D02*
X115530000Y-84805000D01*
X115530000Y-84805000D02*
X114200000Y-84805000D01*
D14*
%TO.C,G\u002A\u002A\u002A*%
G36*
X133214929Y-67571473D02*
G01*
X133290691Y-67686595D01*
X133368616Y-67789920D01*
X133422717Y-67849857D01*
X133466985Y-67893754D01*
X133505200Y-67940580D01*
X133541432Y-67999411D01*
X133579752Y-68079324D01*
X133624228Y-68189395D01*
X133678932Y-68338699D01*
X133747932Y-68536314D01*
X133804640Y-68701587D01*
X133889665Y-68957960D01*
X133948926Y-69154772D01*
X133982960Y-69294008D01*
X133992302Y-69377654D01*
X133990681Y-69390871D01*
X133989942Y-69466025D01*
X134006176Y-69581173D01*
X134035934Y-69712571D01*
X134039144Y-69724332D01*
X134074282Y-69866539D01*
X134085498Y-69957658D01*
X134073988Y-70008640D01*
X134070685Y-70013133D01*
X133999483Y-70069215D01*
X133884389Y-70130034D01*
X133746992Y-70186480D01*
X133608881Y-70229442D01*
X133514761Y-70247708D01*
X133343710Y-70267966D01*
X133224205Y-70030662D01*
X133158983Y-69913040D01*
X133095058Y-69817572D01*
X133044528Y-69761961D01*
X133037490Y-69757388D01*
X132984925Y-69708092D01*
X132922813Y-69620580D01*
X132886098Y-69555294D01*
X132836824Y-69464344D01*
X132798029Y-69404004D01*
X132782525Y-69389170D01*
X132746912Y-69398926D01*
X132655605Y-69426517D01*
X132516672Y-69469434D01*
X132338182Y-69525165D01*
X132128205Y-69591198D01*
X131894806Y-69665023D01*
X131820968Y-69688459D01*
X131444438Y-69808041D01*
X131126750Y-69908992D01*
X130862990Y-69993046D01*
X130648243Y-70061939D01*
X130477595Y-70117406D01*
X130346132Y-70161181D01*
X130248939Y-70194998D01*
X130181102Y-70220593D01*
X130137706Y-70239700D01*
X130113837Y-70254054D01*
X130104581Y-70265390D01*
X130105023Y-70275442D01*
X130110249Y-70285946D01*
X130112897Y-70291386D01*
X130174323Y-70438643D01*
X130208663Y-70539373D01*
X130218196Y-70607191D01*
X130205203Y-70655715D01*
X130179669Y-70690293D01*
X130116925Y-70736409D01*
X130013706Y-70789908D01*
X129904675Y-70834526D01*
X129797257Y-70878063D01*
X129720474Y-70918748D01*
X129690794Y-70947842D01*
X129690791Y-70948045D01*
X129699942Y-70999408D01*
X129723292Y-71089683D01*
X129740626Y-71149135D01*
X129768948Y-71243769D01*
X129787173Y-71307105D01*
X129790824Y-71321779D01*
X129759830Y-71325227D01*
X129675772Y-71327984D01*
X129552518Y-71329717D01*
X129442784Y-71330145D01*
X129178529Y-71342834D01*
X128947011Y-71379293D01*
X128758356Y-71437111D01*
X128622692Y-71513876D01*
X128604455Y-71529733D01*
X128529472Y-71600177D01*
X128438263Y-71214173D01*
X128401199Y-71064119D01*
X128367798Y-70941291D01*
X128341734Y-70858404D01*
X128326723Y-70828169D01*
X128289652Y-70838173D01*
X128201004Y-70865584D01*
X128072650Y-70906500D01*
X127916461Y-70957018D01*
X127744306Y-71013236D01*
X127568057Y-71071251D01*
X127399583Y-71127162D01*
X127250757Y-71177066D01*
X127133447Y-71217060D01*
X127059525Y-71243243D01*
X127040216Y-71251095D01*
X127038479Y-71287195D01*
X127058175Y-71366159D01*
X127086058Y-71446645D01*
X127121255Y-71543817D01*
X127137333Y-71617011D01*
X127134993Y-71691439D01*
X127114936Y-71792313D01*
X127097652Y-71863931D01*
X127039839Y-72099842D01*
X126884485Y-72102535D01*
X126747144Y-72113804D01*
X126604894Y-72138236D01*
X126578538Y-72144635D01*
X126485765Y-72173760D01*
X126442647Y-72206142D01*
X126432795Y-72255901D01*
X126433406Y-72269672D01*
X126447121Y-72324664D01*
X126482536Y-72431501D01*
X126535977Y-72580096D01*
X126603767Y-72760359D01*
X126682232Y-72962205D01*
X126723998Y-73067266D01*
X126805100Y-73272628D01*
X126876206Y-73458182D01*
X126933935Y-73614638D01*
X126974904Y-73732710D01*
X126995729Y-73803108D01*
X126997419Y-73817994D01*
X126981745Y-73878556D01*
X126966443Y-73945205D01*
X126957719Y-74001632D01*
X126976249Y-74021020D01*
X127038141Y-74012392D01*
X127072410Y-74004567D01*
X127181736Y-73988136D01*
X127327162Y-73978894D01*
X127496307Y-73976199D01*
X127676792Y-73979406D01*
X127856239Y-73987873D01*
X128022268Y-74000958D01*
X128162500Y-74018017D01*
X128264555Y-74038407D01*
X128316054Y-74061486D01*
X128319836Y-74069351D01*
X128339984Y-74107829D01*
X128386963Y-74170285D01*
X128387687Y-74171156D01*
X128454425Y-74251298D01*
X128722773Y-74125370D01*
X128991121Y-73999442D01*
X129132481Y-74053428D01*
X129219907Y-74097768D01*
X129339554Y-74172907D01*
X129472479Y-74266492D01*
X129549246Y-74325187D01*
X129661458Y-74410100D01*
X129751630Y-74471071D01*
X129809189Y-74501418D01*
X129824651Y-74499231D01*
X129800100Y-74418828D01*
X129735133Y-74314402D01*
X129642778Y-74202219D01*
X129536065Y-74098547D01*
X129453006Y-74035213D01*
X129298795Y-73939713D01*
X129176198Y-73883709D01*
X129065392Y-73863877D01*
X128946553Y-73876889D01*
X128799859Y-73919420D01*
X128787599Y-73923565D01*
X128634859Y-73969543D01*
X128539927Y-73983804D01*
X128506338Y-73974098D01*
X128445735Y-73944638D01*
X128412424Y-73940422D01*
X128376875Y-73929881D01*
X128358611Y-73887999D01*
X128352450Y-73799388D01*
X128352187Y-73761551D01*
X128344935Y-73640358D01*
X128318997Y-73562990D01*
X128283198Y-73520245D01*
X128236023Y-73452376D01*
X128229867Y-73397930D01*
X128229524Y-73359638D01*
X128191851Y-73341939D01*
X128106432Y-73337538D01*
X128009809Y-73331631D01*
X127940266Y-73317548D01*
X127929365Y-73312439D01*
X127913220Y-73277906D01*
X127911337Y-73256330D01*
X128721047Y-73256330D01*
X128758322Y-73259585D01*
X128836531Y-73252609D01*
X128943347Y-73236945D01*
X129066441Y-73214133D01*
X129193482Y-73185716D01*
X129205547Y-73182721D01*
X129384080Y-73127262D01*
X129569682Y-73051622D01*
X129743648Y-72964991D01*
X129887275Y-72876559D01*
X129972382Y-72805954D01*
X130009036Y-72765960D01*
X130021662Y-72744157D01*
X130003050Y-72742431D01*
X129945990Y-72762671D01*
X129843269Y-72806765D01*
X129687679Y-72876601D01*
X129667196Y-72885859D01*
X129490877Y-72962937D01*
X129311724Y-73036766D01*
X129151133Y-73098781D01*
X129034221Y-73139269D01*
X128909533Y-73179257D01*
X128803000Y-73215817D01*
X128737468Y-73241105D01*
X128737036Y-73241303D01*
X128721047Y-73256330D01*
X127911337Y-73256330D01*
X127906132Y-73196705D01*
X127907922Y-73062158D01*
X127917726Y-72878158D01*
X127931599Y-72692182D01*
X127947968Y-72554310D01*
X127970673Y-72445727D01*
X128003552Y-72347620D01*
X128045575Y-72251532D01*
X128194928Y-72009453D01*
X128395824Y-71804164D01*
X128640436Y-71641557D01*
X128920934Y-71527526D01*
X129050855Y-71494848D01*
X129279227Y-71466552D01*
X129526391Y-71467890D01*
X129768227Y-71496831D01*
X129980612Y-71551344D01*
X130050015Y-71578989D01*
X130240690Y-71691766D01*
X130418294Y-71844649D01*
X130561425Y-72017689D01*
X130612061Y-72102948D01*
X130671568Y-72199322D01*
X130751880Y-72306210D01*
X130782966Y-72342560D01*
X130847745Y-72419969D01*
X130888438Y-72478472D01*
X130895534Y-72496148D01*
X130866591Y-72531716D01*
X130796052Y-72567920D01*
X130708351Y-72594456D01*
X130644946Y-72601818D01*
X130579956Y-72606568D01*
X130545484Y-72624964D01*
X130544406Y-72663225D01*
X130579595Y-72727574D01*
X130653927Y-72824229D01*
X130770275Y-72959412D01*
X130853165Y-73052379D01*
X131002274Y-73218486D01*
X131216196Y-73143826D01*
X131353726Y-73100712D01*
X131491086Y-73065432D01*
X131577562Y-73048957D01*
X131745969Y-73044708D01*
X131945745Y-73068072D01*
X132149765Y-73114139D01*
X132330904Y-73177994D01*
X132357208Y-73190139D01*
X132526842Y-73296573D01*
X132685661Y-73440955D01*
X132823044Y-73608949D01*
X132928371Y-73786218D01*
X132991021Y-73958426D01*
X133003834Y-74063045D01*
X133017459Y-74118426D01*
X133055144Y-74222265D01*
X133112106Y-74362625D01*
X133183561Y-74527567D01*
X133238808Y-74649454D01*
X133473781Y-75158629D01*
X133426562Y-75524115D01*
X133406435Y-75687650D01*
X133396457Y-75801402D01*
X133397078Y-75881809D01*
X133408747Y-75945312D01*
X133431914Y-76008350D01*
X133440333Y-76027725D01*
X133471514Y-76102601D01*
X133521422Y-76227467D01*
X133585104Y-76389710D01*
X133657609Y-76576718D01*
X133733188Y-76773782D01*
X133965053Y-77381714D01*
X133821008Y-77417985D01*
X133712829Y-77440963D01*
X133619560Y-77453821D01*
X133599753Y-77454768D01*
X133549738Y-77460017D01*
X133560498Y-77479375D01*
X133572741Y-77487721D01*
X133627749Y-77502579D01*
X133730720Y-77513991D01*
X133862706Y-77520117D01*
X133912504Y-77520674D01*
X134202069Y-77521186D01*
X134315218Y-77696878D01*
X134388286Y-77816887D01*
X134455341Y-77937857D01*
X134487705Y-78003198D01*
X134527610Y-78107920D01*
X134573675Y-78254793D01*
X134621544Y-78426492D01*
X134666857Y-78605690D01*
X134705259Y-78775061D01*
X134732390Y-78917277D01*
X134743894Y-79015014D01*
X134744019Y-79022345D01*
X134727128Y-79186233D01*
X134682099Y-79376300D01*
X134617392Y-79562691D01*
X134552962Y-79696417D01*
X134505373Y-79780756D01*
X134491091Y-79815413D01*
X134508816Y-79807993D01*
X134538175Y-79783073D01*
X134593420Y-79741610D01*
X134622607Y-79732876D01*
X134645986Y-79777508D01*
X134688776Y-79877086D01*
X134747956Y-80023499D01*
X134820504Y-80208632D01*
X134903399Y-80424374D01*
X134993618Y-80662613D01*
X135088141Y-80915235D01*
X135183945Y-81174128D01*
X135278010Y-81431179D01*
X135367314Y-81678277D01*
X135448834Y-81907309D01*
X135519550Y-82110161D01*
X135576439Y-82278722D01*
X135610607Y-82385515D01*
X135647940Y-82531576D01*
X135674471Y-82681643D01*
X135683683Y-82787096D01*
X135686325Y-82959262D01*
X135738552Y-82811388D01*
X135790779Y-82663514D01*
X136369509Y-83263167D01*
X136948239Y-83862820D01*
X137014686Y-84147273D01*
X137045801Y-84285064D01*
X137085522Y-84467701D01*
X137129399Y-84674383D01*
X137172983Y-84884313D01*
X137186478Y-84950435D01*
X137227021Y-85145226D01*
X137267721Y-85332301D01*
X137304782Y-85494781D01*
X137334410Y-85615787D01*
X137343998Y-85651138D01*
X137375884Y-85753819D01*
X137402718Y-85794919D01*
X137436390Y-85775592D01*
X137488788Y-85696992D01*
X137506973Y-85666945D01*
X137522423Y-85648189D01*
X137547738Y-85636998D01*
X137591483Y-85634414D01*
X137662227Y-85641476D01*
X137768537Y-85659225D01*
X137918981Y-85688701D01*
X138122127Y-85730945D01*
X138240928Y-85756075D01*
X138939335Y-85904190D01*
X139098562Y-86255573D01*
X139257789Y-86606957D01*
X139509793Y-86672579D01*
X139761798Y-86738202D01*
X139778075Y-86873370D01*
X139791845Y-86990811D01*
X139807589Y-87129358D01*
X139813684Y-87184229D01*
X139833017Y-87359921D01*
X129591970Y-87359921D01*
X119350923Y-87359921D01*
X119434697Y-87170493D01*
X119524116Y-86969193D01*
X119591538Y-86820841D01*
X119641641Y-86716998D01*
X119679104Y-86649227D01*
X119708605Y-86609091D01*
X119734822Y-86588151D01*
X119762433Y-86577971D01*
X119763342Y-86577741D01*
X119837721Y-86552891D01*
X119891920Y-86514011D01*
X119931797Y-86449506D01*
X119963206Y-86347779D01*
X119992003Y-86197234D01*
X120008390Y-86092483D01*
X120065651Y-85711870D01*
X120226253Y-85591970D01*
X120305757Y-85527324D01*
X120365735Y-85460803D01*
X120417652Y-85375037D01*
X120472974Y-85252655D01*
X120508851Y-85163836D01*
X120630847Y-84855603D01*
X121061793Y-84831770D01*
X121238129Y-84821630D01*
X121358917Y-84812348D01*
X121435441Y-84801144D01*
X121478984Y-84785234D01*
X121500829Y-84761838D01*
X121512259Y-84728173D01*
X121514224Y-84720226D01*
X121546923Y-84589423D01*
X121587649Y-84430525D01*
X121633239Y-84255410D01*
X121680530Y-84075957D01*
X121726358Y-83904042D01*
X121767561Y-83751543D01*
X121800976Y-83630339D01*
X121823440Y-83552307D01*
X121831476Y-83528862D01*
X121866656Y-83524994D01*
X121960140Y-83519876D01*
X122103324Y-83513836D01*
X122287601Y-83507204D01*
X122504365Y-83500310D01*
X122745008Y-83493482D01*
X122780122Y-83492550D01*
X123018635Y-83485343D01*
X123230135Y-83477150D01*
X123406942Y-83468415D01*
X123541379Y-83459584D01*
X123625768Y-83451104D01*
X123652429Y-83443420D01*
X123650214Y-83442039D01*
X123592166Y-83426057D01*
X123483806Y-83401766D01*
X123340732Y-83372491D01*
X123181832Y-83342165D01*
X123024509Y-83311585D01*
X122891217Y-83282707D01*
X122795823Y-83258741D01*
X122752197Y-83242895D01*
X122751915Y-83242654D01*
X122746200Y-83200985D01*
X122752336Y-83107032D01*
X122768073Y-82973942D01*
X122791159Y-82814858D01*
X122819344Y-82642925D01*
X122850379Y-82471289D01*
X122882013Y-82313094D01*
X122911996Y-82181485D01*
X122938077Y-82089607D01*
X122955682Y-82052380D01*
X123023407Y-82016765D01*
X123093861Y-82005507D01*
X123148785Y-82001928D01*
X123261431Y-81991783D01*
X123423007Y-81975962D01*
X123624721Y-81955358D01*
X123857782Y-81930858D01*
X124113397Y-81903355D01*
X124250335Y-81888380D01*
X124511271Y-81859825D01*
X124751630Y-81833787D01*
X124963127Y-81811141D01*
X125137481Y-81792766D01*
X125266407Y-81779537D01*
X125341621Y-81772330D01*
X125357059Y-81771252D01*
X125384797Y-81801141D01*
X125407727Y-81876597D01*
X125423527Y-81976303D01*
X125429873Y-82078941D01*
X125424442Y-82163194D01*
X125404912Y-82207746D01*
X125404647Y-82207913D01*
X125357218Y-82223848D01*
X125258630Y-82248410D01*
X125123561Y-82278175D01*
X124975738Y-82307975D01*
X124819185Y-82339409D01*
X124684730Y-82368633D01*
X124587243Y-82392270D01*
X124542602Y-82406374D01*
X124563291Y-82412906D01*
X124643232Y-82420246D01*
X124774760Y-82428026D01*
X124950208Y-82435876D01*
X125161909Y-82443428D01*
X125402196Y-82450314D01*
X125511364Y-82452954D01*
X125764958Y-82459222D01*
X125996325Y-82465833D01*
X126197165Y-82472479D01*
X126359178Y-82478853D01*
X126474064Y-82484645D01*
X126533522Y-82489548D01*
X126539874Y-82491130D01*
X126548773Y-82528717D01*
X126560896Y-82618259D01*
X126574424Y-82744975D01*
X126583772Y-82848052D01*
X126601482Y-83012324D01*
X126622555Y-83134786D01*
X126645002Y-83205029D01*
X126654176Y-83216340D01*
X126707249Y-83229913D01*
X126805370Y-83239606D01*
X126919504Y-83243203D01*
X127143343Y-83243716D01*
X127160682Y-83101489D01*
X127167444Y-83021497D01*
X127175341Y-82888744D01*
X127183673Y-82717377D01*
X127191740Y-82521538D01*
X127197528Y-82356891D01*
X127211921Y-81975469D01*
X127218051Y-81858009D01*
X129497784Y-81858009D01*
X129510708Y-81898517D01*
X129536182Y-81993926D01*
X129571610Y-82133943D01*
X129614399Y-82308274D01*
X129661953Y-82506626D01*
X129672088Y-82549458D01*
X129828142Y-83210536D01*
X129759594Y-83402818D01*
X129728714Y-83503613D01*
X129695819Y-83633707D01*
X129663966Y-83777457D01*
X129636213Y-83919219D01*
X129615618Y-84043351D01*
X129605240Y-84134209D01*
X129608137Y-84176151D01*
X129608364Y-84176396D01*
X129644625Y-84182319D01*
X129735798Y-84189923D01*
X129869909Y-84198403D01*
X130034986Y-84206958D01*
X130122523Y-84210889D01*
X130299153Y-84219743D01*
X130451435Y-84229851D01*
X130567128Y-84240207D01*
X130633992Y-84249806D01*
X130645115Y-84253815D01*
X130663475Y-84299381D01*
X130693150Y-84410449D01*
X130734035Y-84586569D01*
X130786025Y-84827297D01*
X130826585Y-85022393D01*
X130865428Y-85211479D01*
X131323893Y-85231744D01*
X131522335Y-85240779D01*
X131724987Y-85250454D01*
X131908262Y-85259618D01*
X132048574Y-85267118D01*
X132050079Y-85267203D01*
X132173025Y-85272142D01*
X132239253Y-85269105D01*
X132247066Y-85256985D01*
X132194769Y-85234670D01*
X132080667Y-85201051D01*
X131903062Y-85155019D01*
X131863624Y-85145181D01*
X131557879Y-85069250D01*
X131571808Y-84876686D01*
X131581768Y-84770089D01*
X131593096Y-84693894D01*
X131600887Y-84668973D01*
X131637459Y-84666280D01*
X131731225Y-84667407D01*
X131872588Y-84671835D01*
X132051953Y-84679045D01*
X132259724Y-84688517D01*
X132486305Y-84699731D01*
X132722101Y-84712168D01*
X132957515Y-84725309D01*
X133182951Y-84738633D01*
X133388814Y-84751621D01*
X133565508Y-84763753D01*
X133703437Y-84774511D01*
X133793006Y-84783374D01*
X133824408Y-84789367D01*
X133832974Y-84826788D01*
X133844750Y-84916148D01*
X133858376Y-85042608D01*
X133872492Y-85191332D01*
X133885736Y-85347485D01*
X133896749Y-85496228D01*
X133904170Y-85622727D01*
X133906367Y-85683254D01*
X133918750Y-85705298D01*
X133962255Y-85716726D01*
X134048236Y-85718563D01*
X134188048Y-85711834D01*
X134208513Y-85710530D01*
X134396185Y-85706150D01*
X134563054Y-85722781D01*
X134733718Y-85764992D01*
X134932776Y-85837352D01*
X134967611Y-85851501D01*
X134956316Y-85824099D01*
X134921128Y-85747222D01*
X134867103Y-85631740D01*
X134799297Y-85488524D01*
X134778107Y-85444045D01*
X134683625Y-85240854D01*
X134579828Y-85009355D01*
X134480724Y-84781183D01*
X134414993Y-84624150D01*
X134247452Y-84214203D01*
X134336776Y-84215661D01*
X134426189Y-84223037D01*
X134540823Y-84239689D01*
X134576693Y-84246222D01*
X134667962Y-84261823D01*
X134726268Y-84267933D01*
X134736036Y-84266690D01*
X134709532Y-84252776D01*
X134630680Y-84220086D01*
X134510006Y-84172784D01*
X134358039Y-84115036D01*
X134266328Y-84080847D01*
X133787869Y-83903640D01*
X133729188Y-83704525D01*
X133641797Y-83501472D01*
X133551380Y-83382930D01*
X133440592Y-83252696D01*
X133307096Y-83067905D01*
X133155266Y-82835208D01*
X132989472Y-82561256D01*
X132844045Y-82306693D01*
X132746601Y-82129252D01*
X132644297Y-81938311D01*
X132542053Y-81743570D01*
X132444790Y-81554728D01*
X132357430Y-81381484D01*
X132284893Y-81233538D01*
X132232100Y-81120588D01*
X132203973Y-81052335D01*
X132200672Y-81038605D01*
X132228150Y-81011207D01*
X132303101Y-80958981D01*
X132414298Y-80889255D01*
X132550516Y-80809360D01*
X132560241Y-80803835D01*
X132694205Y-80726658D01*
X132800794Y-80662880D01*
X132870014Y-80618665D01*
X132891866Y-80600173D01*
X132890938Y-80599974D01*
X132854114Y-80609797D01*
X132759914Y-80637938D01*
X132614739Y-80682407D01*
X132424988Y-80741213D01*
X132197061Y-80812366D01*
X131937356Y-80893874D01*
X131652274Y-80983747D01*
X131368457Y-81073575D01*
X130955681Y-81205486D01*
X130606965Y-81319141D01*
X130322008Y-81414646D01*
X130100507Y-81492106D01*
X129942161Y-81551625D01*
X129846668Y-81593309D01*
X129816154Y-81612885D01*
X129740945Y-81660816D01*
X129690660Y-81661126D01*
X129644865Y-81659117D01*
X129626479Y-81696728D01*
X129623861Y-81754519D01*
X129618260Y-81828748D01*
X129593022Y-81852544D01*
X129551697Y-81846510D01*
X129503085Y-81842918D01*
X129497784Y-81858009D01*
X127218051Y-81858009D01*
X127228542Y-81656968D01*
X127247801Y-81397405D01*
X127270104Y-81192794D01*
X127295859Y-81039152D01*
X127297006Y-81035020D01*
X127542453Y-81035020D01*
X127637768Y-81034782D01*
X127721210Y-81031498D01*
X127842738Y-81023193D01*
X127956563Y-81013435D01*
X128180043Y-80992326D01*
X128110543Y-80898323D01*
X128055119Y-80796192D01*
X128020924Y-80686114D01*
X128000804Y-80567909D01*
X127838086Y-80696502D01*
X127737347Y-80784854D01*
X127649716Y-80876621D01*
X127608910Y-80930058D01*
X127542453Y-81035020D01*
X127297006Y-81035020D01*
X127325473Y-80932494D01*
X127348073Y-80884689D01*
X127419194Y-80791498D01*
X127534169Y-80666730D01*
X127683481Y-80519197D01*
X127857614Y-80357710D01*
X128047050Y-80191082D01*
X128242274Y-80028122D01*
X128433767Y-79877643D01*
X128444355Y-79869638D01*
X128628772Y-79733985D01*
X128846107Y-79579772D01*
X129085392Y-79414283D01*
X129335663Y-79244804D01*
X129585950Y-79078622D01*
X129825288Y-78923022D01*
X130042709Y-78785290D01*
X130227247Y-78672712D01*
X130361117Y-78596233D01*
X130528185Y-78512605D01*
X130732437Y-78422466D01*
X130979804Y-78323506D01*
X131276212Y-78213414D01*
X131627591Y-78089878D01*
X131882754Y-78003133D01*
X132088081Y-77932741D01*
X132229862Y-77880736D01*
X132308708Y-77846453D01*
X132325235Y-77829225D01*
X132280054Y-77828386D01*
X132173781Y-77843268D01*
X132007028Y-77873206D01*
X132001367Y-77874278D01*
X131698916Y-77944754D01*
X131380973Y-78041528D01*
X131079204Y-78154321D01*
X130918388Y-78225741D01*
X130690255Y-78334947D01*
X130449090Y-78095392D01*
X130316742Y-77970463D01*
X130218145Y-77893356D01*
X130146209Y-77858867D01*
X130122758Y-77855837D01*
X130041100Y-77846316D01*
X129928811Y-77822088D01*
X129867340Y-77805278D01*
X129714032Y-77736094D01*
X129581632Y-77621757D01*
X129461383Y-77453596D01*
X129401886Y-77344259D01*
X129348361Y-77245795D01*
X129301673Y-77173022D01*
X129278634Y-77147272D01*
X129227838Y-77131253D01*
X129133979Y-77113663D01*
X129053189Y-77102668D01*
X128944502Y-77087528D01*
X128880061Y-77064062D01*
X128837535Y-77017065D01*
X128794594Y-76931330D01*
X128791419Y-76924408D01*
X128732197Y-76786396D01*
X128710180Y-76692682D01*
X128731693Y-76628179D01*
X128803066Y-76577803D01*
X128930624Y-76526468D01*
X128963208Y-76514839D01*
X129121318Y-76453420D01*
X129272806Y-76385087D01*
X129403013Y-76317381D01*
X129497280Y-76257840D01*
X129538344Y-76219047D01*
X129518913Y-76214523D01*
X129450715Y-76229905D01*
X129347769Y-76261904D01*
X129330917Y-76267684D01*
X129092595Y-76336800D01*
X128825171Y-76392180D01*
X128554189Y-76429863D01*
X128305194Y-76445887D01*
X128191980Y-76444300D01*
X128091553Y-76436805D01*
X127996756Y-76422639D01*
X127894953Y-76398078D01*
X127773508Y-76359393D01*
X127619787Y-76302860D01*
X127421153Y-76224751D01*
X127348235Y-76195474D01*
X127123466Y-76108766D01*
X126881207Y-76021732D01*
X126643211Y-75941776D01*
X126627237Y-75936842D01*
X131587841Y-75936842D01*
X131601630Y-75943986D01*
X131650144Y-75915021D01*
X131727641Y-75851976D01*
X131828379Y-75756881D01*
X131829357Y-75755903D01*
X131936129Y-75642787D01*
X132036813Y-75525581D01*
X132110880Y-75428273D01*
X132115056Y-75422044D01*
X132208518Y-75280610D01*
X132083044Y-74928434D01*
X132032001Y-74787772D01*
X131988885Y-74673821D01*
X131958608Y-74599248D01*
X131946488Y-74576258D01*
X131943780Y-74607456D01*
X131944759Y-74692219D01*
X131949102Y-74817302D01*
X131955818Y-74957138D01*
X131963765Y-75125894D01*
X131965024Y-75244907D01*
X131957769Y-75331187D01*
X131940169Y-75401743D01*
X131910397Y-75473587D01*
X131897363Y-75500946D01*
X131825604Y-75624358D01*
X131733023Y-75752603D01*
X131687404Y-75806100D01*
X131614518Y-75891556D01*
X131587841Y-75936842D01*
X126627237Y-75936842D01*
X126431233Y-75876301D01*
X126321073Y-75845881D01*
X126136194Y-75797194D01*
X126006495Y-75757837D01*
X125922169Y-75721134D01*
X125873408Y-75680406D01*
X125850406Y-75628976D01*
X125843355Y-75560167D01*
X125842763Y-75520218D01*
X125823380Y-75453633D01*
X125773432Y-75357629D01*
X125715126Y-75269230D01*
X125633793Y-75154813D01*
X125535425Y-75012170D01*
X125439294Y-74869301D01*
X125430233Y-74855592D01*
X126957351Y-74855592D01*
X126964715Y-74889839D01*
X127008855Y-74948789D01*
X127074360Y-75015238D01*
X127145820Y-75071982D01*
X127158359Y-75079980D01*
X127236600Y-75116596D01*
X127317647Y-75124675D01*
X127419368Y-75102612D01*
X127559628Y-75048800D01*
X127574124Y-75042615D01*
X127658224Y-75004523D01*
X127709263Y-74977521D01*
X127716351Y-74971265D01*
X127685873Y-74964800D01*
X127606345Y-74958138D01*
X127505899Y-74953178D01*
X127359221Y-74940237D01*
X127209614Y-74915380D01*
X127130978Y-74895931D01*
X127036227Y-74869524D01*
X126972463Y-74855733D01*
X126957351Y-74855592D01*
X125430233Y-74855592D01*
X125425345Y-74848197D01*
X125344202Y-74720240D01*
X125293216Y-74620789D01*
X125263089Y-74524284D01*
X125244527Y-74405162D01*
X125236712Y-74329488D01*
X125230619Y-74245142D01*
X125631049Y-74245142D01*
X125776422Y-74393266D01*
X125853820Y-74468452D01*
X125911135Y-74517266D01*
X125934208Y-74528976D01*
X125929840Y-74493728D01*
X125904059Y-74420109D01*
X125890407Y-74387451D01*
X125862461Y-74295601D01*
X125840542Y-74158586D01*
X125823675Y-73968666D01*
X125813150Y-73773096D01*
X125792108Y-73287853D01*
X125711579Y-73766497D01*
X125631049Y-74245142D01*
X125230619Y-74245142D01*
X125227007Y-74195149D01*
X125218395Y-74014768D01*
X125211660Y-73809232D01*
X125207587Y-73599430D01*
X125207002Y-73538841D01*
X125203886Y-73322114D01*
X125197885Y-73096974D01*
X125189568Y-72873812D01*
X125179506Y-72663018D01*
X125168271Y-72474983D01*
X125156432Y-72320096D01*
X125144560Y-72208749D01*
X125133226Y-72151332D01*
X125130543Y-72146621D01*
X125095418Y-72153975D01*
X125014488Y-72188239D01*
X124900373Y-72243668D01*
X124785676Y-72303686D01*
X124459552Y-72479495D01*
X124339401Y-72415163D01*
X124226656Y-72320725D01*
X124134550Y-72178694D01*
X124069890Y-72006960D01*
X124039486Y-71823416D01*
X124048984Y-71651963D01*
X124067538Y-71582151D01*
X124102478Y-71544852D01*
X124174024Y-71524828D01*
X124228442Y-71516723D01*
X124389038Y-71491801D01*
X124558827Y-71460420D01*
X124724714Y-71425624D01*
X124873605Y-71390457D01*
X124992405Y-71357963D01*
X125068018Y-71331188D01*
X125088484Y-71316792D01*
X125129027Y-71169766D01*
X125161662Y-71071363D01*
X125195970Y-71005600D01*
X125241534Y-70956495D01*
X125307937Y-70908066D01*
X125350245Y-70880224D01*
X125473530Y-70809619D01*
X125603288Y-70750509D01*
X125674980Y-70726113D01*
X125794248Y-70690213D01*
X125905955Y-70650290D01*
X125931026Y-70639907D01*
X126038454Y-70606826D01*
X126139346Y-70593913D01*
X126209975Y-70587701D01*
X126231581Y-70556525D01*
X126225577Y-70501884D01*
X126235507Y-70406290D01*
X126299705Y-70340954D01*
X126410583Y-70310568D01*
X126528370Y-70314653D01*
X126656908Y-70343974D01*
X126739870Y-70399368D01*
X126794571Y-70496585D01*
X126820782Y-70580619D01*
X126848658Y-70668295D01*
X126873944Y-70720957D01*
X126882472Y-70727774D01*
X126919351Y-70716990D01*
X127009479Y-70686879D01*
X127143135Y-70640800D01*
X127310601Y-70582112D01*
X127502156Y-70514174D01*
X127553199Y-70495949D01*
X128201594Y-70264125D01*
X128204527Y-70152932D01*
X128208142Y-70062493D01*
X128212790Y-69998751D01*
X128212893Y-69997905D01*
X128237300Y-69953616D01*
X128296677Y-69877297D01*
X128378851Y-69784427D01*
X128390507Y-69772015D01*
X128505631Y-69661299D01*
X128594354Y-69602384D01*
X128649861Y-69588775D01*
X128746527Y-69570743D01*
X128820699Y-69539763D01*
X128918021Y-69502607D01*
X128995908Y-69490751D01*
X129055252Y-69481494D01*
X129091490Y-69443966D01*
X129119839Y-69360585D01*
X129124603Y-69342039D01*
X129156138Y-69248860D01*
X129203395Y-69192816D01*
X129282052Y-69164809D01*
X129407793Y-69155740D01*
X129446303Y-69155372D01*
X129587452Y-69178160D01*
X129692274Y-69250865D01*
X129765944Y-69378429D01*
X129799396Y-69492294D01*
X129841384Y-69679081D01*
X131173483Y-69203190D01*
X131457303Y-69101521D01*
X131721332Y-69006412D01*
X131958952Y-68920287D01*
X132163546Y-68845567D01*
X132328496Y-68784675D01*
X132447185Y-68740035D01*
X132512995Y-68714069D01*
X132524216Y-68708665D01*
X132525138Y-68668988D01*
X132506760Y-68588573D01*
X132489672Y-68533961D01*
X132457896Y-68408869D01*
X132464364Y-68327153D01*
X132468970Y-68317209D01*
X132473505Y-68291380D01*
X132726640Y-68291380D01*
X132763394Y-68315450D01*
X132832215Y-68324930D01*
X132882214Y-68330944D01*
X132920859Y-68346008D01*
X132955444Y-68380360D01*
X132993258Y-68444234D01*
X133041593Y-68547868D01*
X133107742Y-68701497D01*
X133118568Y-68726942D01*
X133181909Y-68873189D01*
X133235919Y-68992918D01*
X133275388Y-69074938D01*
X133295107Y-69108061D01*
X133296045Y-69108115D01*
X133291612Y-69073775D01*
X133272039Y-68986931D01*
X133240235Y-68859531D01*
X133199105Y-68703522D01*
X133184473Y-68649598D01*
X133134850Y-68463022D01*
X133103031Y-68328302D01*
X133087128Y-68233324D01*
X133085254Y-68165978D01*
X133095521Y-68114149D01*
X133099342Y-68103306D01*
X133122839Y-68032814D01*
X133128773Y-67997138D01*
X133128474Y-67996726D01*
X133096621Y-68005602D01*
X133021534Y-68036730D01*
X132930617Y-68078182D01*
X132804052Y-68148403D01*
X132738206Y-68212222D01*
X132726703Y-68241267D01*
X132726640Y-68291380D01*
X132473505Y-68291380D01*
X132481671Y-68244868D01*
X132469959Y-68117672D01*
X132448120Y-67998668D01*
X132422296Y-67867794D01*
X132411535Y-67784080D01*
X132416320Y-67729362D01*
X132437137Y-67685478D01*
X132457224Y-67657191D01*
X132548041Y-67572836D01*
X132681490Y-67492877D01*
X132833739Y-67429621D01*
X132958185Y-67398481D01*
X133096593Y-67376672D01*
X133214929Y-67571473D01*
G37*
D11*
%TO.C,JP8*%
X101705000Y-68440000D02*
X101705000Y-71100000D01*
X104305000Y-68440000D02*
X101705000Y-68440000D01*
X104305000Y-68440000D02*
X104305000Y-71100000D01*
X104305000Y-71100000D02*
X101705000Y-71100000D01*
X105575000Y-68440000D02*
X106905000Y-68440000D01*
X106905000Y-68440000D02*
X106905000Y-69770000D01*
%TO.C,JP6*%
X207690000Y-105805000D02*
X209020000Y-105805000D01*
X207690000Y-107135000D02*
X207690000Y-105805000D01*
X207690000Y-108405000D02*
X207690000Y-111005000D01*
X207690000Y-108405000D02*
X210350000Y-108405000D01*
X207690000Y-111005000D02*
X210350000Y-111005000D01*
X210350000Y-108405000D02*
X210350000Y-111005000D01*
%TO.C,J1*%
X205340000Y-93240000D02*
X205340000Y-96840000D01*
X207220000Y-91360000D02*
X210820000Y-91360000D01*
X207220000Y-98720000D02*
X210820000Y-98720000D01*
X212700000Y-93240000D02*
X212700000Y-96840000D01*
%TO.C,D1*%
X106815000Y-86990000D02*
X106815000Y-88910000D01*
X106815000Y-88910000D02*
X109500000Y-88910000D01*
X109500000Y-86990000D02*
X106815000Y-86990000D01*
%TO.C,C3*%
X123118748Y-97665000D02*
X123641252Y-97665000D01*
X123118748Y-99135000D02*
X123641252Y-99135000D01*
D13*
%TO.C,J2*%
X122670000Y-95830000D02*
X122670000Y-93290000D01*
X135370000Y-93290000D02*
X122670000Y-93290000D01*
X135370000Y-93290000D02*
X135370000Y-95830000D01*
X135370000Y-95830000D02*
X122670000Y-95830000D01*
X136120000Y-94560000D02*
G75*
G02*
X135920000Y-94560000I-100000J0D01*
G01*
X135920000Y-94560000D02*
G75*
G02*
X136120000Y-94560000I100000J0D01*
G01*
D11*
%TO.C,R1*%
X203382936Y-116985000D02*
X203837064Y-116985000D01*
X203382936Y-118455000D02*
X203837064Y-118455000D01*
%TO.C,C2*%
X172665000Y-118231252D02*
X172665000Y-117708748D01*
X174135000Y-118231252D02*
X174135000Y-117708748D01*
D13*
%TO.C,J3*%
X182757500Y-59517500D02*
X183422500Y-59517500D01*
X182757500Y-59957500D02*
X182757500Y-59517500D01*
X184632500Y-59517500D02*
X185962500Y-59517500D01*
X187172500Y-59517500D02*
X188502500Y-59517500D01*
X189712500Y-59517500D02*
X191042500Y-59517500D01*
X192252500Y-59517500D02*
X192917500Y-59517500D01*
X192917500Y-59517500D02*
X192917500Y-59957500D01*
X182187500Y-60762500D02*
G75*
G02*
X181987500Y-60762500I-100000J0D01*
G01*
X181987500Y-60762500D02*
G75*
G02*
X182187500Y-60762500I100000J0D01*
G01*
D14*
%TO.C,G\u002A\u002A\u002A*%
G36*
X93073349Y-67668980D02*
G01*
X93073349Y-69872041D01*
X92338995Y-69872041D01*
X91604642Y-69872041D01*
X91604642Y-69511491D01*
X91604642Y-69150941D01*
X92090611Y-69090232D01*
X92576580Y-69029523D01*
X92576580Y-68727227D01*
X92576580Y-68424932D01*
X90605384Y-68413700D01*
X88634187Y-68402469D01*
X88604071Y-68683683D01*
X88573956Y-68964898D01*
X88339809Y-68964898D01*
X88105662Y-68964898D01*
X88105662Y-67647381D01*
X88105662Y-66329864D01*
X88338196Y-66329864D01*
X88570729Y-66329864D01*
X88608179Y-66621446D01*
X88645628Y-66913027D01*
X90351921Y-66926010D01*
X90739769Y-66928216D01*
X91110726Y-66928912D01*
X91453532Y-66928182D01*
X91756926Y-66926108D01*
X92009650Y-66922772D01*
X92200443Y-66918256D01*
X92318046Y-66912642D01*
X92330087Y-66911570D01*
X92601960Y-66884147D01*
X92589270Y-66596206D01*
X92576580Y-66308265D01*
X92101410Y-66241871D01*
X91626240Y-66175477D01*
X91613694Y-65820698D01*
X91601148Y-65465918D01*
X92337248Y-65465918D01*
X93073349Y-65465918D01*
X93073349Y-67668980D01*
G37*
G36*
X92837721Y-70174422D02*
G01*
X93073349Y-70174422D01*
X93073349Y-71383946D01*
X93073349Y-72593469D01*
X92840802Y-72593469D01*
X92693653Y-72584270D01*
X92607889Y-72544826D01*
X92567326Y-72457363D01*
X92555777Y-72304113D01*
X92555572Y-72280289D01*
X92554982Y-72161497D01*
X91732980Y-72161497D01*
X90910978Y-72161497D01*
X90923031Y-72733861D01*
X90935084Y-73306225D01*
X91733642Y-73306225D01*
X92019625Y-73305311D01*
X92230250Y-73301979D01*
X92376537Y-73295344D01*
X92469508Y-73284522D01*
X92520186Y-73268627D01*
X92539591Y-73246774D01*
X92540714Y-73241429D01*
X92553087Y-73157224D01*
X92572372Y-73034898D01*
X92575661Y-73014643D01*
X92602094Y-72852653D01*
X92837721Y-72852653D01*
X93073349Y-72852653D01*
X93073349Y-74062177D01*
X93073349Y-75271701D01*
X92840386Y-75271701D01*
X92691490Y-75264141D01*
X92605719Y-75229248D01*
X92565979Y-75148698D01*
X92555175Y-75004168D01*
X92554982Y-74965787D01*
X92554982Y-74796531D01*
X90592614Y-74796531D01*
X88630246Y-74796531D01*
X88600562Y-75034116D01*
X88570877Y-75271701D01*
X88338270Y-75271701D01*
X88105662Y-75271701D01*
X88105662Y-74062177D01*
X88105662Y-72852653D01*
X88337172Y-72852653D01*
X88568681Y-72852653D01*
X88607155Y-73079439D01*
X88645628Y-73306225D01*
X89509574Y-73306225D01*
X90373519Y-73306225D01*
X90385572Y-72733861D01*
X90397625Y-72161497D01*
X89514881Y-72161497D01*
X88632136Y-72161497D01*
X88602431Y-72377483D01*
X88572725Y-72593469D01*
X88339194Y-72593469D01*
X88105662Y-72593469D01*
X88105662Y-71383946D01*
X88105662Y-70174422D01*
X88336255Y-70174422D01*
X88566849Y-70174422D01*
X88606238Y-70422806D01*
X88645628Y-70671191D01*
X90589506Y-70671191D01*
X92533383Y-70671191D01*
X92545033Y-70563197D01*
X92565886Y-70379651D01*
X92588427Y-70265417D01*
X92625016Y-70204078D01*
X92688015Y-70179214D01*
X92789785Y-70174405D01*
X92837721Y-70174422D01*
G37*
G36*
X88600616Y-104840676D02*
G01*
X88630355Y-105078699D01*
X90581869Y-105067462D01*
X92533383Y-105056225D01*
X92545228Y-104926633D01*
X92563417Y-104762033D01*
X92591439Y-104665459D01*
X92645596Y-104618785D01*
X92742188Y-104603885D01*
X92836587Y-104602653D01*
X93073349Y-104602653D01*
X93073349Y-106481735D01*
X93073349Y-108360816D01*
X92538783Y-108360816D01*
X92319026Y-108362977D01*
X92118949Y-108368854D01*
X91961003Y-108377543D01*
X91869225Y-108387815D01*
X91734233Y-108414813D01*
X91734233Y-108047044D01*
X91734233Y-107679275D01*
X91874625Y-107654479D01*
X91991488Y-107634175D01*
X92155281Y-107606120D01*
X92306597Y-107580441D01*
X92598179Y-107531199D01*
X92598179Y-107066802D01*
X92598179Y-106602405D01*
X92267682Y-106574468D01*
X92079514Y-106562548D01*
X91841616Y-106553162D01*
X91590644Y-106547559D01*
X91446934Y-106546531D01*
X90956682Y-106546531D01*
X90956682Y-106865607D01*
X90956682Y-107184683D01*
X91205067Y-107221984D01*
X91453451Y-107259286D01*
X91466406Y-107507670D01*
X91479361Y-107756054D01*
X90675900Y-107756054D01*
X89872439Y-107756054D01*
X89885394Y-107507670D01*
X89898349Y-107259286D01*
X90146733Y-107221984D01*
X90395118Y-107184683D01*
X90395118Y-106865607D01*
X90395118Y-106546531D01*
X89818472Y-106546531D01*
X89566273Y-106548772D01*
X89309877Y-106554869D01*
X89079829Y-106563881D01*
X88911329Y-106574468D01*
X88580832Y-106602405D01*
X88580832Y-107136033D01*
X88581652Y-107339550D01*
X88583887Y-107507663D01*
X88587207Y-107623826D01*
X88591275Y-107671495D01*
X88591631Y-107671855D01*
X88635944Y-107679894D01*
X88746328Y-107699726D01*
X88903811Y-107727946D01*
X89012805Y-107747451D01*
X89423179Y-107820850D01*
X89435725Y-108177228D01*
X89448272Y-108533605D01*
X89262936Y-108533409D01*
X89142403Y-108530802D01*
X88962768Y-108523914D01*
X88751151Y-108513885D01*
X88591631Y-108505210D01*
X88105662Y-108477208D01*
X88105662Y-106539931D01*
X88105662Y-104602653D01*
X88338270Y-104602653D01*
X88570877Y-104602653D01*
X88600616Y-104840676D01*
G37*
G36*
X88599784Y-75891838D02*
G01*
X88628691Y-76123201D01*
X88982738Y-76150763D01*
X89145558Y-76159430D01*
X89379460Y-76166406D01*
X89669147Y-76171694D01*
X89999322Y-76175293D01*
X90354689Y-76177205D01*
X90719951Y-76177431D01*
X91079812Y-76175970D01*
X91418974Y-76172825D01*
X91722142Y-76167996D01*
X91974019Y-76161484D01*
X92159308Y-76153290D01*
X92198604Y-76150583D01*
X92554982Y-76122841D01*
X92555572Y-75988853D01*
X92563690Y-75821803D01*
X92596359Y-75723135D01*
X92668784Y-75675343D01*
X92796172Y-75660920D01*
X92840802Y-75660476D01*
X93073349Y-75660476D01*
X93073349Y-77532958D01*
X93073349Y-79405439D01*
X92587380Y-79433442D01*
X92369545Y-79445048D01*
X92163839Y-79454347D01*
X91997383Y-79460199D01*
X91916075Y-79461640D01*
X91730739Y-79461837D01*
X91743286Y-79105899D01*
X91755832Y-78749960D01*
X92166206Y-78684247D01*
X92576580Y-78618533D01*
X92588794Y-78133042D01*
X92601009Y-77647551D01*
X91778845Y-77647551D01*
X90956682Y-77647551D01*
X90956682Y-77946500D01*
X90958125Y-78103590D01*
X90967936Y-78194844D01*
X90994337Y-78240819D01*
X91045552Y-78262072D01*
X91086274Y-78270479D01*
X91232281Y-78298681D01*
X91345458Y-78320541D01*
X91420103Y-78340207D01*
X91458648Y-78377730D01*
X91472993Y-78456912D01*
X91475050Y-78579725D01*
X91475050Y-78813878D01*
X90675900Y-78813878D01*
X89876750Y-78813878D01*
X89876750Y-78578250D01*
X89876750Y-78342622D01*
X90038740Y-78316577D01*
X90212257Y-78288628D01*
X90318009Y-78261800D01*
X90372666Y-78218905D01*
X90392896Y-78142757D01*
X90395368Y-78016169D01*
X90395118Y-77949109D01*
X90395118Y-77647551D01*
X89487975Y-77647551D01*
X88580832Y-77647551D01*
X88580832Y-78203189D01*
X88580832Y-78758827D01*
X88915611Y-78811362D01*
X89135627Y-78845177D01*
X89284753Y-78872576D01*
X89376652Y-78904897D01*
X89424985Y-78953477D01*
X89443413Y-79029656D01*
X89445599Y-79144770D01*
X89444778Y-79250533D01*
X89444778Y-79591429D01*
X88872414Y-79590839D01*
X88650420Y-79588702D01*
X88452821Y-79583284D01*
X88299304Y-79575367D01*
X88209558Y-79565735D01*
X88202856Y-79564202D01*
X88105662Y-79538155D01*
X88105662Y-77599316D01*
X88105662Y-75660476D01*
X88338270Y-75660476D01*
X88570877Y-75660476D01*
X88599784Y-75891838D01*
G37*
G36*
X88599784Y-81637077D02*
G01*
X88628691Y-81868439D01*
X88982738Y-81896001D01*
X89145558Y-81904668D01*
X89379460Y-81911644D01*
X89669147Y-81916932D01*
X89999322Y-81920531D01*
X90354689Y-81922443D01*
X90719951Y-81922669D01*
X91079812Y-81921208D01*
X91418974Y-81918063D01*
X91722142Y-81913234D01*
X91974019Y-81906722D01*
X92159308Y-81898528D01*
X92198604Y-81895822D01*
X92554982Y-81868079D01*
X92555572Y-81734091D01*
X92563690Y-81567041D01*
X92596359Y-81468373D01*
X92668784Y-81420581D01*
X92796172Y-81406158D01*
X92840802Y-81405714D01*
X93073349Y-81405714D01*
X93073349Y-82615238D01*
X93073349Y-83824762D01*
X92840802Y-83824762D01*
X92693653Y-83815563D01*
X92607889Y-83776118D01*
X92567326Y-83688656D01*
X92555777Y-83535405D01*
X92555572Y-83511582D01*
X92554982Y-83392789D01*
X91732980Y-83392789D01*
X90910978Y-83392789D01*
X90923031Y-83965153D01*
X90935084Y-84537517D01*
X91302261Y-84551486D01*
X91517832Y-84554655D01*
X91774870Y-84551015D01*
X92028788Y-84541390D01*
X92112210Y-84536530D01*
X92554982Y-84507605D01*
X92555572Y-84392969D01*
X92565020Y-84231855D01*
X92602276Y-84138548D01*
X92683806Y-84095206D01*
X92826077Y-84083990D01*
X92840802Y-84083946D01*
X93073349Y-84083946D01*
X93073349Y-85293469D01*
X93073349Y-86502993D01*
X92840802Y-86502993D01*
X92697510Y-86494707D01*
X92612222Y-86458254D01*
X92570123Y-86376246D01*
X92556395Y-86231290D01*
X92555572Y-86168214D01*
X92554982Y-86027823D01*
X90592614Y-86027823D01*
X88630246Y-86027823D01*
X88600562Y-86265408D01*
X88570877Y-86502993D01*
X88338270Y-86502993D01*
X88105662Y-86502993D01*
X88105662Y-85293469D01*
X88105662Y-84083946D01*
X88337682Y-84083946D01*
X88569702Y-84083946D01*
X88597811Y-84295840D01*
X88625919Y-84507733D01*
X89067746Y-84536481D01*
X89321994Y-84548215D01*
X89607959Y-84554038D01*
X89874323Y-84553076D01*
X89941546Y-84551372D01*
X90373519Y-84537517D01*
X90385572Y-83965153D01*
X90397625Y-83392789D01*
X89514881Y-83392789D01*
X88632136Y-83392789D01*
X88602431Y-83608776D01*
X88572725Y-83824762D01*
X88339194Y-83824762D01*
X88105662Y-83824762D01*
X88105662Y-82615238D01*
X88105662Y-81405714D01*
X88338270Y-81405714D01*
X88570877Y-81405714D01*
X88599784Y-81637077D01*
G37*
G36*
X88598682Y-98241854D02*
G01*
X88621550Y-98407485D01*
X88644728Y-98569436D01*
X88650581Y-98609031D01*
X88674821Y-98771020D01*
X90588398Y-98771020D01*
X92501975Y-98771020D01*
X92530114Y-98565833D01*
X92557617Y-98367678D01*
X92581862Y-98239566D01*
X92613480Y-98166271D01*
X92663100Y-98132566D01*
X92741351Y-98123222D01*
X92839196Y-98123061D01*
X93073349Y-98123061D01*
X93073349Y-99214528D01*
X93073349Y-100305995D01*
X91647839Y-100779694D01*
X91315019Y-100891009D01*
X91009764Y-100994487D01*
X90741397Y-101086861D01*
X90519243Y-101164863D01*
X90352624Y-101225225D01*
X90250865Y-101264679D01*
X90222329Y-101279321D01*
X90262032Y-101297823D01*
X90374876Y-101338724D01*
X90551458Y-101398908D01*
X90782378Y-101475261D01*
X91058232Y-101564668D01*
X91369621Y-101664012D01*
X91647839Y-101751633D01*
X93073349Y-102198017D01*
X93073349Y-103205947D01*
X93073349Y-104213878D01*
X92836587Y-104213878D01*
X92703249Y-104209986D01*
X92623054Y-104186227D01*
X92579702Y-104124474D01*
X92556890Y-104006602D01*
X92545228Y-103889898D01*
X92533383Y-103760306D01*
X90589506Y-103760306D01*
X88645628Y-103760306D01*
X88606238Y-104008691D01*
X88566849Y-104257075D01*
X88336255Y-104257075D01*
X88105662Y-104257075D01*
X88105662Y-103025952D01*
X88105662Y-101794830D01*
X88340139Y-101794830D01*
X88574615Y-101794830D01*
X88604300Y-102032415D01*
X88633984Y-102270000D01*
X89417357Y-102270144D01*
X89738258Y-102271968D01*
X90094628Y-102276891D01*
X90451007Y-102284248D01*
X90771936Y-102293376D01*
X90891887Y-102297747D01*
X91122966Y-102305486D01*
X91318346Y-102309263D01*
X91464229Y-102309039D01*
X91546821Y-102304774D01*
X91559900Y-102299659D01*
X91516698Y-102282960D01*
X91401519Y-102243407D01*
X91224709Y-102184344D01*
X90996616Y-102109120D01*
X90727587Y-102021081D01*
X90427971Y-101923574D01*
X90108114Y-101819946D01*
X89778363Y-101713544D01*
X89449068Y-101607715D01*
X89130574Y-101505805D01*
X88833229Y-101411161D01*
X88567381Y-101327131D01*
X88343377Y-101257061D01*
X88201165Y-101213277D01*
X88152323Y-101192952D01*
X88123912Y-101156089D01*
X88111573Y-101083592D01*
X88110947Y-100956365D01*
X88114770Y-100834848D01*
X88127261Y-100486523D01*
X89876750Y-99890014D01*
X91626240Y-99293505D01*
X90160266Y-99302246D01*
X88694292Y-99310986D01*
X88663399Y-99440578D01*
X88634236Y-99575621D01*
X88605911Y-99725216D01*
X88604712Y-99732160D01*
X88576917Y-99894150D01*
X88341290Y-99894150D01*
X88105662Y-99894150D01*
X88105662Y-98965408D01*
X88105662Y-98036667D01*
X88338342Y-98036667D01*
X88571023Y-98036667D01*
X88598682Y-98241854D01*
G37*
G36*
X88602485Y-86967364D02*
G01*
X88625134Y-87107688D01*
X88650765Y-87221820D01*
X88660526Y-87252283D01*
X88687914Y-87278019D01*
X88757329Y-87314860D01*
X88873992Y-87364694D01*
X89043127Y-87429409D01*
X89269958Y-87510895D01*
X89559707Y-87611039D01*
X89917598Y-87731729D01*
X89992552Y-87756605D01*
X90348852Y-87874855D01*
X90720495Y-87997046D01*
X91126612Y-88130007D01*
X91512215Y-88255948D01*
X91868629Y-88372057D01*
X92187177Y-88475522D01*
X92459185Y-88563531D01*
X92675978Y-88633271D01*
X92828880Y-88681931D01*
X92909217Y-88706698D01*
X92912800Y-88707717D01*
X93076230Y-88753358D01*
X93063990Y-89214479D01*
X93051750Y-89675601D01*
X90827091Y-90395575D01*
X88602431Y-91115549D01*
X88580832Y-91303914D01*
X88559233Y-91492279D01*
X88332448Y-91505336D01*
X88105662Y-91518393D01*
X88105662Y-90325952D01*
X88105662Y-89133512D01*
X88332098Y-89146569D01*
X88558534Y-89159626D01*
X88588305Y-89369036D01*
X88609465Y-89494705D01*
X88629975Y-89579992D01*
X88638513Y-89598883D01*
X88686710Y-89597423D01*
X88795770Y-89575029D01*
X88944021Y-89536310D01*
X88976269Y-89527071D01*
X89139886Y-89479538D01*
X89277931Y-89439493D01*
X89363433Y-89414759D01*
X89369182Y-89413105D01*
X89398148Y-89397052D01*
X89418675Y-89359633D01*
X89432182Y-89287951D01*
X89440089Y-89169110D01*
X89443814Y-88990214D01*
X89444777Y-88738365D01*
X89444778Y-88727653D01*
X89963145Y-88727653D01*
X89964307Y-88923238D01*
X89967466Y-89082571D01*
X89972132Y-89188598D01*
X89977452Y-89224422D01*
X90024910Y-89212831D01*
X90139022Y-89181080D01*
X90304423Y-89133704D01*
X90505748Y-89075234D01*
X90727629Y-89010204D01*
X90954701Y-88943149D01*
X91171598Y-88878600D01*
X91362953Y-88821092D01*
X91513401Y-88775157D01*
X91607576Y-88745329D01*
X91631997Y-88736296D01*
X91597005Y-88720854D01*
X91494186Y-88685453D01*
X91338534Y-88634715D01*
X91145045Y-88573264D01*
X90928716Y-88505721D01*
X90704540Y-88436711D01*
X90487515Y-88370855D01*
X90292635Y-88312777D01*
X90134896Y-88267099D01*
X90029293Y-88238445D01*
X89992552Y-88230884D01*
X89980975Y-88271236D01*
X89971543Y-88380923D01*
X89965266Y-88542893D01*
X89963145Y-88727653D01*
X89444778Y-88727653D01*
X89444778Y-88726131D01*
X89444778Y-88060872D01*
X89072019Y-87947174D01*
X88881968Y-87891384D01*
X88757841Y-87867739D01*
X88683075Y-87882708D01*
X88641103Y-87942757D01*
X88615360Y-88054352D01*
X88603617Y-88130038D01*
X88575538Y-88317279D01*
X88340600Y-88317279D01*
X88105662Y-88317279D01*
X88105662Y-87539728D01*
X88105662Y-86762177D01*
X88340600Y-86762177D01*
X88575538Y-86762177D01*
X88602485Y-86967364D01*
G37*
G36*
X88600562Y-109073571D02*
G01*
X88630246Y-109311157D01*
X90592614Y-109311157D01*
X91706635Y-109311157D01*
X92554982Y-109311157D01*
X92555572Y-109170765D01*
X92563258Y-109001836D01*
X92594552Y-108901455D01*
X92664439Y-108852208D01*
X92787907Y-108836679D01*
X92843668Y-108835986D01*
X93079081Y-108835986D01*
X93064471Y-110423486D01*
X93060499Y-110836787D01*
X93056557Y-111173274D01*
X93052050Y-111442527D01*
X93046379Y-111654127D01*
X93038948Y-111817652D01*
X93029161Y-111942681D01*
X93016419Y-112038794D01*
X93000127Y-112115570D01*
X92979687Y-112182589D01*
X92954503Y-112249430D01*
X92949986Y-112260767D01*
X92787013Y-112577654D01*
X92581384Y-112823194D01*
X92336176Y-112994735D01*
X92054463Y-113089625D01*
X91974478Y-113101543D01*
X91671963Y-113095333D01*
X91394303Y-113009358D01*
X91148267Y-112848331D01*
X90940623Y-112616967D01*
X90778137Y-112319979D01*
X90749961Y-112248571D01*
X90698557Y-112127874D01*
X90658867Y-112069420D01*
X90640120Y-112075782D01*
X90559580Y-112300699D01*
X90487096Y-112463396D01*
X90410719Y-112585699D01*
X90318499Y-112689436D01*
X90288707Y-112717671D01*
X90173444Y-112811065D01*
X90042524Y-112887959D01*
X89883495Y-112951987D01*
X89683905Y-113006781D01*
X89431304Y-113055975D01*
X89113239Y-113103201D01*
X88856017Y-113135707D01*
X88634433Y-113162390D01*
X88605488Y-113418236D01*
X88576542Y-113674082D01*
X88325467Y-113674082D01*
X88074392Y-113674082D01*
X88025231Y-113429292D01*
X87997726Y-113232397D01*
X87983072Y-112997573D01*
X87980920Y-112750029D01*
X87990923Y-112514971D01*
X88012733Y-112317610D01*
X88042292Y-112192716D01*
X88121071Y-112011451D01*
X88216348Y-111869635D01*
X88340163Y-111760913D01*
X88504558Y-111678934D01*
X88721572Y-111617342D01*
X89003244Y-111569786D01*
X89284019Y-111537498D01*
X89624023Y-111496740D01*
X89886630Y-111447797D01*
X90080781Y-111385576D01*
X90215416Y-111304981D01*
X90299479Y-111200917D01*
X90341909Y-111068290D01*
X90351921Y-110929022D01*
X90351921Y-110779864D01*
X90858289Y-110779864D01*
X90882390Y-111045661D01*
X90913108Y-111233875D01*
X90963403Y-111381554D01*
X90988113Y-111423637D01*
X91140812Y-111565822D01*
X91348858Y-111666571D01*
X91589528Y-111721457D01*
X91840102Y-111726053D01*
X92077859Y-111675933D01*
X92144608Y-111648962D01*
X92345649Y-111517240D01*
X92478424Y-111336033D01*
X92545355Y-111101191D01*
X92554982Y-110946207D01*
X92554982Y-110779864D01*
X91706635Y-110779864D01*
X90858289Y-110779864D01*
X90351921Y-110779864D01*
X89492216Y-110779864D01*
X88632512Y-110779864D01*
X88602431Y-111039048D01*
X88572349Y-111298231D01*
X88317407Y-111298231D01*
X88062465Y-111298231D01*
X88062465Y-110067109D01*
X88062465Y-108835986D01*
X88316671Y-108835986D01*
X88570877Y-108835986D01*
X88600562Y-109073571D01*
G37*
G36*
X88624029Y-92010646D02*
G01*
X88676150Y-92377823D01*
X90589063Y-92377823D01*
X92501975Y-92377823D01*
X92530114Y-92172636D01*
X92557612Y-91974480D01*
X92581858Y-91846367D01*
X92613507Y-91773070D01*
X92663214Y-91739363D01*
X92741632Y-91730021D01*
X92839938Y-91729864D01*
X93074833Y-91729864D01*
X93063292Y-92817014D01*
X93051750Y-93904164D01*
X91604642Y-94388687D01*
X91272546Y-94501123D01*
X90970864Y-94605669D01*
X90708307Y-94699119D01*
X90493586Y-94778266D01*
X90335412Y-94839905D01*
X90242495Y-94880827D01*
X90222329Y-94897502D01*
X90282862Y-94917741D01*
X90411458Y-94959132D01*
X90593709Y-95017093D01*
X90815205Y-95087038D01*
X91043077Y-95158602D01*
X91347234Y-95253894D01*
X91681935Y-95358773D01*
X92014763Y-95463081D01*
X92313301Y-95556659D01*
X92436189Y-95595186D01*
X93073349Y-95794960D01*
X93073349Y-96807820D01*
X93073349Y-97820680D01*
X92837721Y-97820680D01*
X92602094Y-97820680D01*
X92575661Y-97658691D01*
X92555941Y-97534620D01*
X92541957Y-97441022D01*
X92540721Y-97431905D01*
X92529847Y-97416348D01*
X92496895Y-97403298D01*
X92434717Y-97392478D01*
X92336163Y-97383611D01*
X92194085Y-97376418D01*
X92001333Y-97370623D01*
X91750758Y-97365947D01*
X91435210Y-97362113D01*
X91047541Y-97358844D01*
X90582414Y-97355872D01*
X88632614Y-97344636D01*
X88602481Y-97604257D01*
X88572349Y-97863878D01*
X88339006Y-97863878D01*
X88105662Y-97863878D01*
X88105662Y-96611156D01*
X88105662Y-95358435D01*
X88340139Y-95358435D01*
X88574615Y-95358435D01*
X88604728Y-95599451D01*
X88629194Y-95734212D01*
X88660723Y-95829033D01*
X88683432Y-95857644D01*
X88739867Y-95863491D01*
X88866817Y-95868851D01*
X89052254Y-95873662D01*
X89284145Y-95877862D01*
X89550461Y-95881389D01*
X89839171Y-95884180D01*
X90138245Y-95886173D01*
X90435652Y-95887306D01*
X90719362Y-95887516D01*
X90977345Y-95886741D01*
X91197570Y-95884919D01*
X91368006Y-95881987D01*
X91476624Y-95877883D01*
X91511393Y-95872544D01*
X91511058Y-95872292D01*
X91461915Y-95853941D01*
X91339316Y-95812459D01*
X91152182Y-95750746D01*
X90909439Y-95671703D01*
X90620007Y-95578229D01*
X90292812Y-95473225D01*
X89936775Y-95359590D01*
X89787183Y-95312020D01*
X88105662Y-94777856D01*
X88105662Y-94430197D01*
X88105662Y-94082537D01*
X89002006Y-93784950D01*
X89340080Y-93671959D01*
X89720195Y-93543679D01*
X90109931Y-93411130D01*
X90476872Y-93285329D01*
X90740696Y-93194002D01*
X91583043Y-92900642D01*
X90132053Y-92898416D01*
X88681063Y-92896191D01*
X88627024Y-93198571D01*
X88572986Y-93500952D01*
X88339324Y-93500952D01*
X88105662Y-93500952D01*
X88105662Y-92572211D01*
X88105662Y-91643469D01*
X88338785Y-91643469D01*
X88571909Y-91643469D01*
X88624029Y-92010646D01*
G37*
%TD*%
M02*
