M48
; DRILL file {KiCad 9.0.2} date 2025-07-21T01:26:13-0500
; FORMAT={-:-/ absolute / metric / decimal}
; #@! TF.CreationDate,2025-07-21T01:26:13-05:00
; #@! TF.GenerationSoftware,Kicad,Pcbnew,9.0.2
; #@! TF.FileFunction,MixedPlating,1,2
FMAT,2
METRIC
; #@! TA.AperFunction,Plated,PTH,ViaDrill
T1C0.300
; #@! TA.AperFunction,Plated,PTH,ViaDrill
T2C0.400
; #@! TA.AperFunction,Plated,PTH,ComponentDrill
T3C1.000
; #@! TA.AperFunction,Plated,PTH,ComponentDrill
T4C1.020
; #@! TA.AperFunction,Plated,PTH,ComponentDrill
T5C1.060
; #@! TA.AperFunction,Plated,PTH,ComponentDrill
T6C1.400
; #@! TA.AperFunction,Plated,PTH,ComponentDrill
T7C1.500
; #@! TA.AperFunction,Plated,PTH,ComponentDrill
T8C1.700
; #@! TA.AperFunction,Plated,PTH,ComponentDrill
T9C3.500
%
G90
G05
T1
X135.27Y-112.92
X142.23Y-73.88
X201.91Y-113.55
X202.56Y-108.04
T2
X87.05Y-72.66
X87.15Y-106.52
X94.08Y-102.98
X102.4Y-89.975
X102.41Y-126.08
X103.212Y-85.938
X104.625Y-84.625
X104.7Y-121.55
X106.74Y-111.25
X107.707Y-96.815
X108.56Y-98.87
X109.625Y-89.975
X113.61Y-62.09
X119.19Y-87.96
X119.3Y-63.38
X120.74Y-76.79
X122.17Y-102.05
X122.88Y-118.83
X123.94Y-110.03
X135.91Y-122.01
X136.312Y-97.287
X137.29Y-125.87
X137.53Y-119.61
X137.8Y-75.5
X138.36Y-86.6
X138.83Y-63.49
X139.66Y-98.72
X140.85Y-119.86
X141.475Y-104.5
X142.06Y-119.52
X142.15Y-109.17
X146.95Y-111.23
X147.59Y-103.01
X147.98Y-81.5
X148.07Y-94.9
X148.09Y-88.7
X148.93Y-124.73
X148.975Y-99.425
X149.24Y-115.31
X149.56Y-107.71
X150.2Y-59.08
X152.22Y-119.51
X152.61Y-73.09
X154.79Y-115.35
X158.22Y-111.97
X158.22Y-120.96
X162.01Y-73.15
X162.23Y-107.38
X163.29Y-123.17
X165.41Y-82.04
X165.54Y-88.99
X165.83Y-97.07
X167.12Y-103.79
X167.34Y-111.95
X167.55Y-115.31
X168.88Y-58.23
X172.91Y-124.75
X173.08Y-100.24
X173.2Y-110.58
X173.3Y-113.06
X173.54Y-121.59
X173.64Y-115.58
X174.03Y-83.99
X177.57Y-73.04
X179.06Y-89.02
X179.49Y-93.85
X179.71Y-100.24
X179.92Y-106.3
X180.13Y-119.29
X180.24Y-114.57
X180.27Y-123.88
X182.73Y-74.87
X183.93Y-66.04
X185.52Y-81.95
X186.76Y-119.64
X186.77Y-107.73
X187.09Y-114.53
X187.43Y-94.5
X187.43Y-124.12
X187.59Y-88.12
X189.43Y-100.47
X191.86Y-104.27
X194.72Y-115.63
X195.13Y-107.71
X195.16Y-89.13
X195.8Y-93.75
X195.93Y-71.86
X196.06Y-122.45
X196.24Y-112.37
X196.74Y-120.17
X196.91Y-109.92
X197.01Y-114.21
X197.13Y-78.81
X200.89Y-95.0
X202.58Y-57.91
X204.54Y-106.02
X207.95Y-66.28
X208.91Y-83.45
X212.91Y-114.87
X215.64Y-102.64
T3
X96.38Y-80.995
X96.38Y-83.535
X96.38Y-121.63
X96.38Y-124.17
X103.035Y-69.77
X105.575Y-69.77
X114.16Y-121.625
X114.16Y-124.165
X114.2Y-80.935
X114.2Y-83.475
X129.175Y-103.46
X131.715Y-103.46
X209.02Y-107.135
X209.02Y-109.675
T4
X123.94Y-94.56
X126.48Y-94.56
X129.02Y-94.56
X131.56Y-94.56
X134.1Y-94.56
X144.76Y-78.76
X144.76Y-81.3
X144.76Y-83.84
X144.76Y-86.38
X144.76Y-88.92
X144.76Y-91.46
X144.76Y-94.0
X144.76Y-96.54
X144.76Y-99.08
X144.76Y-101.62
X144.76Y-104.16
X144.76Y-106.7
X144.76Y-109.24
X144.76Y-111.78
X144.76Y-114.32
X144.76Y-116.86
X144.76Y-119.4
X144.76Y-121.94
X144.76Y-124.48
X170.16Y-78.76
X170.16Y-81.3
X170.16Y-83.84
X170.16Y-86.38
X170.16Y-88.92
X170.16Y-91.46
X170.16Y-94.0
X170.16Y-96.54
X170.16Y-99.08
X170.16Y-101.62
X170.16Y-104.16
X170.16Y-106.7
X170.16Y-109.24
X170.16Y-111.78
X170.16Y-114.32
X170.16Y-116.86
X170.16Y-119.4
X170.16Y-121.94
X170.16Y-124.48
X184.028Y-60.762
X186.567Y-60.762
X189.107Y-60.762
X191.647Y-60.762
T5
X118.86Y-107.5
X118.86Y-110.04
X118.86Y-112.58
X118.86Y-115.12
X118.86Y-117.66
X118.86Y-120.2
X139.18Y-107.5
X139.18Y-110.04
X139.18Y-112.58
X139.18Y-115.12
X139.18Y-117.66
X139.18Y-120.2
T6
X101.87Y-63.19
X106.87Y-63.19
T7
X209.02Y-95.04
T8
X206.48Y-92.5
X206.48Y-97.58
X211.56Y-92.5
X211.56Y-97.58
T9
X90.575Y-59.225
X90.61Y-122.45
X210.98Y-122.45
X211.01Y-59.07
M30
