%TF.GenerationSoftware,KiCad,Pcbnew,9.0.2*%
%TF.CreationDate,2025-07-21T01:26:10-05:00*%
%TF.ProjectId,lorae22,6c6f7261-6532-4322-9e6b-696361645f70,rev?*%
%TF.SameCoordinates,Original*%
%TF.FileFunction,Soldermask,Bot*%
%TF.FilePolarity,Negative*%
%FSLAX46Y46*%
G04 Gerber Fmt 4.6, Leading zero omitted, Abs format (unit mm)*
G04 Created by KiCad (PCBNEW 9.0.2) date 2025-07-21 01:26:10*
%MOMM*%
%LPD*%
G01*
G04 APERTURE LIST*
G04 Aperture macros list*
%AMRoundRect*
0 Rectangle with rounded corners*
0 $1 Rounding radius*
0 $2 $3 $4 $5 $6 $7 $8 $9 X,Y pos of 4 corners*
0 Add a 4 corners polygon primitive as box body*
4,1,4,$2,$3,$4,$5,$6,$7,$8,$9,$2,$3,0*
0 Add four circle primitives for the rounded corners*
1,1,$1+$1,$2,$3*
1,1,$1+$1,$4,$5*
1,1,$1+$1,$6,$7*
1,1,$1+$1,$8,$9*
0 Add four rect primitives between the rounded corners*
20,1,$1+$1,$2,$3,$4,$5,0*
20,1,$1+$1,$4,$5,$6,$7,0*
20,1,$1+$1,$6,$7,$8,$9,0*
20,1,$1+$1,$8,$9,$2,$3,0*%
G04 Aperture macros list end*
%ADD10RoundRect,0.102000X-1.050000X-1.050000X1.050000X-1.050000X1.050000X1.050000X-1.050000X1.050000X0*%
%ADD11C,2.304000*%
%ADD12RoundRect,0.102000X-0.765000X-0.765000X0.765000X-0.765000X0.765000X0.765000X-0.765000X0.765000X0*%
%ADD13C,1.734000*%
%ADD14R,1.700000X1.700000*%
%ADD15O,1.700000X1.700000*%
%ADD16RoundRect,0.102000X0.795000X0.795000X-0.795000X0.795000X-0.795000X-0.795000X0.795000X-0.795000X0*%
%ADD17C,1.794000*%
%ADD18C,3.900000*%
%ADD19C,7.000000*%
%ADD20C,2.050000*%
%ADD21C,2.250000*%
%ADD22RoundRect,0.102000X-0.685000X-0.685000X0.685000X-0.685000X0.685000X0.685000X-0.685000X0.685000X0*%
%ADD23C,1.574000*%
%ADD24C,1.724000*%
G04 APERTURE END LIST*
D10*
%TO.C,J4*%
X101870000Y-63190000D03*
D11*
X106870000Y-63190000D03*
%TD*%
D12*
%TO.C,U1*%
X144760000Y-78760000D03*
D13*
X144760000Y-81300000D03*
X144760000Y-83840000D03*
X144760000Y-86380000D03*
X144760000Y-88920000D03*
X144760000Y-91460000D03*
X144760000Y-94000000D03*
X144760000Y-96540000D03*
X144760000Y-99080000D03*
X144760000Y-101620000D03*
X144760000Y-104160000D03*
X144760000Y-106700000D03*
X144760000Y-109240000D03*
X144760000Y-111780000D03*
X144760000Y-114320000D03*
X144760000Y-116860000D03*
X144760000Y-119400000D03*
X144760000Y-121940000D03*
X144760000Y-124480000D03*
X170160000Y-124480000D03*
X170160000Y-121940000D03*
X170160000Y-119400000D03*
X170160000Y-116860000D03*
X170160000Y-114320000D03*
X170160000Y-111780000D03*
X170160000Y-109240000D03*
X170160000Y-106700000D03*
X170160000Y-104160000D03*
X170160000Y-101620000D03*
X170160000Y-99080000D03*
X170160000Y-96540000D03*
X170160000Y-94000000D03*
X170160000Y-91460000D03*
X170160000Y-88920000D03*
X170160000Y-86380000D03*
X170160000Y-83840000D03*
X170160000Y-81300000D03*
X170160000Y-78760000D03*
%TD*%
D14*
%TO.C,JP4*%
X114160000Y-124165000D03*
D15*
X114160000Y-121625000D03*
%TD*%
D14*
%TO.C,JP1*%
X129175000Y-103460000D03*
D15*
X131715000Y-103460000D03*
%TD*%
D14*
%TO.C,JP2*%
X96380000Y-83535000D03*
D15*
X96380000Y-80995000D03*
%TD*%
D16*
%TO.C,U3*%
X139180000Y-120200000D03*
D17*
X139180000Y-117660000D03*
X139180000Y-115120000D03*
X139180000Y-112580000D03*
X139180000Y-110040000D03*
X139180000Y-107500000D03*
D16*
X118860000Y-120200000D03*
D17*
X118860000Y-117660000D03*
X118860000Y-115120000D03*
X118860000Y-112580000D03*
X118860000Y-110040000D03*
X118860000Y-107500000D03*
%TD*%
D18*
%TO.C,H2*%
X211010000Y-59070000D03*
D19*
X211010000Y-59070000D03*
%TD*%
D14*
%TO.C,JP5*%
X96380000Y-121630000D03*
D15*
X96380000Y-124170000D03*
%TD*%
D14*
%TO.C,JP3*%
X114200000Y-83475000D03*
D15*
X114200000Y-80935000D03*
%TD*%
D18*
%TO.C,H1*%
X90575000Y-59225000D03*
D19*
X90575000Y-59225000D03*
%TD*%
D18*
%TO.C,H4*%
X90610000Y-122450000D03*
D19*
X90610000Y-122450000D03*
%TD*%
D14*
%TO.C,JP8*%
X105575000Y-69770000D03*
D15*
X103035000Y-69770000D03*
%TD*%
D14*
%TO.C,JP6*%
X209020000Y-107135000D03*
D15*
X209020000Y-109675000D03*
%TD*%
D20*
%TO.C,J1*%
X209020000Y-95040000D03*
D21*
X206480000Y-92500000D03*
X206480000Y-97580000D03*
X211560000Y-92500000D03*
X211560000Y-97580000D03*
%TD*%
D18*
%TO.C,H3*%
X210980000Y-122450000D03*
D19*
X210980000Y-122450000D03*
%TD*%
D22*
%TO.C,J2*%
X134100000Y-94560000D03*
D23*
X131560000Y-94560000D03*
X129020000Y-94560000D03*
X126480000Y-94560000D03*
X123940000Y-94560000D03*
%TD*%
D24*
%TO.C,J3*%
X184027500Y-60762500D03*
X186567500Y-60762500D03*
X189107500Y-60762500D03*
X191647500Y-60762500D03*
%TD*%
M02*
